STARTFONT 2.1
COMMENT
COMMENT Converted from OpenType font "HelveticaNeue-Bold-02.otf" by "otf2bdf 3.0".
COMMENT
FONT -FreeType-Helvetica Neue-Bold-R-Normal--33-240-100-100-P-180-ISO10646-1
SIZE 24 100 100
FONTBOUNDINGBOX 82 54 -34 -16
STARTPROPERTIES 19
FOUNDRY "FreeType"
FAMILY_NAME "Helvetica Neue"
WEIGHT_NAME "Bold"
SLANT "R"
SETWIDTH_NAME "Normal"
ADD_STYLE_NAME ""
PIXEL_SIZE 33
POINT_SIZE 240
RESOLUTION_X 100
RESOLUTION_Y 100
SPACING "P"
AVERAGE_WIDTH 180
CHARSET_REGISTRY "ISO10646"
CHARSET_ENCODING "1"
FONT_ASCENT 32
FONT_DESCENT 7
COPYRIGHT "Copyright (c) 1981, 1982, 1983, 1989 and 1993, Linotype Library GmbH or its affiliated Linotype-Hell companies. All rights reserved.    The digitally encoded machine readable software for producing the Typefaces licensed to you is now the property of Heidelberger Druckmaschinen AG and its licensors, and may not be reproduced, used, displayed, modified, disclosed or transferred without the express written approval of Heidelberger Druckmaschinen AG.    Copyright (c) 1988, 1990, 1993 Adobe Systems Incorporated. All Rights Reserved."
_OTF_FONTFILE "HelveticaNeue-Bold-02.otf"
_OTF_PSNAME "HelveticaNeue-Bold"
ENDPROPERTIES
CHARS 2080
STARTCHAR 0000
ENCODING 0
SWIDTH 0 0
DWIDTH 0 0
BBX 0 0 0 0
BITMAP
ENDCHAR
STARTCHAR 0008
ENCODING 8
SWIDTH 0 0
DWIDTH 0 0
BBX 0 0 0 0
BITMAP
ENDCHAR
STARTCHAR 0009
ENCODING 9
SWIDTH 270 0
DWIDTH 9 0
BBX 0 0 0 0
BITMAP
ENDCHAR
STARTCHAR 000A
ENCODING 10
SWIDTH 270 0
DWIDTH 9 0
BBX 0 0 0 0
BITMAP
ENDCHAR
STARTCHAR 000D
ENCODING 13
SWIDTH 270 0
DWIDTH 9 0
BBX 0 0 0 0
BITMAP
ENDCHAR
STARTCHAR 001D
ENCODING 29
SWIDTH 0 0
DWIDTH 0 0
BBX 0 0 0 0
BITMAP
ENDCHAR
STARTCHAR 0020
ENCODING 32
SWIDTH 270 0
DWIDTH 9 0
BBX 0 0 0 0
BITMAP
ENDCHAR
STARTCHAR 0021
ENCODING 33
SWIDTH 270 0
DWIDTH 9 0
BBX 5 24 2 0
BITMAP
F8
F8
F8
F8
F8
F8
F8
F8
F8
78
78
70
70
70
70
70
70
00
00
F8
F8
F8
F8
F8
ENDCHAR
STARTCHAR 0022
ENCODING 34
SWIDTH 450 0
DWIDTH 15 0
BBX 10 11 3 13
BITMAP
E3C0
E3C0
E3C0
E3C0
E3C0
E3C0
E3C0
E3C0
E3C0
E3C0
E3C0
ENDCHAR
STARTCHAR 0023
ENCODING 35
SWIDTH 570 0
DWIDTH 19 0
BBX 16 23 1 0
BITMAP
071E
071E
071C
071C
0F1C
0F1C
7FFF
7FFF
7FFF
0E3C
0E38
0E38
1E38
FFFE
FFFE
FFFE
1C78
1C70
1C70
3C70
3C70
3870
38F0
ENDCHAR
STARTCHAR 0024
ENCODING 36
SWIDTH 570 0
DWIDTH 19 0
BBX 19 30 0 -3
BITMAP
00C000
00C000
00C000
07FC00
1FFE00
3FFF00
7FFF80
7CCF80
78C7C0
78C7C0
7CC000
7EC000
7FE000
3FFC00
1FFF00
0FFF80
00FFC0
00DFC0
00C7C0
F8C3E0
F8C3E0
F8C3C0
7CC7C0
7FDFC0
3FFF80
1FFF00
0FFC00
00E000
00C000
00C000
ENDCHAR
STARTCHAR 0025
ENCODING 37
SWIDTH 990 0
DWIDTH 33 0
BBX 29 25 2 -1
BITMAP
0F000E00
3FC01C00
3FE01C00
78E03800
70E03800
70F07000
F0F06000
F0F0E000
70E1C000
70E1C000
79E38000
3FC38100
1F870FE0
00071FF0
000E3C70
000C3878
001C3878
00383878
00383878
00703878
00703878
00E03CF0
00E01FF0
01C00FE0
01800000
ENDCHAR
STARTCHAR 0026
ENCODING 38
SWIDTH 690 0
DWIDTH 23 0
BBX 22 24 1 0
BITMAP
01F000
07FC00
0FFE00
1F1E00
1F0F00
1E0F00
1F0F00
1F1F00
0FBE00
07FC00
07F800
0FF000
3FF000
7FF9E0
7C7DE0
F83FE0
F83FE0
F81FC0
F80F80
F81FC0
7E7FE0
7FFFF0
3FFDF8
0FF0FC
ENDCHAR
STARTCHAR 0027
ENCODING 39
SWIDTH 270 0
DWIDTH 9 0
BBX 3 11 3 13
BITMAP
E0
E0
E0
E0
E0
E0
E0
E0
E0
E0
E0
ENDCHAR
STARTCHAR 0028
ENCODING 40
SWIDTH 300 0
DWIDTH 10 0
BBX 8 30 2 -6
BITMAP
0F
1E
3E
3C
3C
7C
78
78
F8
F8
F8
F8
F8
F0
F0
F0
F8
F8
F8
F8
F8
F8
78
7C
7C
3C
3C
1E
1E
0F
ENDCHAR
STARTCHAR 0029
ENCODING 41
SWIDTH 300 0
DWIDTH 10 0
BBX 8 30 0 -6
BITMAP
F0
78
78
7C
3C
3E
3E
1E
1E
1F
1F
1F
1F
1F
1F
1F
1F
1F
1F
1F
1F
1E
1E
3E
3C
3C
7C
78
78
F0
ENDCHAR
STARTCHAR 002A
ENCODING 42
SWIDTH 420 0
DWIDTH 14 0
BBX 12 11 1 12
BITMAP
0E00
0E00
0E00
CE60
FFE0
FFF0
1F80
1F00
3F80
39C0
31C0
ENDCHAR
STARTCHAR 002B
ENCODING 43
SWIDTH 600 0
DWIDTH 20 0
BBX 16 17 2 0
BITMAP
03C0
03C0
03C0
03C0
03C0
03C0
03C0
FFFF
FFFF
FFFF
03C0
03C0
03C0
03C0
03C0
03C0
03C0
ENDCHAR
STARTCHAR 002C
ENCODING 44
SWIDTH 270 0
DWIDTH 9 0
BBX 5 10 2 -6
BITMAP
F8
F8
F8
F8
F8
38
38
78
F0
E0
ENDCHAR
STARTCHAR 002D
ENCODING 45
SWIDTH 420 0
DWIDTH 14 0
BBX 10 4 2 7
BITMAP
FFC0
FFC0
FFC0
FFC0
ENDCHAR
STARTCHAR 002E
ENCODING 46
SWIDTH 270 0
DWIDTH 9 0
BBX 5 5 2 0
BITMAP
F8
F8
F8
F8
F8
ENDCHAR
STARTCHAR 002F
ENCODING 47
SWIDTH 360 0
DWIDTH 12 0
BBX 12 25 0 -1
BITMAP
0070
00F0
00F0
01E0
01E0
01E0
03C0
03C0
0380
0780
0780
0F00
0F00
0F00
1E00
1E00
1C00
3C00
3C00
3800
7800
7800
F000
F000
E000
ENDCHAR
STARTCHAR 0030
ENCODING 48
SWIDTH 570 0
DWIDTH 19 0
BBX 17 24 1 0
BITMAP
03E000
0FF800
3FFC00
3FFE00
7E3E00
7C1F00
F81F00
F80F00
F80F80
F00F80
F00F80
F00F80
F00F80
F00F80
F00F80
F80F80
F80F00
F80F00
F81F00
7C1F00
7E7E00
3FFE00
1FFC00
0FF000
ENDCHAR
STARTCHAR 0031
ENCODING 49
SWIDTH 570 0
DWIDTH 19 0
BBX 11 23 2 0
BITMAP
01E0
01E0
03E0
07E0
FFE0
FFE0
FFE0
FFE0
03E0
03E0
03E0
03E0
03E0
03E0
03E0
03E0
03E0
03E0
03E0
03E0
03E0
03E0
03E0
ENDCHAR
STARTCHAR 0032
ENCODING 50
SWIDTH 570 0
DWIDTH 19 0
BBX 17 24 1 0
BITMAP
03E000
0FF800
1FFE00
3FFF00
7E3F00
7C1F00
780F80
F80F80
F80F80
F80F00
001F00
003F00
007E00
01FC00
03F800
0FE000
1FC000
3F0000
7E0000
7C0000
FFFF80
FFFF80
FFFF80
FFFF80
ENDCHAR
STARTCHAR 0033
ENCODING 51
SWIDTH 570 0
DWIDTH 19 0
BBX 17 24 1 0
BITMAP
03E000
0FF800
3FFC00
3FFE00
7C3F00
781F00
F81F00
F80F00
001F00
003E00
01FE00
01F800
01FE00
00FF00
001F00
000F80
F00F80
F00F80
F80F80
F81F00
7E7F00
7FFE00
3FFC00
0FF800
ENDCHAR
STARTCHAR 0034
ENCODING 52
SWIDTH 570 0
DWIDTH 19 0
BBX 17 23 1 0
BITMAP
007C00
00FC00
00FC00
01FC00
03FC00
07FC00
07FC00
0F7C00
1E7C00
3C7C00
3C7C00
787C00
F07C00
E07C00
FFFF80
FFFF80
FFFF80
FFFF80
007C00
007C00
007C00
007C00
007C00
ENDCHAR
STARTCHAR 0035
ENCODING 53
SWIDTH 570 0
DWIDTH 19 0
BBX 17 23 1 0
BITMAP
3FFF00
3FFF00
3FFF00
3FFF00
3C0000
3C0000
7C0000
79F000
7BFC00
7FFE00
7FFF00
7C1F00
F81F80
000F80
000F80
000F80
F00F80
F80F80
F81F00
FE7F00
7FFE00
3FFC00
0FF000
ENDCHAR
STARTCHAR 0036
ENCODING 54
SWIDTH 570 0
DWIDTH 19 0
BBX 17 24 1 0
BITMAP
03E000
0FF800
1FFE00
3FFE00
3E1F00
7C1F00
780F00
F80000
F8E000
F3FC00
F7FE00
FFFF00
FE3F00
F81F00
F80F80
F80F80
F80F80
F80F80
F80F00
7C1F00
7F7F00
3FFE00
1FFC00
0FF800
ENDCHAR
STARTCHAR 0037
ENCODING 55
SWIDTH 570 0
DWIDTH 19 0
BBX 16 23 1 0
BITMAP
FFFF
FFFF
FFFF
FFFF
001E
003C
003C
0078
00F0
00F0
01E0
01E0
03E0
03C0
07C0
07C0
0780
0F80
0F80
0F80
0F80
0F80
0F80
ENDCHAR
STARTCHAR 0038
ENCODING 56
SWIDTH 570 0
DWIDTH 19 0
BBX 18 24 0 0
BITMAP
01F000
0FFC00
1FFE00
3FFF00
3E0F80
7C0F80
7C0780
7C0780
3C0F80
3E1F00
1FFE00
07FC00
1FFF00
3F1F80
7C0FC0
7807C0
F807C0
F807C0
7C07C0
7C0FC0
7E1F80
3FFF80
1FFE00
07FC00
ENDCHAR
STARTCHAR 0039
ENCODING 57
SWIDTH 570 0
DWIDTH 19 0
BBX 17 24 1 0
BITMAP
03C000
1FF800
3FFC00
7FFE00
7C3E00
F81F00
F81F00
F00F00
F00F80
F80F80
F81F80
F81F80
FE7F80
7FFF80
3FEF80
1FCF80
000F00
001F00
F81F00
F83E00
7C7E00
7FFC00
3FF800
0FF000
ENDCHAR
STARTCHAR 003A
ENCODING 58
SWIDTH 270 0
DWIDTH 9 0
BBX 5 17 2 0
BITMAP
F8
F8
F8
F8
F8
00
00
00
00
00
00
00
F8
F8
F8
F8
F8
ENDCHAR
STARTCHAR 003B
ENCODING 59
SWIDTH 270 0
DWIDTH 9 0
BBX 5 22 2 -6
BITMAP
F8
F8
F8
F8
F8
00
00
00
00
00
00
00
F8
F8
F8
F8
F8
38
38
78
F0
E0
ENDCHAR
STARTCHAR 003C
ENCODING 60
SWIDTH 600 0
DWIDTH 20 0
BBX 16 17 2 0
BITMAP
0001
000F
003F
01FF
07FE
3FF0
FF80
FE00
F000
FE00
FF80
3FF0
0FFC
01FF
007F
000F
0001
ENDCHAR
STARTCHAR 003D
ENCODING 61
SWIDTH 600 0
DWIDTH 20 0
BBX 16 11 2 3
BITMAP
FFFF
FFFF
FFFF
FFFF
0000
0000
0000
FFFF
FFFF
FFFF
FFFF
ENDCHAR
STARTCHAR 003E
ENCODING 62
SWIDTH 600 0
DWIDTH 20 0
BBX 16 17 2 0
BITMAP
8000
F000
FC00
FF80
7FE0
0FFC
03FF
007F
000F
007F
01FF
0FFC
3FF0
FF80
FC00
F000
8000
ENDCHAR
STARTCHAR 003F
ENCODING 63
SWIDTH 570 0
DWIDTH 19 0
BBX 16 24 1 0
BITMAP
0FF8
1FFC
3FFE
7FFF
7C1F
F81F
F81F
F81F
001F
003F
00FE
01FC
01F8
03E0
03E0
03C0
03C0
0000
0000
07E0
07E0
07E0
07E0
07E0
ENDCHAR
STARTCHAR 0040
ENCODING 64
SWIDTH 810 0
DWIDTH 27 0
BBX 24 25 1 -1
BITMAP
00FFC0
03FFF0
07E1F8
0F003C
1E001E
3C1C0E
387F77
70FFE7
71F7E3
F3C1E3
E3C1E3
E381C3
E781C3
E781C7
F783C6
73878E
73FFDC
79FFF8
3CFBF0
1C200E
1F001C
0FC0F8
03FFF0
00FFC0
000C00
ENDCHAR
STARTCHAR 0041
ENCODING 65
SWIDTH 690 0
DWIDTH 23 0
BBX 23 24 0 0
BITMAP
007C00
00FE00
00FE00
00FE00
01FF00
01FF00
03EF80
03EF80
03EF80
07C7C0
07C7C0
0787C0
0F83E0
0F83E0
1F03F0
1FFFF0
1FFFF0
3FFFF8
3FFFF8
7E00F8
7C00FC
7C007C
FC007C
F8007E
ENDCHAR
STARTCHAR 0042
ENCODING 66
SWIDTH 690 0
DWIDTH 23 0
BBX 20 24 2 0
BITMAP
FFFE00
FFFF80
FFFFC0
FFFFE0
FC0FE0
FC03E0
FC03E0
FC03E0
FC03E0
FC07C0
FFFF80
FFFF80
FFFFC0
FC0FE0
FC03F0
FC01F0
FC01F0
FC01F0
FC01F0
FC07F0
FFFFE0
FFFFE0
FFFF80
FFFE00
ENDCHAR
STARTCHAR 0043
ENCODING 67
SWIDTH 750 0
DWIDTH 25 0
BBX 22 25 1 -1
BITMAP
01FF00
07FFC0
0FFFF0
1FFFF0
3F83F8
3F00FC
7E00FC
7C007C
7C0000
FC0000
FC0000
F80000
F80000
FC0000
FC0000
7C007C
7C007C
7E007C
3F00FC
3F81F8
1FFFF0
0FFFF0
07FFE0
01FF80
001800
ENDCHAR
STARTCHAR 0044
ENCODING 68
SWIDTH 750 0
DWIDTH 25 0
BBX 21 24 2 0
BITMAP
FFF800
FFFF00
FFFFC0
FFFFE0
FFFFE0
FC07F0
FC03F0
FC01F8
FC00F8
FC00F8
FC00F8
FC00F8
FC00F8
FC00F8
FC00F8
FC00F8
FC01F8
FC01F0
FC03F0
FC1FE0
FFFFE0
FFFFC0
FFFF00
FFFC00
ENDCHAR
STARTCHAR 0045
ENCODING 69
SWIDTH 660 0
DWIDTH 22 0
BBX 18 24 2 0
BITMAP
FFFFC0
FFFFC0
FFFFC0
FFFFC0
FFFFC0
FC0000
FC0000
FC0000
FC0000
FC0000
FFFF80
FFFF80
FFFF80
FFFF80
FC0000
FC0000
FC0000
FC0000
FC0000
FC0000
FFFFC0
FFFFC0
FFFFC0
FFFFC0
ENDCHAR
STARTCHAR 0046
ENCODING 70
SWIDTH 600 0
DWIDTH 20 0
BBX 17 24 2 0
BITMAP
FFFF80
FFFF80
FFFF80
FFFF80
FFFF80
FC0000
FC0000
FC0000
FC0000
FC0000
FFFE00
FFFE00
FFFE00
FFFE00
FC0000
FC0000
FC0000
FC0000
FC0000
FC0000
FC0000
FC0000
FC0000
FC0000
ENDCHAR
STARTCHAR 0047
ENCODING 71
SWIDTH 750 0
DWIDTH 25 0
BBX 22 25 1 -1
BITMAP
01FF00
07FFC0
0FFFE0
1FFFF0
3F83F8
3F00F8
7E00FC
7C007C
7C0000
FC0000
FC0000
F80FFC
F80FFC
FC0FFC
FC0FFC
7C003C
7C007C
7E007C
3F00FC
3F81FC
1FFFFC
0FFFDC
07FF9C
01FF1C
001800
ENDCHAR
STARTCHAR 0048
ENCODING 72
SWIDTH 750 0
DWIDTH 25 0
BBX 20 24 2 0
BITMAP
FC01F0
FC01F0
FC01F0
FC01F0
FC01F0
FC01F0
FC01F0
FC01F0
FC01F0
FFFFF0
FFFFF0
FFFFF0
FFFFF0
FFFFF0
FC01F0
FC01F0
FC01F0
FC01F0
FC01F0
FC01F0
FC01F0
FC01F0
FC01F0
FC01F0
ENDCHAR
STARTCHAR 0049
ENCODING 73
SWIDTH 300 0
DWIDTH 10 0
BBX 6 24 2 0
BITMAP
FC
FC
FC
FC
FC
FC
FC
FC
FC
FC
FC
FC
FC
FC
FC
FC
FC
FC
FC
FC
FC
FC
FC
FC
ENDCHAR
STARTCHAR 004A
ENCODING 74
SWIDTH 570 0
DWIDTH 19 0
BBX 16 25 0 -1
BITMAP
001F
001F
001F
001F
001F
001F
001F
001F
001F
001F
001F
001F
001F
001F
001F
F81F
F81F
F81F
7C1F
7C3F
7FFF
3FFE
3FFC
0FF8
0180
ENDCHAR
STARTCHAR 004B
ENCODING 75
SWIDTH 720 0
DWIDTH 24 0
BBX 22 24 2 0
BITMAP
FC01F8
FC03F0
FC07E0
FC0FC0
FC1F80
FC3F00
FC7E00
FCFC00
FDF800
FFF000
FFF800
FFF800
FFFC00
FF7E00
FE7F00
FC3F00
FC1F80
FC1FC0
FC0FC0
FC07E0
FC07F0
FC03F0
FC01F8
FC01FC
ENDCHAR
STARTCHAR 004C
ENCODING 76
SWIDTH 600 0
DWIDTH 20 0
BBX 17 24 2 0
BITMAP
FC0000
FC0000
FC0000
FC0000
FC0000
FC0000
FC0000
FC0000
FC0000
FC0000
FC0000
FC0000
FC0000
FC0000
FC0000
FC0000
FC0000
FC0000
FC0000
FC0000
FFFF80
FFFF80
FFFF80
FFFF80
ENDCHAR
STARTCHAR 004D
ENCODING 77
SWIDTH 900 0
DWIDTH 30 0
BBX 26 24 2 0
BITMAP
FF003FC0
FF003FC0
FF003FC0
FF807FC0
FF807FC0
FF807FC0
FFC07FC0
FFC0FFC0
FBC0F7C0
FBE0F7C0
FBE1F7C0
F9E1E7C0
F9F1E7C0
F9F3E7C0
F8FBC7C0
F8FBC7C0
F8FFC7C0
F87F87C0
F87F87C0
F83F87C0
F83F07C0
F83F07C0
F81F07C0
F81E07C0
ENDCHAR
STARTCHAR 004E
ENCODING 78
SWIDTH 750 0
DWIDTH 25 0
BBX 20 24 2 0
BITMAP
FC01F0
FC01F0
FE01F0
FF01F0
FF01F0
FF81F0
FF81F0
FFC1F0
FBE1F0
FBE1F0
F9F1F0
F9F9F0
F8F9F0
F87DF0
F87DF0
F83FF0
F83FF0
F81FF0
F80FF0
F80FF0
F807F0
F803F0
F803F0
F801F0
ENDCHAR
STARTCHAR 004F
ENCODING 79
SWIDTH 780 0
DWIDTH 26 0
BBX 24 25 1 -1
BITMAP
01FF80
07FFE0
0FFFF0
1FFFF8
3F83FC
3F00FC
7E007E
7C007E
7C003E
FC003E
FC003F
F8003F
F8003F
FC003F
FC003E
7C003E
7C003E
7E007E
3F00FC
3F81FC
1FFFF8
0FFFF0
07FFE0
01FF80
001800
ENDCHAR
STARTCHAR 0050
ENCODING 80
SWIDTH 660 0
DWIDTH 22 0
BBX 19 24 2 0
BITMAP
FFFC00
FFFF00
FFFF80
FFFFC0
FC0FE0
FC07E0
FC03E0
FC03E0
FC03E0
FC03E0
FC07E0
FFFFE0
FFFFC0
FFFF80
FFFE00
FC0000
FC0000
FC0000
FC0000
FC0000
FC0000
FC0000
FC0000
FC0000
ENDCHAR
STARTCHAR 0051
ENCODING 81
SWIDTH 780 0
DWIDTH 26 0
BBX 24 26 1 -2
BITMAP
01FF80
07FFC0
0FFFF0
1FFFF8
3F83F8
3F00FC
7E007E
7C007E
7C003E
FC003E
FC003F
FC003F
F8003F
FC003F
FC003E
7C023E
7C073E
7E0FFE
3F07FC
3F83FC
1FFFF8
0FFFF8
07FFFC
01FFBE
00381E
00000C
ENDCHAR
STARTCHAR 0052
ENCODING 82
SWIDTH 720 0
DWIDTH 24 0
BBX 20 24 2 0
BITMAP
FFFE00
FFFF80
FFFFE0
FFFFE0
FC07F0
FC03F0
FC01F0
FC01F0
FC01F0
FC03F0
FC07E0
FFFFC0
FFFF80
FFFFC0
FFFFE0
FC07E0
FC03F0
FC01F0
FC01F0
FC01F0
FC01F0
FC01F0
FC01F0
FC01F0
ENDCHAR
STARTCHAR 0053
ENCODING 83
SWIDTH 660 0
DWIDTH 22 0
BBX 20 25 1 -1
BITMAP
07FC00
1FFF00
3FFF80
7FFFC0
7E07E0
7C07E0
7C03E0
7C0000
7E0000
7FE000
3FFE00
1FFF80
0FFFC0
01FFE0
001FE0
0007F0
F803F0
F801F0
FC01F0
FC03E0
7FFFE0
3FFFC0
1FFF80
0FFE00
006000
ENDCHAR
STARTCHAR 0054
ENCODING 84
SWIDTH 600 0
DWIDTH 20 0
BBX 20 24 0 0
BITMAP
FFFFF0
FFFFF0
FFFFF0
FFFFF0
FFFFF0
00F800
00F800
00F800
00F800
00F800
00F800
00F800
00F800
00F800
00F800
00F800
00F800
00F800
00F800
00F800
00F800
00F800
00F800
00F800
ENDCHAR
STARTCHAR 0055
ENCODING 85
SWIDTH 750 0
DWIDTH 25 0
BBX 20 25 2 -1
BITMAP
F801F0
F801F0
F801F0
F801F0
F801F0
F801F0
F801F0
F801F0
F801F0
F801F0
F801F0
F801F0
F801F0
F801F0
F801F0
F801F0
FC01F0
FC01F0
7C03F0
7E07F0
7FFFE0
3FFFC0
1FFF80
07FF00
006000
ENDCHAR
STARTCHAR 0056
ENCODING 86
SWIDTH 630 0
DWIDTH 21 0
BBX 21 24 0 0
BITMAP
F800F8
FC01F8
FC01F8
7C01F0
7C03F0
7E03F0
3E03E0
3E03E0
3F07E0
1F07C0
1F07C0
1F8FC0
0F8F80
0F8F80
0FDF80
07DF00
07DF00
07FF00
03FE00
03FE00
03FE00
01FC00
01FC00
01FC00
ENDCHAR
STARTCHAR 0057
ENCODING 87
SWIDTH 930 0
DWIDTH 31 0
BBX 31 24 0 0
BITMAP
F807C03E
FC07E03E
7C07E03E
7C0FE07C
7C0FE07C
7E0FF07C
3E0FF07C
3E1FF0F8
3E1FF0F8
1E1EF0F8
1F1EF8F8
1F3E78F0
1F3E79F0
0F3C79F0
0FBC7DF0
0FFC3DE0
0FFC3FE0
07F83FE0
07F83FC0
07F81FC0
07F81FC0
03F01FC0
03F01F80
03F00F80
ENDCHAR
STARTCHAR 0058
ENCODING 88
SWIDTH 660 0
DWIDTH 22 0
BBX 22 24 0 0
BITMAP
7E00FC
7E01F8
3F01F0
1F83F0
1F87E0
0FC7C0
07CFC0
07FF80
03FF00
01FF00
01FE00
00FC00
01FE00
01FE00
03FF00
07FF80
07FF80
0FCFC0
1F87E0
1F87E0
3F03F0
7E01F8
7E01F8
FC00FC
ENDCHAR
STARTCHAR 0059
ENCODING 89
SWIDTH 660 0
DWIDTH 22 0
BBX 22 24 0 0
BITMAP
FC007C
FC00FC
7E01F8
3F01F8
3F03F0
1F83E0
1F87E0
0FCFC0
07EFC0
07FF80
03FF00
03FF00
01FE00
00FE00
00FC00
00FC00
00FC00
00FC00
00FC00
00FC00
00FC00
00FC00
00FC00
00FC00
ENDCHAR
STARTCHAR 005A
ENCODING 90
SWIDTH 660 0
DWIDTH 22 0
BBX 20 24 1 0
BITMAP
7FFFE0
7FFFE0
7FFFE0
7FFFE0
7FFFE0
000FE0
001FC0
003F80
007F00
00FE00
00FC00
01FC00
03F800
07F000
0FE000
1FC000
1F8000
3F0000
7F0000
FE0000
FFFFF0
FFFFF0
FFFFF0
FFFFF0
ENDCHAR
STARTCHAR 005B
ENCODING 91
SWIDTH 330 0
DWIDTH 11 0
BBX 9 30 2 -6
BITMAP
FF80
FF80
FF80
F800
F800
F800
F800
F800
F800
F800
F800
F800
F800
F800
F800
F800
F800
F800
F800
F800
F800
F800
F800
F800
F800
F800
FF80
FF80
FF80
FF80
ENDCHAR
STARTCHAR 005C
ENCODING 92
SWIDTH 360 0
DWIDTH 12 0
BBX 13 25 0 -1
BITMAP
F000
F000
7000
7800
7800
3C00
3C00
1C00
1E00
1E00
0E00
0F00
0F00
0780
0780
0380
03C0
03C0
01C0
01E0
01E0
00F0
00F0
0070
0078
ENDCHAR
STARTCHAR 005D
ENCODING 93
SWIDTH 330 0
DWIDTH 11 0
BBX 9 30 0 -6
BITMAP
FF80
FF80
FF80
0F80
0F80
0F80
0F80
0F80
0F80
0F80
0F80
0F80
0F80
0F80
0F80
0F80
0F80
0F80
0F80
0F80
0F80
0F80
0F80
0F80
0F80
0F80
FF80
FF80
FF80
FF80
ENDCHAR
STARTCHAR 005E
ENCODING 94
SWIDTH 600 0
DWIDTH 20 0
BBX 16 13 2 10
BITMAP
07E0
07E0
0FE0
0FF0
0EF0
1E78
1E78
3C3C
3C3C
781E
781E
F00F
F00F
ENDCHAR
STARTCHAR 005F
ENCODING 95
SWIDTH 510 0
DWIDTH 17 0
BBX 17 2 0 -4
BITMAP
FFFF80
FFFF80
ENDCHAR
STARTCHAR 0060
ENCODING 96
SWIDTH 270 0
DWIDTH 9 0
BBX 8 6 -1 20
BITMAP
F8
7C
3C
1E
0E
07
ENDCHAR
STARTCHAR 0061
ENCODING 97
SWIDTH 570 0
DWIDTH 19 0
BBX 17 18 1 0
BITMAP
03E000
1FFC00
3FFE00
7FFF00
7C1F00
781F00
001F00
003F00
0FFF00
3FFF00
7F0F00
F81F00
F81F00
F81F00
F83F00
FFFF00
7FFF00
3FCF80
ENDCHAR
STARTCHAR 0062
ENCODING 98
SWIDTH 600 0
DWIDTH 20 0
BBX 17 24 2 0
BITMAP
F80000
F80000
F80000
F80000
F80000
F80000
F8F000
FBFC00
FFFE00
FFFF00
FC3F00
F81F80
F80F80
F80F80
F00F80
F00F80
F00F80
F80F80
F80F80
FC1F00
FE3F00
FFFE00
F7FE00
F3F800
ENDCHAR
STARTCHAR 0063
ENCODING 99
SWIDTH 570 0
DWIDTH 19 0
BBX 17 18 1 0
BITMAP
01E000
0FFC00
1FFE00
3FFF00
7E1F80
7C0F80
780F80
F80000
F80000
F80000
F80000
F80780
7C0F80
7C0F80
7E1F00
3FFF00
1FFE00
07F800
ENDCHAR
STARTCHAR 0064
ENCODING 100
SWIDTH 600 0
DWIDTH 20 0
BBX 18 24 1 0
BITMAP
0007C0
0007C0
0007C0
0007C0
0007C0
0007C0
0387C0
0FF7C0
3FFFC0
3FFFC0
7E1FC0
7C0FC0
F807C0
F807C0
F807C0
F807C0
F807C0
F807C0
F80FC0
7C0FC0
7E1FC0
3FFFC0
1FFFC0
0FE7C0
ENDCHAR
STARTCHAR 0065
ENCODING 101
SWIDTH 570 0
DWIDTH 19 0
BBX 17 18 1 0
BITMAP
01E000
0FF800
1FFC00
3FFE00
7C1F00
780F00
F80F80
F80F80
FFFF80
FFFF80
FFFF80
F80000
F80000
7C0F80
7E1F00
3FFE00
1FFC00
0FF800
ENDCHAR
STARTCHAR 0066
ENCODING 102
SWIDTH 330 0
DWIDTH 11 0
BBX 11 24 0 0
BITMAP
03E0
0FE0
0FE0
1FE0
1F00
1F00
1F00
FFE0
FFE0
FFE0
1F00
1F00
1F00
1F00
1F00
1F00
1F00
1F00
1F00
1F00
1F00
1F00
1F00
1F00
ENDCHAR
STARTCHAR 0067
ENCODING 103
SWIDTH 600 0
DWIDTH 20 0
BBX 17 25 1 -7
BITMAP
038000
0FF780
3FF780
3FFF80
7E1F80
7C0F80
F80F80
F80780
F80780
F80780
F80780
F80F80
7C0F80
7E1F80
3FFF80
3FF780
0FE780
010780
000780
7C0F80
7C0F80
3FFF00
3FFE00
0FFC00
00C000
ENDCHAR
STARTCHAR 0068
ENCODING 104
SWIDTH 600 0
DWIDTH 20 0
BBX 16 24 2 0
BITMAP
F800
F800
F800
F800
F800
F800
F8F0
FBFC
FFFE
FFFE
FC3F
F81F
F81F
F81F
F81F
F81F
F81F
F81F
F81F
F81F
F81F
F81F
F81F
F81F
ENDCHAR
STARTCHAR 0069
ENCODING 105
SWIDTH 270 0
DWIDTH 9 0
BBX 5 24 2 0
BITMAP
F8
F8
F8
F8
00
00
00
F8
F8
F8
F8
F8
F8
F8
F8
F8
F8
F8
F8
F8
F8
F8
F8
F8
ENDCHAR
STARTCHAR 006A
ENCODING 106
SWIDTH 270 0
DWIDTH 9 0
BBX 8 30 -1 -6
BITMAP
1F
1F
1F
1F
00
00
00
1F
1F
1F
1F
1F
1F
1F
1F
1F
1F
1F
1F
1F
1F
1F
1F
1F
1F
1F
FF
FF
FE
F8
ENDCHAR
STARTCHAR 006B
ENCODING 107
SWIDTH 570 0
DWIDTH 19 0
BBX 17 24 2 0
BITMAP
F80000
F80000
F80000
F80000
F80000
F80000
F80000
F83F00
F87E00
F8FC00
F9F800
FBF000
FFE000
FFC000
FFE000
FFF000
FFF000
FCF800
F8FC00
F87C00
F87E00
F83F00
F81F00
F81F80
ENDCHAR
STARTCHAR 006C
ENCODING 108
SWIDTH 270 0
DWIDTH 9 0
BBX 5 24 2 0
BITMAP
F8
F8
F8
F8
F8
F8
F8
F8
F8
F8
F8
F8
F8
F8
F8
F8
F8
F8
F8
F8
F8
F8
F8
F8
ENDCHAR
STARTCHAR 006D
ENCODING 109
SWIDTH 900 0
DWIDTH 30 0
BBX 26 18 2 0
BITMAP
00F03C00
F3FCFF00
F7FDFF80
FFFFFFC0
FC3F8FC0
F83F07C0
F81F07C0
F81E07C0
F81E03C0
F81E03C0
F81E03C0
F81E03C0
F81E03C0
F81E03C0
F81E03C0
F81E03C0
F81E03C0
F81E03C0
ENDCHAR
STARTCHAR 006E
ENCODING 110
SWIDTH 600 0
DWIDTH 20 0
BBX 16 18 2 0
BITMAP
00F0
F3FC
F7FE
FFFE
FC3F
F81F
F81F
F81F
F81F
F81F
F81F
F81F
F81F
F81F
F81F
F81F
F81F
F81F
ENDCHAR
STARTCHAR 006F
ENCODING 111
SWIDTH 600 0
DWIDTH 20 0
BBX 18 18 1 0
BITMAP
01E000
0FFC00
1FFE00
3FFF00
7E1F80
7C0F80
7807C0
F807C0
F807C0
F807C0
F807C0
F807C0
7C07C0
7C0F80
7E1F80
3FFF00
1FFE00
07FC00
ENDCHAR
STARTCHAR 0070
ENCODING 112
SWIDTH 600 0
DWIDTH 20 0
BBX 17 24 2 -6
BITMAP
00E000
F3FC00
F7FE00
FFFF00
FC1F00
F80F80
F80F80
F80F80
F00780
F00780
F00780
F80F80
F80F80
FC1F80
FE3F00
FFFF00
FFFE00
FBFC00
F80000
F80000
F80000
F80000
F80000
F80000
ENDCHAR
STARTCHAR 0071
ENCODING 113
SWIDTH 600 0
DWIDTH 20 0
BBX 18 24 1 -6
BITMAP
03C000
0FF7C0
3FFFC0
3FFFC0
7E1FC0
7C0FC0
F80FC0
F807C0
F807C0
F807C0
F807C0
F807C0
F80FC0
7C0FC0
7E1FC0
3FFFC0
1FF7C0
0FE7C0
0007C0
0007C0
0007C0
0007C0
0007C0
0007C0
ENDCHAR
STARTCHAR 0072
ENCODING 114
SWIDTH 390 0
DWIDTH 13 0
BBX 11 18 2 0
BITMAP
00E0
F3E0
F7E0
F7E0
FFE0
FC00
F800
F800
F800
F800
F800
F800
F800
F800
F800
F800
F800
F800
ENDCHAR
STARTCHAR 0073
ENCODING 115
SWIDTH 540 0
DWIDTH 18 0
BBX 16 18 1 0
BITMAP
07C0
1FF8
7FFC
7FFE
F83E
F81E
FC00
7FC0
7FF8
1FFE
03FE
003F
F01F
F81F
F81F
7FFE
3FFC
1FF8
ENDCHAR
STARTCHAR 0074
ENCODING 116
SWIDTH 360 0
DWIDTH 12 0
BBX 11 22 0 0
BITMAP
1F00
1F00
1F00
1F00
1F00
FFE0
FFE0
FFE0
1F00
1F00
1F00
1F00
1F00
1F00
1F00
1F00
1F00
1F00
1FE0
1FE0
0FE0
07E0
ENDCHAR
STARTCHAR 0075
ENCODING 117
SWIDTH 600 0
DWIDTH 20 0
BBX 16 17 2 0
BITMAP
F81F
F81F
F81F
F81F
F81F
F81F
F81F
F81F
F81F
F81F
F81F
F81F
F83F
FC7F
FFFF
7FFF
3F9F
ENDCHAR
STARTCHAR 0076
ENCODING 118
SWIDTH 510 0
DWIDTH 17 0
BBX 17 17 0 0
BITMAP
F80F80
7C0F80
7C0F00
7C1F00
3E1F00
3E1E00
3E3E00
1F3E00
1F3C00
1F7C00
0F7C00
0FF800
07F800
07F800
07F000
03F000
03F000
ENDCHAR
STARTCHAR 0077
ENCODING 119
SWIDTH 810 0
DWIDTH 27 0
BBX 27 17 0 0
BITMAP
F81F03E0
7C1F03C0
7C1F87C0
7C3F87C0
3C3F8780
3E3B8F80
3E3BCF80
1E7BCF00
1F7BCF00
1F71DF00
0F71FF00
0FF1FE00
0FF1FE00
07E0FE00
07E0FC00
07E0FC00
07E0FC00
ENDCHAR
STARTCHAR 0078
ENCODING 120
SWIDTH 540 0
DWIDTH 18 0
BBX 18 17 0 0
BITMAP
7C1F80
3E1F00
3F3E00
1F7E00
0FFC00
0FF800
07F000
03F000
03F000
07F800
0FF800
0FFC00
1F7E00
3F3E00
3E1F00
7C1F80
FC0FC0
ENDCHAR
STARTCHAR 0079
ENCODING 121
SWIDTH 510 0
DWIDTH 17 0
BBX 17 23 0 -6
BITMAP
F80F80
F80F80
7C0F00
7C1F00
3C1F00
3E1E00
3E3E00
1E3E00
1F3C00
1F7C00
0F7C00
0FF800
07F800
07F000
07F000
03F000
03E000
03E000
03E000
7FC000
7FC000
7F8000
7E0000
ENDCHAR
STARTCHAR 007A
ENCODING 122
SWIDTH 510 0
DWIDTH 17 0
BBX 16 17 1 0
BITMAP
FFFE
FFFE
FFFE
007E
00FC
01F8
03F0
07E0
0FC0
1F80
3F80
7F00
7E00
FFFF
FFFF
FFFF
FFFF
ENDCHAR
STARTCHAR 007B
ENCODING 123
SWIDTH 330 0
DWIDTH 11 0
BBX 11 30 0 -6
BITMAP
07E0
0FE0
1FE0
1F80
1F00
1E00
1E00
1E00
1E00
1E00
1E00
1E00
3E00
FE00
F800
FC00
7E00
3E00
1E00
1E00
1E00
1E00
1E00
1E00
1F00
1F00
1FE0
1FE0
0FE0
07E0
ENDCHAR
STARTCHAR 007C
ENCODING 124
SWIDTH 210 0
DWIDTH 7 0
BBX 3 33 2 -7
BITMAP
E0
E0
E0
E0
E0
E0
E0
E0
E0
E0
E0
E0
E0
E0
E0
E0
E0
E0
E0
E0
E0
E0
E0
E0
E0
E0
E0
E0
E0
E0
E0
E0
E0
ENDCHAR
STARTCHAR 007D
ENCODING 125
SWIDTH 330 0
DWIDTH 11 0
BBX 11 30 0 -6
BITMAP
FE00
FF00
FF00
3F00
1F00
0F00
0F00
0F00
0F00
0F00
0F00
0F80
0F80
0FE0
03E0
07E0
0FC0
0F80
0F00
0F00
0F00
0F00
0F00
0F00
0F00
1F00
FF00
FF00
FE00
FC00
ENDCHAR
STARTCHAR 007E
ENCODING 126
SWIDTH 600 0
DWIDTH 20 0
BBX 16 7 2 8
BITMAP
1802
7F06
FFEF
FFFF
E3FE
40FC
4010
ENDCHAR
STARTCHAR 00A0
ENCODING 160
SWIDTH 270 0
DWIDTH 9 0
BBX 0 0 0 0
BITMAP
ENDCHAR
STARTCHAR 00A1
ENCODING 161
SWIDTH 270 0
DWIDTH 9 0
BBX 5 24 2 -6
BITMAP
F8
F8
F8
F8
F8
00
00
70
70
70
70
70
70
78
78
F8
F8
F8
F8
F8
F8
F8
F8
F8
ENDCHAR
STARTCHAR 00A2
ENCODING 162
SWIDTH 570 0
DWIDTH 19 0
BBX 17 25 1 -4
BITMAP
00C000
00C000
00C000
03E000
0FFC00
3FFE00
3FFF00
7CDF80
F8CF80
F8CF80
F8C000
F0C000
F0C000
F8C000
F8CF80
F8CF80
FCCF80
7EDF00
3FFF00
1FFE00
0FF800
00C000
00C000
00C000
00C000
ENDCHAR
STARTCHAR 00A3
ENCODING 163
SWIDTH 570 0
DWIDTH 19 0
BBX 18 25 1 -1
BITMAP
0FF800
1FFE00
3FFE00
7FFF00
7C1F00
FC0F80
FC0F80
FC0F80
7C0000
7C0000
3E0000
FFE000
FFE000
FFE000
1F0000
0F0000
0F0000
1F0000
1E0000
3C0100
7FFF80
FFFF80
7FFFC0
71FF80
001800
ENDCHAR
STARTCHAR 00A4
ENCODING 164
SWIDTH 570 0
DWIDTH 19 0
BBX 17 17 1 3
BITMAP
43E300
EFFF80
FFFF00
7FFE00
7C1F00
F80F00
F00F00
F00F00
F00F00
F00F00
F80F00
781F00
7C3E00
7FFE00
FFFF00
EFF300
41C000
ENDCHAR
STARTCHAR 00A5
ENCODING 165
SWIDTH 570 0
DWIDTH 19 0
BBX 19 24 0 0
BITMAP
F803E0
FC07E0
7C07C0
7E0FC0
3E0F80
3E0F80
1F1F00
1F1F00
0FBE00
0FBE00
07BC00
3FFF80
3FFF80
3FFF80
01F000
01F000
3FFF80
3FFF80
3FFF80
01F000
01F000
01F000
01F000
01F000
ENDCHAR
STARTCHAR 00A6
ENCODING 166
SWIDTH 210 0
DWIDTH 7 0
BBX 3 25 2 -3
BITMAP
E0
E0
E0
E0
E0
E0
E0
E0
00
00
00
00
00
00
00
00
00
E0
E0
E0
E0
E0
E0
E0
E0
ENDCHAR
STARTCHAR 00A7
ENCODING 167
SWIDTH 570 0
DWIDTH 19 0
BBX 18 30 0 -6
BITMAP
03F800
0FFE00
1FFE00
1F1F00
1E0F00
3E0F00
1E0000
1F8000
0FC000
3FF800
7FFC00
79FF00
F87F80
F81FC0
F807C0
7E03C0
7F83C0
3FC3C0
1FFF80
07FF00
01FE00
007F00
001F00
000F00
3C0F80
3E1F00
1FFF00
1FFE00
0FFC00
03F800
ENDCHAR
STARTCHAR 00A8
ENCODING 168
SWIDTH 270 0
DWIDTH 9 0
BBX 11 4 -1 20
BITMAP
F3E0
F3E0
F3E0
F3E0
ENDCHAR
STARTCHAR 00A9
ENCODING 169
SWIDTH 810 0
DWIDTH 27 0
BBX 25 25 1 -1
BITMAP
00FF8000
07FFE000
0FE3F800
1F007C00
3C003E00
787F1E00
78FF8F00
F1E3C700
F3C0C780
E380E780
E3800380
E3800380
E3800380
E3800380
E380E780
E3C0C780
F1E3C700
70FF8F00
787F0E00
3C001E00
1E007C00
0FC1F800
07FFF000
01FFC000
00180000
ENDCHAR
STARTCHAR 00AA
ENCODING 170
SWIDTH 330 0
DWIDTH 11 0
BBX 11 11 0 12
BITMAP
0F80
3FC0
79E0
70E0
01E0
3FE0
7EE0
F0E0
F1E0
FFE0
7EE0
ENDCHAR
STARTCHAR 00AB
ENCODING 171
SWIDTH 450 0
DWIDTH 15 0
BBX 12 12 1 3
BITMAP
0C10
1C30
3C70
7DF0
F1E0
E1C0
E1C0
F9E0
7CF0
3C70
1C30
0410
ENDCHAR
STARTCHAR 00AC
ENCODING 172
SWIDTH 600 0
DWIDTH 20 0
BBX 16 11 2 3
BITMAP
FFFF
FFFF
FFFF
FFFF
0007
0007
0007
0007
0007
0007
0007
ENDCHAR
STARTCHAR 00AD
ENCODING 173
SWIDTH 420 0
DWIDTH 14 0
BBX 10 4 2 7
BITMAP
FFC0
FFC0
FFC0
FFC0
ENDCHAR
STARTCHAR 00AE
ENCODING 174
SWIDTH 810 0
DWIDTH 27 0
BBX 25 25 1 -1
BITMAP
00FF8000
07FFE000
0FE3F800
1F007C00
3C003E00
79FF1E00
79FF8F00
F1C3C700
F1C1C780
E1C1C780
E1C1C380
E1FF8380
E1FF0380
E1CE0380
E1C60780
E1C70780
F1C38700
71C38F00
79C1DE00
3C001E00
1E007C00
0FC1F800
07FFF000
01FFC000
00180000
ENDCHAR
STARTCHAR 00AF
ENCODING 175
SWIDTH 270 0
DWIDTH 9 0
BBX 13 2 -2 21
BITMAP
FFF8
FFF8
ENDCHAR
STARTCHAR 00B0
ENCODING 176
SWIDTH 390 0
DWIDTH 13 0
BBX 10 10 2 14
BITMAP
1C00
7F00
F380
C180
C1C0
C1C0
C180
E380
7F00
3E00
ENDCHAR
STARTCHAR 00B1
ENCODING 177
SWIDTH 600 0
DWIDTH 20 0
BBX 16 17 2 0
BITMAP
03C0
03C0
03C0
03C0
03C0
FFFF
FFFF
FFFF
03C0
03C0
03C0
03C0
0000
FFFF
FFFF
FFFF
FFFF
ENDCHAR
STARTCHAR 00B2
ENCODING 178
SWIDTH 390 0
DWIDTH 13 0
BBX 11 15 1 9
BITMAP
0F00
3FC0
7FE0
F1E0
F0E0
E0E0
01E0
03C0
0F80
1F00
3C00
7800
FFE0
FFE0
FFE0
ENDCHAR
STARTCHAR 00B3
ENCODING 179
SWIDTH 390 0
DWIDTH 13 0
BBX 11 15 1 9
BITMAP
1F00
3FC0
7FC0
F1E0
E0E0
01E0
0FC0
0FC0
0FE0
00E0
E0E0
E0E0
FBE0
7FC0
3F80
ENDCHAR
STARTCHAR 00B4
ENCODING 180
SWIDTH 270 0
DWIDTH 9 0
BBX 8 6 2 20
BITMAP
1F
3E
3C
78
70
E0
ENDCHAR
STARTCHAR 00B5
ENCODING 181
SWIDTH 600 0
DWIDTH 20 0
BBX 16 23 2 -6
BITMAP
F81F
F81F
F81F
F81F
F81F
F81F
F81F
F81F
F81F
F81F
F81F
F81F
F83F
FC7F
FFFF
FFFF
FFDF
F800
F800
F800
F800
F800
F800
ENDCHAR
STARTCHAR 00B6
ENCODING 182
SWIDTH 630 0
DWIDTH 21 0
BBX 18 30 0 -6
BITMAP
07FFC0
3FFFC0
7FFFC0
7FE3C0
FFE3C0
FFE3C0
FFE3C0
FFE3C0
FFE3C0
7FE3C0
3FE3C0
0FE3C0
01E3C0
01E3C0
01E3C0
01E3C0
01E3C0
01E3C0
01E3C0
01E3C0
01E3C0
01E3C0
01E3C0
01E3C0
01E3C0
01E3C0
01E3C0
01E3C0
01E3C0
01E3C0
ENDCHAR
STARTCHAR 00B7
ENCODING 183
SWIDTH 270 0
DWIDTH 9 0
BBX 5 5 2 7
BITMAP
78
F8
F8
F8
78
ENDCHAR
STARTCHAR 00B8
ENCODING 184
SWIDTH 270 0
DWIDTH 9 0
BBX 8 7 0 -7
BITMAP
18
10
3F
07
07
7F
FE
ENDCHAR
STARTCHAR 00B9
ENCODING 185
SWIDTH 390 0
DWIDTH 13 0
BBX 7 14 3 9
BITMAP
0E
1E
FE
FE
FE
1E
1E
1E
1E
1E
1E
1E
1E
1E
ENDCHAR
STARTCHAR 00BA
ENCODING 186
SWIDTH 360 0
DWIDTH 12 0
BBX 12 12 0 12
BITMAP
0F00
3FC0
7FE0
78E0
70F0
F0F0
F0F0
70F0
79E0
7FE0
3FC0
0400
ENDCHAR
STARTCHAR 00BB
ENCODING 187
SWIDTH 450 0
DWIDTH 15 0
BBX 12 12 1 3
BITMAP
C100
E1C0
F1E0
F9F0
3CF0
1C30
1C70
7CF0
F9F0
F1E0
E180
8100
ENDCHAR
STARTCHAR 00BC
ENCODING 188
SWIDTH 900 0
DWIDTH 30 0
BBX 27 25 1 -1
BITMAP
00003000
0E007000
1E00E000
FE00E000
FE01C000
FE01C000
1E038000
1E038000
1E070000
1E060000
1E0E0780
1E1C0780
1E1C0F80
1E381F80
1E383B80
00707380
00707380
00E0E380
00C0FFE0
01C0FFE0
0380FFE0
03800380
07000380
07000380
0E000000
ENDCHAR
STARTCHAR 00BD
ENCODING 189
SWIDTH 900 0
DWIDTH 30 0
BBX 27 25 1 -1
BITMAP
00003000
0E007000
1E00E000
FE00E000
FE01C000
FE01C000
1E038000
1E038000
1E070000
1E060F00
1E0E3FC0
1E1C7FE0
1E1CF1E0
1E38F0E0
1E38E0E0
007001E0
007003C0
00E00780
00C01F00
01C03C00
03807800
0380FFE0
0700FFE0
0700FFE0
0E000000
ENDCHAR
STARTCHAR 00BE
ENCODING 190
SWIDTH 900 0
DWIDTH 30 0
BBX 28 25 1 -1
BITMAP
0F000E00
3FC00E00
7FE01C00
78E01C00
70E03800
00E03800
07C07000
07C06000
07E0E000
00F1C000
F0F1C3C0
F0F387C0
7DE387C0
7FE70FC0
1F871DC0
000E39C0
000C71C0
001C61C0
0038FFF0
0038FFF0
0070FFF0
007001C0
00E001C0
00E001C0
01C00000
ENDCHAR
STARTCHAR 00BF
ENCODING 191
SWIDTH 570 0
DWIDTH 19 0
BBX 16 25 1 -7
BITMAP
03E0
03E0
03E0
03E0
03E0
0000
0000
03E0
03E0
03E0
07C0
0FC0
1F80
3F00
7E00
FC00
F81F
F81F
F81F
FC1F
7E7E
7FFE
3FFC
0FF0
0080
ENDCHAR
STARTCHAR 00C0
ENCODING 192
SWIDTH 690 0
DWIDTH 23 0
BBX 23 32 0 0
BITMAP
03E000
01E000
01F000
00F800
007800
003C00
000000
000000
007C00
00FE00
00FE00
00FE00
01FF00
01FF00
03EF80
03EF80
03EF80
07C7C0
07C7C0
0787C0
0F83E0
0F83E0
1F03F0
1FFFF0
1FFFF0
3FFFF8
3FFFF8
7E00F8
7C00FC
7C007C
FC007C
F8007E
ENDCHAR
STARTCHAR 00C1
ENCODING 193
SWIDTH 690 0
DWIDTH 23 0
BBX 23 32 0 0
BITMAP
000F80
001F00
001E00
003C00
003C00
007800
000000
000000
007C00
00FE00
00FE00
00FE00
01FF00
01FF00
03EF80
03EF80
03EF80
07C7C0
07C7C0
0787C0
0F83E0
0F83E0
1F03F0
1FFFF0
1FFFF0
3FFFF8
3FFFF8
7E00F8
7C00FC
7C007C
FC007C
F8007E
ENDCHAR
STARTCHAR 00C2
ENCODING 194
SWIDTH 690 0
DWIDTH 23 0
BBX 23 31 0 0
BITMAP
007C00
00FC00
00FE00
01CF00
03C780
000000
000000
007C00
00FE00
00FE00
00FE00
01FF00
01FF00
03EF80
03EF80
03EF80
07C7C0
07C7C0
0787C0
0F83E0
0F83E0
1F03F0
1FFFF0
1FFFF0
3FFFF8
3FFFF8
7E00F8
7C00FC
7C007C
FC007C
F8007E
ENDCHAR
STARTCHAR 00C3
ENCODING 195
SWIDTH 690 0
DWIDTH 23 0
BBX 23 31 0 0
BITMAP
00E180
03FF80
03FF80
071F00
000000
000000
000000
007C00
00FE00
00FE00
00FE00
01FF00
01FF00
03EF80
03EF80
03EF80
07C7C0
07C7C0
0787C0
0F83E0
0F83E0
1F03F0
1FFFF0
1FFFF0
3FFFF8
3FFFF8
7E00F8
7C00FC
7C007C
FC007C
F8007E
ENDCHAR
STARTCHAR 00C4
ENCODING 196
SWIDTH 690 0
DWIDTH 23 0
BBX 23 30 0 0
BITMAP
03C780
03C780
03C780
03C780
000000
000000
007C00
00FE00
00FE00
00FE00
01FF00
01FF00
03EF80
03EF80
03EF80
07C7C0
07C7C0
0787C0
0F83E0
0F83E0
1F03F0
1FFFF0
1FFFF0
3FFFF8
3FFFF8
7E00F8
7C00FC
7C007C
FC007C
F8007E
ENDCHAR
STARTCHAR 00C5
ENCODING 197
SWIDTH 690 0
DWIDTH 23 0
BBX 23 32 0 0
BITMAP
003800
00FC00
00C600
018600
018600
01C600
00EE00
007C00
007C00
00FE00
00FE00
00FE00
01FF00
01FF00
03EF80
03EF80
03EF80
07C7C0
07C7C0
0787C0
0F83E0
0F83E0
1F03F0
1FFFF0
1FFFF0
3FFFF8
3FFFF8
7E00F8
7C00FC
7C007C
FC007E
F8007E
ENDCHAR
STARTCHAR 00C6
ENCODING 198
SWIDTH 990 0
DWIDTH 33 0
BBX 31 24 0 0
BITMAP
001FFFFE
003FFFFE
003FFFFE
007FFFFE
007FFFFE
00FDF000
00F9F000
00F9F000
01F1F000
01F1F000
03E1FFFE
03E1FFFE
07C1FFFE
07C1FFFE
0F81F000
0FFFF000
1FFFF000
1FFFF000
3FFFF000
3E01F000
7E01FFFE
7C01FFFE
FC01FFFE
F801FFFE
ENDCHAR
STARTCHAR 00C7
ENCODING 199
SWIDTH 750 0
DWIDTH 25 0
BBX 22 31 1 -7
BITMAP
01FF00
07FFC0
0FFFF0
1FFFF0
3F83F8
3F00FC
7E00FC
7C007C
7C0000
FC0000
FC0000
F80000
F80000
FC0000
FC0000
7C007C
7C007C
7E007C
3F00FC
3F81F8
1FFFF0
0FFFF0
07FFE0
01FF80
003800
002000
007E00
000E00
000E00
00FE00
01FC00
ENDCHAR
STARTCHAR 00C8
ENCODING 200
SWIDTH 660 0
DWIDTH 22 0
BBX 18 32 2 0
BITMAP
1F0000
0F8000
078000
03C000
01C000
01E000
000000
000000
FFFFC0
FFFFC0
FFFFC0
FFFFC0
FFFFC0
FC0000
FC0000
FC0000
FC0000
FC0000
FFFF80
FFFF80
FFFF80
FFFF80
FC0000
FC0000
FC0000
FC0000
FC0000
FC0000
FFFFC0
FFFFC0
FFFFC0
FFFFC0
ENDCHAR
STARTCHAR 00C9
ENCODING 201
SWIDTH 660 0
DWIDTH 22 0
BBX 18 32 2 0
BITMAP
003E00
007C00
00F800
00F000
01E000
01C000
000000
000000
FFFFC0
FFFFC0
FFFFC0
FFFFC0
FFFFC0
FC0000
FC0000
FC0000
FC0000
FC0000
FFFF80
FFFF80
FFFF80
FFFF80
FC0000
FC0000
FC0000
FC0000
FC0000
FC0000
FFFFC0
FFFFC0
FFFFC0
FFFFC0
ENDCHAR
STARTCHAR 00CA
ENCODING 202
SWIDTH 660 0
DWIDTH 22 0
BBX 18 31 2 0
BITMAP
01F000
03F000
07F800
073C00
0F1E00
000000
000000
FFFFC0
FFFFC0
FFFFC0
FFFFC0
FFFFC0
FC0000
FC0000
FC0000
FC0000
FC0000
FFFF80
FFFF80
FFFF80
FFFF80
FC0000
FC0000
FC0000
FC0000
FC0000
FC0000
FFFFC0
FFFFC0
FFFFC0
FFFFC0
ENDCHAR
STARTCHAR 00CB
ENCODING 203
SWIDTH 660 0
DWIDTH 22 0
BBX 18 30 2 0
BITMAP
1F3C00
1F3C00
1F3C00
1F3C00
000000
000000
FFFFC0
FFFFC0
FFFFC0
FFFFC0
FFFFC0
FC0000
FC0000
FC0000
FC0000
FC0000
FFFF80
FFFF80
FFFF80
FFFF80
FC0000
FC0000
FC0000
FC0000
FC0000
FC0000
FFFFC0
FFFFC0
FFFFC0
FFFFC0
ENDCHAR
STARTCHAR 00CC
ENCODING 204
SWIDTH 300 0
DWIDTH 10 0
BBX 9 32 -1 0
BITMAP
F800
7800
3C00
1E00
1E00
0F00
0000
0000
1F80
1F80
1F80
1F80
1F80
1F80
1F80
1F80
1F80
1F80
1F80
1F80
1F80
1F80
1F80
1F80
1F80
1F80
1F80
1F80
1F80
1F80
1F80
1F80
ENDCHAR
STARTCHAR 00CD
ENCODING 205
SWIDTH 300 0
DWIDTH 10 0
BBX 9 32 2 0
BITMAP
0F80
1F00
1E00
3C00
7800
7000
0000
0000
FC00
FC00
FC00
FC00
FC00
FC00
FC00
FC00
FC00
FC00
FC00
FC00
FC00
FC00
FC00
FC00
FC00
FC00
FC00
FC00
FC00
FC00
FC00
FC00
ENDCHAR
STARTCHAR 00CE
ENCODING 206
SWIDTH 300 0
DWIDTH 10 0
BBX 10 31 0 0
BITMAP
1E00
3F00
7F80
F3C0
E3C0
0000
0000
3F00
3F00
3F00
3F00
3F00
3F00
3F00
3F00
3F00
3F00
3F00
3F00
3F00
3F00
3F00
3F00
3F00
3F00
3F00
3F00
3F00
3F00
3F00
3F00
ENDCHAR
STARTCHAR 00CF
ENCODING 207
SWIDTH 300 0
DWIDTH 10 0
BBX 12 30 -1 0
BITMAP
F9F0
F9F0
F9F0
F9F0
0000
0000
1F80
1F80
1F80
1F80
1F80
1F80
1F80
1F80
1F80
1F80
1F80
1F80
1F80
1F80
1F80
1F80
1F80
1F80
1F80
1F80
1F80
1F80
1F80
1F80
ENDCHAR
STARTCHAR 00D0
ENCODING 208
SWIDTH 750 0
DWIDTH 25 0
BBX 23 24 0 0
BITMAP
3FFE00
3FFFC0
3FFFF0
3FFFF8
3FFFF8
3F01FC
3F00FC
3F007E
3F003E
3F003E
FFF83E
FFF83E
FFF83E
FFF83E
3F003E
3F003E
3F007E
3F007C
3F00FC
3F07F8
3FFFF8
3FFFF0
3FFFC0
3FFF00
ENDCHAR
STARTCHAR 00D1
ENCODING 209
SWIDTH 750 0
DWIDTH 25 0
BBX 20 30 2 0
BITMAP
03E300
07FF00
067E00
0C0000
000000
000000
FC01F0
FC01F0
FE01F0
FF01F0
FF01F0
FF81F0
FF81F0
FFC1F0
FBE1F0
FBE1F0
F9F1F0
F9F9F0
F8F9F0
F87DF0
F87DF0
F83FF0
F83FF0
F81FF0
F80FF0
F80FF0
F807F0
F803F0
F803F0
F801F0
ENDCHAR
STARTCHAR 00D2
ENCODING 210
SWIDTH 780 0
DWIDTH 26 0
BBX 24 33 1 -1
BITMAP
03E000
01F000
00F000
007800
003800
001C00
000000
000000
01FF80
07FFE0
0FFFF0
1FFFF8
3F83FC
3F00FC
7E007E
7C007E
7C003E
FC003E
FC003F
F8003F
F8003F
FC003F
FC003E
7C003E
7C003E
7E007E
3F00FC
3F81FC
1FFFF8
0FFFF0
07FFE0
01FF80
001800
ENDCHAR
STARTCHAR 00D3
ENCODING 211
SWIDTH 780 0
DWIDTH 26 0
BBX 24 33 1 -1
BITMAP
0007C0
000F80
001F00
001E00
003C00
003800
000000
000000
01FF80
07FFE0
0FFFF0
1FFFF8
3F83FC
3F00FC
7E007E
7C007E
7C003E
FC003E
FC003F
F8003F
F8003F
FC003F
FC003E
7C003E
7C003E
7E007E
3F00FC
3F81FC
1FFFF8
0FFFF0
07FFE0
01FF80
001800
ENDCHAR
STARTCHAR 00D4
ENCODING 212
SWIDTH 780 0
DWIDTH 26 0
BBX 24 32 1 -1
BITMAP
003C00
007E00
00FF00
01E780
01C780
000000
000000
01FF80
07FFE0
0FFFF0
1FFFF8
3F83FC
3F00FC
7E007E
7C007E
7C003E
FC003E
FC003F
F8003F
F8003F
FC003F
FC003E
7C003E
7C003E
7E007E
3F00FC
3F81FC
1FFFF8
0FFFF0
07FFE0
01FF80
001800
ENDCHAR
STARTCHAR 00D5
ENCODING 213
SWIDTH 780 0
DWIDTH 26 0
BBX 24 32 1 -1
BITMAP
00F0C0
01FDC0
03FF80
030F80
000000
000000
000000
01FF80
07FFE0
0FFFF0
1FFFF8
3F83FC
3F00FC
7E007E
7C007E
7C003E
FC003E
FC003F
F8003F
F8003F
FC003F
FC003E
7C003E
7C003E
7E007E
3F00FC
3F81FC
1FFFF8
0FFFF0
07FFE0
01FF80
001800
ENDCHAR
STARTCHAR 00D6
ENCODING 214
SWIDTH 780 0
DWIDTH 26 0
BBX 24 31 1 -1
BITMAP
03E7C0
03E7C0
03E7C0
03E7C0
000000
000000
01FF80
07FFE0
0FFFF0
1FFFF8
3F83FC
3F00FC
7E007E
7C007E
7C003E
FC003E
FC003F
F8003F
F8003F
FC003F
FC003E
7C003E
7C003E
7E007E
3F00FC
3F81FC
1FFFF8
0FFFF0
07FFE0
01FF80
001800
ENDCHAR
STARTCHAR 00D7
ENCODING 215
SWIDTH 600 0
DWIDTH 20 0
BBX 16 15 2 1
BITMAP
3004
780E
F81F
7C3E
3E7C
1FF8
0FF0
07E0
07E0
0FF0
1FF8
3E7C
7C3E
781E
300C
ENDCHAR
STARTCHAR 00D8
ENCODING 216
SWIDTH 780 0
DWIDTH 26 0
BBX 24 25 1 0
BITMAP
01FF87
07FFEE
0FFFFC
1FFFF8
3F83F8
3F00FC
7E00FE
7C01FE
7C03BE
FC073E
FC0E3F
F81C3F
F8383F
FC703F
FCE03E
7DC03E
7DC03E
7F807E
3F00FC
3F81FC
1FFFF8
3FFFF0
77FFE0
E1FF80
401800
ENDCHAR
STARTCHAR 00D9
ENCODING 217
SWIDTH 750 0
DWIDTH 25 0
BBX 20 33 2 -1
BITMAP
07C000
07C000
03E000
01E000
00F000
007800
000000
000000
F801F0
F801F0
F801F0
F801F0
F801F0
F801F0
F801F0
F801F0
F801F0
F801F0
F801F0
F801F0
F801F0
F801F0
F801F0
F801F0
FC01F0
FC01F0
7C03F0
7E07F0
7FFFE0
3FFFC0
1FFF80
07FF00
006000
ENDCHAR
STARTCHAR 00DA
ENCODING 218
SWIDTH 750 0
DWIDTH 25 0
BBX 20 33 2 -1
BITMAP
001F00
001E00
003C00
007C00
007800
00F000
000000
000000
F801F0
F801F0
F801F0
F801F0
F801F0
F801F0
F801F0
F801F0
F801F0
F801F0
F801F0
F801F0
F801F0
F801F0
F801F0
F801F0
FC01F0
FC01F0
7C03F0
7E07F0
7FFFE0
3FFFC0
1FFF80
07FF00
006000
ENDCHAR
STARTCHAR 00DB
ENCODING 219
SWIDTH 750 0
DWIDTH 25 0
BBX 20 32 2 -1
BITMAP
00F800
01F800
03FC00
039E00
078F00
000000
000000
F801F0
F801F0
F801F0
F801F0
F801F0
F801F0
F801F0
F801F0
F801F0
F801F0
F801F0
F801F0
F801F0
F801F0
F801F0
F801F0
FC01F0
FC01F0
7C03F0
7E07F0
7FFFE0
3FFFC0
1FFF80
07FF00
006000
ENDCHAR
STARTCHAR 00DC
ENCODING 220
SWIDTH 750 0
DWIDTH 25 0
BBX 20 31 2 -1
BITMAP
078F00
078F00
078F00
078F00
000000
000000
F801F0
F801F0
F801F0
F801F0
F801F0
F801F0
F801F0
F801F0
F801F0
F801F0
F801F0
F801F0
F801F0
F801F0
F801F0
F801F0
FC01F0
FC01F0
7C03F0
7E07F0
7FFFE0
3FFFC0
1FFF80
07FF00
006000
ENDCHAR
STARTCHAR 00DD
ENCODING 221
SWIDTH 660 0
DWIDTH 22 0
BBX 22 32 0 0
BITMAP
000F80
001F00
001E00
003C00
007800
007000
000000
000000
FC007C
FC00FC
7E01F8
3F01F8
3F03F0
1F83E0
1F87E0
0FCFC0
07EFC0
07FF80
03FF00
03FF00
01FE00
00FE00
00FC00
00FC00
00FC00
00FC00
00FC00
00FC00
00FC00
00FC00
00FC00
00FC00
ENDCHAR
STARTCHAR 00DE
ENCODING 222
SWIDTH 660 0
DWIDTH 22 0
BBX 19 24 2 0
BITMAP
FC0000
FC0000
FC0000
FFF000
FFFF00
FFFF80
FFFFC0
FFFFE0
FC07E0
FC03E0
FC03E0
FC03E0
FC03E0
FC07E0
FC1FE0
FFFFC0
FFFF80
FFFF00
FFF800
FC0000
FC0000
FC0000
FC0000
FC0000
ENDCHAR
STARTCHAR 00DF
ENCODING 223
SWIDTH 600 0
DWIDTH 20 0
BBX 16 24 2 0
BITMAP
1FF0
3FF8
7FFC
7FFE
F83E
F81E
F81E
F81E
F83E
F9FC
F9F8
F9FC
F9FE
F81F
F81F
F80F
F80F
F80F
F81F
F81F
F87F
F9FE
F9FC
F9F8
ENDCHAR
STARTCHAR 00E0
ENCODING 224
SWIDTH 570 0
DWIDTH 19 0
BBX 17 26 1 0
BITMAP
1F0000
0F8000
078000
03C000
01E000
00E000
000000
000000
03E000
1FFC00
3FFE00
7FFF00
7C1F00
781F00
001F00
003F00
0FFF00
3FFF00
7F0F00
F81F00
F81F00
F81F00
F83F00
FFFF00
7FFF00
3FCF80
ENDCHAR
STARTCHAR 00E1
ENCODING 225
SWIDTH 570 0
DWIDTH 19 0
BBX 17 26 1 0
BITMAP
007C00
007800
00F000
01E000
01C000
03C000
000000
000000
03E000
1FFC00
3FFE00
7FFF00
7C1F00
781F00
001F00
003F00
0FFF00
3FFF00
7F0F00
F81F00
F81F00
F81F00
F83F00
FFFF00
7FFF00
3FCF80
ENDCHAR
STARTCHAR 00E2
ENCODING 226
SWIDTH 570 0
DWIDTH 19 0
BBX 17 24 1 0
BITMAP
03E000
07F000
0F7800
1E3800
1C3C00
000000
03E000
1FFC00
3FFE00
7FFF00
7C1F00
781F00
001F00
003F00
0FFF00
3FFF00
7F0F00
F81F00
F81F00
F81F00
F83F00
FFFF00
7FFF00
3FCF80
ENDCHAR
STARTCHAR 00E3
ENCODING 227
SWIDTH 570 0
DWIDTH 19 0
BBX 17 24 1 0
BITMAP
0F8C00
1FFC00
1FFC00
387800
000000
000000
03E000
1FFC00
3FFE00
7FFF00
7C1F00
781F00
001F00
003F00
0FFF00
3FFF00
7F0F00
F81F00
F81F00
F81F00
F83F00
FFFF00
7FFF00
3FCF80
ENDCHAR
STARTCHAR 00E4
ENCODING 228
SWIDTH 570 0
DWIDTH 19 0
BBX 17 24 1 0
BITMAP
1E3C00
1E3C00
1E3C00
1E3C00
000000
000000
03E000
1FFC00
3FFE00
7F7F00
7C1F00
781F00
001F00
003F00
0FFF00
3FFF00
7F0F00
F80F00
F81F00
F81F00
F83F00
FFFF00
7FFF00
3FCF80
ENDCHAR
STARTCHAR 00E5
ENCODING 229
SWIDTH 570 0
DWIDTH 19 0
BBX 17 26 1 0
BITMAP
01C000
07F000
063000
061800
0C1800
063000
07F000
03E000
03E000
1FFC00
3FFE00
7F7F00
7C1F00
781F00
001F00
003F00
0FFF00
3FFF00
7F0F00
F80F00
F81F00
F81F00
F83F00
FFFF00
7FFF00
3FCF80
ENDCHAR
STARTCHAR 00E6
ENCODING 230
SWIDTH 900 0
DWIDTH 30 0
BBX 28 18 1 0
BITMAP
03E03C00
1FF8FF80
3FFDFFC0
7FFFEFE0
7C1F83E0
7C0F01E0
000F01F0
003F01F0
0FFFFFF0
3FFFFFF0
7F8FFFF0
7C0F0000
F80F0000
F81F81F0
FC3FC1E0
7FFFFFE0
7FFBFFC0
1FE0FF00
ENDCHAR
STARTCHAR 00E7
ENCODING 231
SWIDTH 570 0
DWIDTH 19 0
BBX 17 25 1 -7
BITMAP
01E000
0FFC00
1FFE00
3FFF00
7E1F80
7C0F80
780F80
F80000
F80000
F80000
F80000
F80780
7C0F80
7C0F80
7E1F00
3FFF00
1FFE00
07F800
008000
018000
03F000
007800
007800
07F000
07F000
ENDCHAR
STARTCHAR 00E8
ENCODING 232
SWIDTH 570 0
DWIDTH 19 0
BBX 17 26 1 0
BITMAP
1F0000
0F8000
078000
03C000
01C000
00E000
000000
000000
01E000
0FF800
1FFC00
3FFE00
7C1F00
780F00
F80F80
F80F80
FFFF80
FFFF80
FFFF80
F80000
F80000
7C0F80
7E1F00
3FFE00
1FFC00
0FF800
ENDCHAR
STARTCHAR 00E9
ENCODING 233
SWIDTH 570 0
DWIDTH 19 0
BBX 17 26 1 0
BITMAP
007C00
007800
00F000
01E000
01E000
03C000
000000
000000
01E000
0FF800
1FFC00
3FFE00
7C1F00
780F00
F80F80
F80F80
FFFF80
FFFF80
FFFF80
F80000
F80000
7C0F80
7E1F00
3FFE00
1FFC00
0FF800
ENDCHAR
STARTCHAR 00EA
ENCODING 234
SWIDTH 570 0
DWIDTH 19 0
BBX 17 24 1 0
BITMAP
03E000
07F000
0F7800
0E3C00
1C3C00
000000
01E000
0FF800
1FFC00
3FFE00
7C1F00
780F00
F80F80
F80F80
FFFF80
FFFF80
FFFF80
F80000
F80000
7C0F80
7E1F00
3FFE00
1FFC00
0FF800
ENDCHAR
STARTCHAR 00EB
ENCODING 235
SWIDTH 570 0
DWIDTH 19 0
BBX 17 24 1 0
BITMAP
1E3C00
1E3C00
1E3C00
1E3C00
000000
000000
01E000
0FF800
1FFC00
3FFE00
7C1F00
780F00
F80F80
F80F80
FFFF80
FFFF80
FFFF80
F80000
F80000
7C0F80
7E1F00
3FFE00
1FFC00
0FF800
ENDCHAR
STARTCHAR 00EC
ENCODING 236
SWIDTH 270 0
DWIDTH 9 0
BBX 9 26 -2 0
BITMAP
FC00
7C00
3E00
1E00
0F00
0780
0000
0000
0000
0F80
0F80
0F80
0F80
0F80
0F80
0F80
0F80
0F80
0F80
0F80
0F80
0F80
0F80
0F80
0F80
0F80
ENDCHAR
STARTCHAR 00ED
ENCODING 237
SWIDTH 270 0
DWIDTH 9 0
BBX 8 26 2 0
BITMAP
1F
3E
3C
78
70
E0
00
00
00
F8
F8
F8
F8
F8
F8
F8
F8
F8
F8
F8
F8
F8
F8
F8
F8
F8
ENDCHAR
STARTCHAR 00EE
ENCODING 238
SWIDTH 270 0
DWIDTH 9 0
BBX 11 24 -1 0
BITMAP
1F00
3F80
7BC0
F3C0
E1E0
0000
0000
1F00
1F00
1F00
1F00
1F00
1F00
1F00
1F00
1F00
1F00
1F00
1F00
1F00
1F00
1F00
1F00
1F00
ENDCHAR
STARTCHAR 00EF
ENCODING 239
SWIDTH 270 0
DWIDTH 9 0
BBX 11 24 -1 0
BITMAP
F3E0
F3E0
F3E0
F3E0
0000
0000
0000
1F00
1F00
1F00
1F00
1F00
1F00
1F00
1F00
1F00
1F00
1F00
1F00
1F00
1F00
1F00
1F00
1F00
ENDCHAR
STARTCHAR 00F0
ENCODING 240
SWIDTH 600 0
DWIDTH 20 0
BBX 18 25 1 1
BITMAP
038600
07DF00
03FE00
01F800
07FC00
0FFC00
063E00
001F00
07CF00
0FFF80
3FFF80
3F3FC0
7C0FC0
7C07C0
F807C0
F807C0
F807C0
F807C0
F807C0
7C07C0
7C0F80
7E1F80
3FFF00
1FFE00
07F800
ENDCHAR
STARTCHAR 00F1
ENCODING 241
SWIDTH 600 0
DWIDTH 20 0
BBX 16 24 2 0
BITMAP
0E0C
1FFC
3FF8
30F0
0000
0000
00F0
F3FC
F7FE
FFFE
FC3F
F81F
F81F
F81F
F81F
F81F
F81F
F81F
F81F
F81F
F81F
F81F
F81F
F81F
ENDCHAR
STARTCHAR 00F2
ENCODING 242
SWIDTH 600 0
DWIDTH 20 0
BBX 18 26 1 0
BITMAP
1F8000
0F8000
07C000
03C000
01E000
00F000
000000
000000
01E000
0FFC00
1FFE00
3FFF00
7E1F80
7C0F80
7807C0
F807C0
F807C0
F807C0
F807C0
F807C0
7C07C0
7C0F80
7E1F80
3FFF00
1FFE00
07FC00
ENDCHAR
STARTCHAR 00F3
ENCODING 243
SWIDTH 600 0
DWIDTH 20 0
BBX 18 26 1 0
BITMAP
003E00
007C00
007800
00F000
01E000
01C000
000000
000000
01E000
0FFC00
1FFE00
3FFF00
7E1F80
7C0F80
7807C0
F807C0
F807C0
F807C0
F807C0
F807C0
7C07C0
7C0F80
7E1F80
3FFF00
1FFE00
07FC00
ENDCHAR
STARTCHAR 00F4
ENCODING 244
SWIDTH 600 0
DWIDTH 20 0
BBX 18 24 1 0
BITMAP
01F000
03F800
07F800
0F3C00
1E1E00
000000
01E000
0FFC00
1FFE00
3FFF00
7E1F80
7C0F80
7807C0
F807C0
F807C0
F807C0
F807C0
F807C0
7C07C0
7C0F80
7E1F80
3FFF00
1FFE00
07FC00
ENDCHAR
STARTCHAR 00F5
ENCODING 245
SWIDTH 600 0
DWIDTH 20 0
BBX 18 24 1 0
BITMAP
07C600
0FFE00
1DFC00
187800
000000
000000
01E000
0FFC00
1FFE00
3FFF00
7E1F80
7C0F80
7807C0
F807C0
F807C0
F807C0
F807C0
F807C0
7C07C0
7C0F80
7E1F80
3FFF00
1FFE00
07FC00
ENDCHAR
STARTCHAR 00F6
ENCODING 246
SWIDTH 600 0
DWIDTH 20 0
BBX 18 24 1 0
BITMAP
1F3E00
1F3E00
1F3E00
1F3E00
000000
000000
01E000
0FFC00
1FFE00
3FFF00
7E1F80
7C0F80
7807C0
F807C0
F807C0
F807C0
F807C0
F807C0
7C07C0
7C0F80
7E1F80
3FFF00
1FFE00
07FC00
ENDCHAR
STARTCHAR 00F7
ENCODING 247
SWIDTH 600 0
DWIDTH 20 0
BBX 16 19 2 -1
BITMAP
03C0
07E0
07E0
07E0
03C0
0000
0000
0000
FFFF
FFFF
FFFF
0000
0000
0000
03C0
07E0
07E0
07E0
03C0
ENDCHAR
STARTCHAR 00F8
ENCODING 248
SWIDTH 600 0
DWIDTH 20 0
BBX 18 19 1 -1
BITMAP
01E080
0FFD80
1FFF00
3FFF00
7E1F80
7C1F80
781FC0
F837C0
F867C0
F8C7C0
F987C0
FB07C0
7E07C0
7E0F80
3E1F80
3FFF00
3FFE00
67FC00
400000
ENDCHAR
STARTCHAR 00F9
ENCODING 249
SWIDTH 600 0
DWIDTH 20 0
BBX 16 26 2 0
BITMAP
3E00
1F00
0F00
0780
03C0
01C0
0000
0000
0000
F81F
F81F
F81F
F81F
F81F
F81F
F81F
F81F
F81F
F81F
F81F
F81F
F83F
FC7F
FFFF
7FFF
3F9F
ENDCHAR
STARTCHAR 00FA
ENCODING 250
SWIDTH 600 0
DWIDTH 20 0
BBX 16 26 2 0
BITMAP
00FC
00F8
01F0
01E0
03C0
0780
0000
0000
0000
F81F
F81F
F81F
F81F
F81F
F81F
F81F
F81F
F81F
F81F
F81F
F81F
F83F
FC7F
FFFF
7FFF
3F9F
ENDCHAR
STARTCHAR 00FB
ENCODING 251
SWIDTH 600 0
DWIDTH 20 0
BBX 16 24 2 0
BITMAP
07E0
0FE0
0EF0
1E78
3C3C
0000
0000
F81F
F81F
F81F
F81F
F81F
F81F
F81F
F81F
F81F
F81F
F81F
F81F
F83F
FC7F
FFFF
7FFF
3F9F
ENDCHAR
STARTCHAR 00FC
ENCODING 252
SWIDTH 600 0
DWIDTH 20 0
BBX 16 24 2 0
BITMAP
3E7C
3E7C
3E7C
3E7C
0000
0000
0000
F81F
F81F
F81F
F81F
F81F
F81F
F81F
F81F
F81F
F81F
F81F
F81F
F83F
FC7F
FFFF
7FFF
3F9F
ENDCHAR
STARTCHAR 00FD
ENCODING 253
SWIDTH 510 0
DWIDTH 17 0
BBX 17 32 0 -6
BITMAP
007C00
007800
00F000
00F000
01E000
03C000
000000
000000
000000
F80F80
F80F80
7C0F00
7C1F00
3C1F00
3E1E00
3E3E00
1E3E00
1F3C00
1F7C00
0F7C00
0FF800
07F800
07F000
07F000
03F000
03E000
03E000
03E000
7FC000
7FC000
7F8000
7E0000
ENDCHAR
STARTCHAR 00FE
ENCODING 254
SWIDTH 600 0
DWIDTH 20 0
BBX 17 30 2 -6
BITMAP
F80000
F80000
F80000
F80000
F80000
F80000
F8E000
FBFC00
FFFE00
FFFF00
FC1F00
F80F80
F80F80
F80F80
F00780
F00780
F00780
F80F80
F80F80
FC1F80
FE3F00
FFFF00
FFFE00
FBFC00
F80000
F80000
F80000
F80000
F80000
F80000
ENDCHAR
STARTCHAR 00FF
ENCODING 255
SWIDTH 510 0
DWIDTH 17 0
BBX 17 30 0 -6
BITMAP
1E3C00
1E3C00
1E3C00
1E3C00
000000
000000
000000
F80F80
F80F80
7C0F00
7C1F00
3C1F00
3E1E00
3E3E00
1E3E00
1F3C00
1F7C00
0F7C00
0FF800
07F800
07F000
07F000
03F000
03E000
03E000
03E000
7FC000
7FC000
7F8000
7E0000
ENDCHAR
STARTCHAR 0100
ENCODING 256
SWIDTH 690 0
DWIDTH 23 0
BBX 23 29 0 0
BITMAP
03FF80
03FF80
000000
000000
000000
007C00
00FE00
00FE00
00FE00
01FF00
01FF00
03EF80
03EF80
03EF80
07C7C0
07C7C0
0787C0
0F83E0
0F83E0
1F03F0
1FFFF0
1FFFF0
3FFFF8
3FFFF8
7E00F8
7C00FC
7C007C
FC007E
F8007E
ENDCHAR
STARTCHAR 0101
ENCODING 257
SWIDTH 570 0
DWIDTH 19 0
BBX 17 23 1 0
BITMAP
1FFE00
1FFE00
000000
000000
000000
03E000
1FFC00
3FFE00
7FFF00
7C1F00
781F00
001F00
003F00
0FFF00
3FFF00
7F0F00
F81F00
F81F00
F81F00
F83F00
FFFF00
7FFF00
3FCF80
ENDCHAR
STARTCHAR 0102
ENCODING 258
SWIDTH 690 0
DWIDTH 23 0
BBX 23 31 0 0
BITMAP
030180
038380
01FF00
01FE00
003000
000000
000000
007C00
00FE00
00FE00
00FE00
01FF00
01FF00
03EF80
03EF80
03EF80
07C7C0
07C7C0
0787C0
0F83E0
0F83E0
1F03F0
1FFFF0
1FFFF0
3FFFF8
3FFFF8
7E00F8
7C00FC
7C007C
FC007C
F8007E
ENDCHAR
STARTCHAR 0103
ENCODING 259
SWIDTH 570 0
DWIDTH 19 0
BBX 17 24 1 0
BITMAP
180C00
1C1C00
0FF800
0FF000
03C000
000000
03E000
1FFC00
3FFE00
7FFF00
7C1F00
781F00
001F00
003F00
0FFF00
3FFF00
7F0F00
F81F00
F81F00
F81F00
F83F00
FFFF00
7FFF00
3FCF80
ENDCHAR
STARTCHAR 0104
ENCODING 260
SWIDTH 690 0
DWIDTH 23 0
BBX 23 31 0 -7
BITMAP
007C00
00FE00
00FE00
00FE00
01FF00
01FF00
03EF80
03EF80
03EF80
07C7C0
07C7C0
0787C0
0F83E0
0F83E0
1F03F0
1FFFF0
1FFFF0
3FFFF8
3FFFF8
7E00F8
7C00FC
7C007C
FC007E
F8007E
000060
0000C0
0001C0
0001C0
0001E8
0000F8
000078
ENDCHAR
STARTCHAR 0105
ENCODING 261
SWIDTH 570 0
DWIDTH 19 0
BBX 17 25 1 -7
BITMAP
03E000
1FFC00
3FFE00
7FFF00
7C1F00
781F00
001F00
003F00
0FFF00
3FFF00
7F0F00
F81F00
F81F00
F81F00
F83F00
FFFF00
7FFF00
3FCF80
001800
003800
003000
007000
003D00
003F00
000E00
ENDCHAR
STARTCHAR 0106
ENCODING 262
SWIDTH 750 0
DWIDTH 25 0
BBX 22 33 1 -1
BITMAP
000FC0
000F80
001F00
001E00
003C00
007800
000000
000000
01FF00
07FFC0
0FFFF0
1FFFF0
3F83F8
3F00FC
7E00FC
7C007C
7C0000
FC0000
FC0000
F80000
F80000
FC0000
FC0000
7C007C
7C007C
7E007C
3F00FC
3F81F8
1FFFF0
0FFFF0
07FFE0
01FF80
001800
ENDCHAR
STARTCHAR 0107
ENCODING 263
SWIDTH 570 0
DWIDTH 19 0
BBX 17 26 1 0
BITMAP
003E00
007C00
00F800
00F000
01E000
01C000
000000
000000
01E000
0FFC00
1FFE00
3FFF00
7E1F80
7C0F80
780F80
F80000
F80000
F80000
F80000
F80780
7C0F80
7C0F80
7E1F00
3FFF00
1FFE00
07F800
ENDCHAR
STARTCHAR 0108
ENCODING 264
SWIDTH 750 0
DWIDTH 25 0
BBX 22 32 1 -1
BITMAP
003C00
007E00
00FF00
01E780
03C780
000000
000000
01FF00
07FFC0
0FFFF0
1FFFF0
3F83F8
3F00FC
7E00FC
7C007C
7C0000
FC0000
FC0000
FC0000
F80000
FC0000
FC0000
7C007C
7C007C
7E007C
3F00FC
3F81F8
1FFFF0
0FFFF0
07FFE0
01FF80
001C00
ENDCHAR
STARTCHAR 0109
ENCODING 265
SWIDTH 570 0
DWIDTH 19 0
BBX 17 24 1 0
BITMAP
03F000
03F800
073C00
0F1C00
000200
000000
01E000
0FFC00
1FFE00
3FFF00
7E1F80
7C0F80
7C0F80
F80000
F80000
F80000
F80000
F80780
7C0F80
7C0F80
7E1F00
3FFF00
1FFE00
07F800
ENDCHAR
STARTCHAR 010A
ENCODING 266
SWIDTH 750 0
DWIDTH 25 0
BBX 22 31 1 -1
BITMAP
003C00
003C00
003C00
003C00
000000
000000
01FF00
07FFC0
0FFFF0
1FFFF0
3F83F8
3F00FC
7E00FC
7C007C
7C0000
FC0000
FC0000
FC0000
F80000
FC0000
FC0000
7C007C
7C007C
7E007C
3F00FC
3F81F8
1FFFF0
0FFFF0
07FFE0
01FF80
001C00
ENDCHAR
STARTCHAR 010B
ENCODING 267
SWIDTH 570 0
DWIDTH 19 0
BBX 17 24 1 0
BITMAP
01E000
01E000
01E000
01E000
000000
000000
01E000
0FFC00
1FFE00
3FFF00
7E1F80
7C0F80
7C0F80
F80000
F80000
F80000
F80000
F80780
7C0F80
7C0F80
7E1F00
3FFF00
1FFE00
07F800
ENDCHAR
STARTCHAR 010C
ENCODING 268
SWIDTH 750 0
DWIDTH 25 0
BBX 22 32 1 -1
BITMAP
03C380
01E780
00EF00
00FE00
007C00
000000
000000
01FF00
07FFC0
0FFFF0
1FFFF0
3F83F8
3F00FC
7E00FC
7C007C
7C0000
FC0000
FC0000
FC0000
F80000
FC0000
FC0000
7C007C
7C007C
7E007C
3F00FC
3F81F8
1FFFF0
0FFFF0
07FFE0
01FF80
001C00
ENDCHAR
STARTCHAR 010D
ENCODING 269
SWIDTH 570 0
DWIDTH 19 0
BBX 17 24 1 0
BITMAP
0F1E00
07BC00
03F800
03F000
000000
000000
01E000
0FFC00
1FFE00
3FFF00
7E1F80
7C0F80
7C0F80
F80000
F80000
F80000
F80000
F80780
7C0F80
7C0F80
7E1F00
3FFF00
1FFE00
07F800
ENDCHAR
STARTCHAR 010E
ENCODING 270
SWIDTH 750 0
DWIDTH 25 0
BBX 21 31 2 0
BITMAP
1E1E00
0F3C00
07B800
03F000
03F000
000000
000000
FFF800
FFFF00
FFFFC0
FFFFE0
FFFFE0
FC07F0
FC03F0
FC01F8
FC00F8
FC00F8
FC00F8
FC00F8
FC00F8
FC00F8
FC00F8
FC00F8
FC01F8
FC01F0
FC03F0
FC1FE0
FFFFE0
FFFFC0
FFFF00
FFFC00
ENDCHAR
STARTCHAR 010F
ENCODING 271
SWIDTH 600 0
DWIDTH 20 0
BBX 25 24 1 0
BITMAP
0007CF80
0007CF00
0007CF00
0007DE00
0007DE00
0007C000
0387C000
0FE7C000
3FFFC000
3FFFC000
7E1FC000
7C0FC000
F807C000
F807C000
F807C000
F807C000
F807C000
F807C000
F80FC000
7C0FC000
7E1FC000
3FFFC000
1FFFC000
0FE7C000
ENDCHAR
STARTCHAR 0110
ENCODING 272
SWIDTH 750 0
DWIDTH 25 0
BBX 23 24 0 0
BITMAP
3FFE00
3FFFC0
3FFFF0
3FFFF8
3FFFF8
3F01FC
3F00FC
3F007E
3F003E
3F003E
FFF83E
FFF83E
FFF83E
3F003E
3F003E
3F003E
3F007E
3F007C
3F00FC
3F07F8
3FFFF8
3FFFF0
3FFFC0
3FFF00
ENDCHAR
STARTCHAR 0111
ENCODING 273
SWIDTH 630 0
DWIDTH 21 0
BBX 20 24 1 0
BITMAP
0007C0
0007C0
0007C0
00FFF0
00FFF0
0007C0
0387C0
0FE7C0
3FFFC0
3FFFC0
7E1FC0
7C0FC0
F807C0
F807C0
F807C0
F807C0
F807C0
F807C0
F80FC0
7C0FC0
7E1FC0
3FFFC0
1FFFC0
0FE7C0
ENDCHAR
STARTCHAR 0112
ENCODING 274
SWIDTH 660 0
DWIDTH 22 0
BBX 18 29 2 0
BITMAP
1FFE00
1FFE00
000000
000000
000000
FFFFC0
FFFFC0
FFFFC0
FFFFC0
FFFFC0
FC0000
FC0000
FC0000
FC0000
FC0000
FFFF80
FFFF80
FFFF80
FFFF80
FC0000
FC0000
FC0000
FC0000
FC0000
FC0000
FFFFC0
FFFFC0
FFFFC0
FFFFC0
ENDCHAR
STARTCHAR 0113
ENCODING 275
SWIDTH 570 0
DWIDTH 19 0
BBX 17 23 1 0
BITMAP
1FFE00
1FFE00
000000
000000
000000
01E000
0FF800
1FFC00
3FFE00
7C1F00
780F00
F80F80
F80F80
FFFF80
FFFF80
FFFF80
F80000
F80000
7C0F80
7E1F00
3FFE00
1FFE00
0FF800
ENDCHAR
STARTCHAR 0114
ENCODING 276
SWIDTH 660 0
DWIDTH 22 0
BBX 18 31 2 0
BITMAP
1C0600
0C0C00
0F3C00
07F800
03F000
000000
000000
FFFFC0
FFFFC0
FFFFC0
FFFFC0
FFFFC0
FC0000
FC0000
FC0000
FC0000
FC0000
FFFF80
FFFF80
FFFF80
FFFF80
FC0000
FC0000
FC0000
FC0000
FC0000
FC0000
FFFFC0
FFFFC0
FFFFC0
FFFFC0
ENDCHAR
STARTCHAR 0115
ENCODING 277
SWIDTH 570 0
DWIDTH 19 0
BBX 17 24 1 0
BITMAP
1C0C00
0E1C00
0FF800
07F000
000000
000000
01E000
0FF800
1FFC00
3FFE00
7C1F00
780F00
F80F80
F80F80
FFFF80
FFFF80
FFFF80
F80000
F80000
7C0F80
7E1F00
3FFE00
1FFE00
0FF800
ENDCHAR
STARTCHAR 0116
ENCODING 278
SWIDTH 660 0
DWIDTH 22 0
BBX 18 30 2 0
BITMAP
01E000
01E000
01E000
01E000
000000
000000
FFFFC0
FFFFC0
FFFFC0
FFFFC0
FFFFC0
FC0000
FC0000
FC0000
FC0000
FC0000
FFFF80
FFFF80
FFFF80
FFFF80
FC0000
FC0000
FC0000
FC0000
FC0000
FC0000
FFFFC0
FFFFC0
FFFFC0
FFFFC0
ENDCHAR
STARTCHAR 0117
ENCODING 279
SWIDTH 570 0
DWIDTH 19 0
BBX 17 24 1 0
BITMAP
03E000
03E000
03E000
03E000
000000
000000
01E000
0FF800
1FFC00
3FFE00
7C1F00
780F00
F80F80
F80F80
FFFF80
FFFF80
FFFF80
F80000
F80000
7C0F80
7E1F00
3FFE00
1FFE00
0FF800
ENDCHAR
STARTCHAR 0118
ENCODING 280
SWIDTH 660 0
DWIDTH 22 0
BBX 18 31 2 -7
BITMAP
FFFFC0
FFFFC0
FFFFC0
FFFFC0
FFFFC0
FC0000
FC0000
FC0000
FC0000
FC0000
FFFF80
FFFF80
FFFF80
FFFF80
FC0000
FC0000
FC0000
FC0000
FC0000
FC0000
FFFFC0
FFFFC0
FFFFC0
FFFFC0
000700
000E00
000C00
000E00
000F40
000FC0
0003C0
ENDCHAR
STARTCHAR 0119
ENCODING 281
SWIDTH 570 0
DWIDTH 19 0
BBX 17 25 1 -7
BITMAP
01E000
0FF800
1FFC00
3FFE00
7C1F00
780F00
F80F80
F80F80
FFFF80
FFFF80
FFFF80
F80000
F80000
7C0F80
7E1F00
3FFE00
1FFE00
0FF800
00C000
01C000
018000
038000
01E800
01F800
00F000
ENDCHAR
STARTCHAR 011A
ENCODING 282
SWIDTH 660 0
DWIDTH 22 0
BBX 18 31 2 0
BITMAP
1E1E00
0F3C00
07B800
03F000
03F000
000000
000000
FFFFC0
FFFFC0
FFFFC0
FFFFC0
FFFFC0
FC0000
FC0000
FC0000
FC0000
FC0000
FFFF80
FFFF80
FFFF80
FFFF80
FC0000
FC0000
FC0000
FC0000
FC0000
FC0000
FFFFC0
FFFFC0
FFFFC0
FFFFC0
ENDCHAR
STARTCHAR 011B
ENCODING 283
SWIDTH 570 0
DWIDTH 19 0
BBX 17 24 1 0
BITMAP
1E3C00
0F3800
07F000
03F000
000000
000000
01E000
0FF800
1FFC00
3FFE00
7C1F00
780F00
F80F80
F80F80
FFFF80
FFFF80
FFFF80
F80000
F80000
7C0F80
7E1F00
3FFE00
1FFE00
0FF800
ENDCHAR
STARTCHAR 011C
ENCODING 284
SWIDTH 750 0
DWIDTH 25 0
BBX 22 32 1 -1
BITMAP
003C00
007E00
00FF00
01E780
03C780
000000
000000
01FF00
07FFC0
0FFFE0
1FFFF0
3F83F8
3F00F8
7E00FC
7C007C
7C0000
FC0000
FC0000
FC0FFC
F80FFC
FC0FFC
FC0FFC
7C003C
7C007C
7E007C
3F00FC
3F81FC
1FFFFC
0FFFDC
07FF9C
01FF1C
001800
ENDCHAR
STARTCHAR 011D
ENCODING 285
SWIDTH 600 0
DWIDTH 20 0
BBX 17 31 1 -7
BITMAP
01F000
03F800
07BC00
0F1E00
000000
000000
038000
0FF780
3FF780
3FFF80
7E1F80
7C0F80
F80F80
F80780
F80780
F80780
F80780
F80F80
7C0F80
7E1F80
3FFF80
3FF780
0FE780
010780
000780
7C0F80
7C0F80
3FFF00
3FFE00
0FFC00
00C000
ENDCHAR
STARTCHAR 011E
ENCODING 286
SWIDTH 750 0
DWIDTH 25 0
BBX 22 32 1 -1
BITMAP
030180
038180
01EF80
01FF00
007E00
000000
000000
01FF00
07FFC0
0FFFE0
1FFFF0
3F83F8
3F00F8
7E00FC
7C007C
7C0000
FC0000
FC0000
FC0FFC
F80FFC
FC0FFC
FC0FFC
7C003C
7C007C
7E007C
3F00FC
3F81FC
1FFFFC
0FFFDC
07FF9C
01FF1C
001800
ENDCHAR
STARTCHAR 011F
ENCODING 287
SWIDTH 600 0
DWIDTH 20 0
BBX 17 31 1 -7
BITMAP
0C0E00
0E1C00
07FC00
03F800
000000
000000
038000
0FF780
3FF780
3FFF80
7E1F80
7C0F80
F80F80
F80780
F80780
F80780
F80780
F80F80
7C0F80
7E1F80
3FFF80
3FF780
0FE780
010780
000780
7C0F80
7C0F80
3FFF00
3FFE00
0FFC00
00C000
ENDCHAR
STARTCHAR 0120
ENCODING 288
SWIDTH 750 0
DWIDTH 25 0
BBX 22 31 1 -1
BITMAP
003C00
003C00
003C00
003C00
000000
000000
01FF00
07FFC0
0FFFE0
1FFFF0
3F83F8
3F00F8
7E00FC
7C007C
7C0000
FC0000
FC0000
FC0FFC
F80FFC
FC0FFC
FC0FFC
7C003C
7C007C
7E007C
3F00FC
3F81FC
1FFFFC
0FFFDC
07FF9C
01FF1C
001800
ENDCHAR
STARTCHAR 0121
ENCODING 289
SWIDTH 600 0
DWIDTH 20 0
BBX 17 31 1 -7
BITMAP
01F000
01F000
01F000
01F000
000000
000000
038000
0FF780
3FF780
3FFF80
7E1F80
7C0F80
F80F80
F80780
F80780
F80780
F80780
F80F80
7C0F80
7E1F80
3FFF80
3FF780
0FE780
010780
000780
7C0F80
7C0F80
3FFF00
3FFE00
0FFC00
00C000
ENDCHAR
STARTCHAR 0122
ENCODING 290
SWIDTH 750 0
DWIDTH 25 0
BBX 22 31 1 -7
BITMAP
01FF00
07FFC0
0FFFE0
1FFFF0
3F83F8
3F00F8
7E00FC
7C007C
7C0000
FC0000
FC0000
FC0FFC
F80FFC
FC0FFC
FC0FFC
7C003C
7C007C
7E007C
3F00FC
3F81FC
1FFFFC
0FFFDC
07FF9C
01FF1C
001800
000000
007C00
007C00
007C00
001C00
003800
ENDCHAR
STARTCHAR 0123
ENCODING 291
SWIDTH 600 0
DWIDTH 20 0
BBX 17 33 1 -7
BITMAP
00E000
01C000
01F000
01F000
01F000
000000
000000
000000
038000
0FF780
3FF780
3FFF80
7E1F80
7C0F80
F80F80
F80780
F80780
F80780
F80780
F80F80
7C0F80
7E1F80
3FFF80
3FF780
0FE780
010780
000780
7C0F80
7C0F80
3FFF00
3FFE00
0FFC00
00C000
ENDCHAR
STARTCHAR 0124
ENCODING 292
SWIDTH 750 0
DWIDTH 25 0
BBX 20 31 2 0
BITMAP
00F800
01F800
03FC00
039E00
078F00
000000
000000
FC01F0
FC01F0
FC01F0
FC01F0
FC01F0
FC01F0
FC01F0
FC01F0
FC01F0
FFFFF0
FFFFF0
FFFFF0
FFFFF0
FFFFF0
FC01F0
FC01F0
FC01F0
FC01F0
FC01F0
FC01F0
FC01F0
FC01F0
FC01F0
FC01F0
ENDCHAR
STARTCHAR 0125
ENCODING 293
SWIDTH 600 0
DWIDTH 20 0
BBX 16 31 2 0
BITMAP
07C0
0FE0
0EE0
1EF0
3C78
0000
0000
F800
F800
F800
F800
F800
F800
F8F0
FBFC
FFFE
FFFE
FC3F
F81F
F81F
F81F
F81F
F81F
F81F
F81F
F81F
F81F
F81F
F81F
F81F
F81F
ENDCHAR
STARTCHAR 0126
ENCODING 294
SWIDTH 750 0
DWIDTH 25 0
BBX 20 24 2 0
BITMAP
FC01F0
FC01F0
FC01F0
FC01F0
FFFFF0
FFFFF0
FFFFF0
FC01F0
FC01F0
FC01F0
FC01F0
FFFFF0
FFFFF0
FFFFF0
FFFFF0
FC01F0
FC01F0
FC01F0
FC01F0
FC01F0
FC01F0
FC01F0
FC01F0
FC01F0
ENDCHAR
STARTCHAR 0127
ENCODING 295
SWIDTH 600 0
DWIDTH 20 0
BBX 19 24 -1 0
BITMAP
1F0000
1F0000
1F0000
FFF800
FFF800
1F0000
1F0E00
1F7F80
1FFFC0
1FFFE0
1FC7E0
1F83E0
1F03E0
1F01E0
1F01E0
1F01E0
1F01E0
1F01E0
1F01E0
1F01E0
1F01E0
1F01E0
1F01E0
1F01E0
ENDCHAR
STARTCHAR 0128
ENCODING 296
SWIDTH 300 0
DWIDTH 10 0
BBX 12 31 -1 0
BITMAP
3C30
7F70
FFE0
C7E0
0000
0000
0000
1F80
1F80
1F80
1F80
1F80
1F80
1F80
1F80
1F80
1F80
1F80
1F80
1F80
1F80
1F80
1F80
1F80
1F80
1F80
1F80
1F80
1F80
1F80
1F80
ENDCHAR
STARTCHAR 0129
ENCODING 297
SWIDTH 270 0
DWIDTH 9 0
BBX 12 24 -2 0
BITMAP
3E30
7FF0
6FE0
C3E0
0000
0000
0000
0F80
0F80
0F80
0F80
0F80
0F80
0F80
0F80
0F80
0F80
0F80
0F80
0F80
0F80
0F80
0F80
0F80
ENDCHAR
STARTCHAR 012A
ENCODING 298
SWIDTH 300 0
DWIDTH 10 0
BBX 12 29 -1 0
BITMAP
FFF0
FFF0
0000
0000
0000
1F80
1F80
1F80
1F80
1F80
1F80
1F80
1F80
1F80
1F80
1F80
1F80
1F80
1F80
1F80
1F80
1F80
1F80
1F80
1F80
1F80
1F80
1F80
1F80
ENDCHAR
STARTCHAR 012B
ENCODING 299
SWIDTH 270 0
DWIDTH 9 0
BBX 12 23 -2 0
BITMAP
FFF0
FFF0
0000
0000
0000
0000
0F80
0F80
0F80
0F80
0F80
0F80
0F80
0F80
0F80
0F80
0F80
0F80
0F80
0F80
0F80
0F80
0F80
ENDCHAR
STARTCHAR 012C
ENCODING 300
SWIDTH 300 0
DWIDTH 10 0
BBX 12 31 -1 0
BITMAP
E070
6060
7BE0
3FC0
1F80
0000
0000
1F80
1F80
1F80
1F80
1F80
1F80
1F80
1F80
1F80
1F80
1F80
1F80
1F80
1F80
1F80
1F80
1F80
1F80
1F80
1F80
1F80
1F80
1F80
1F80
ENDCHAR
STARTCHAR 012D
ENCODING 301
SWIDTH 270 0
DWIDTH 9 0
BBX 11 24 -1 0
BITMAP
C0E0
E1C0
7FC0
3F80
0000
0000
0000
1F00
1F00
1F00
1F00
1F00
1F00
1F00
1F00
1F00
1F00
1F00
1F00
1F00
1F00
1F00
1F00
1F00
ENDCHAR
STARTCHAR 012E
ENCODING 302
SWIDTH 300 0
DWIDTH 10 0
BBX 6 31 2 -7
BITMAP
FC
FC
FC
FC
FC
FC
FC
FC
FC
FC
FC
FC
FC
FC
FC
FC
FC
FC
FC
FC
FC
FC
FC
FC
38
70
E0
E0
E4
FC
F8
ENDCHAR
STARTCHAR 012F
ENCODING 303
SWIDTH 270 0
DWIDTH 9 0
BBX 7 31 1 -7
BITMAP
7C
7C
7C
7C
00
00
00
7C
7C
7C
7C
7C
7C
7C
7C
7C
7C
7C
7C
7C
7C
7C
7C
7C
18
30
70
E0
E0
FE
7C
ENDCHAR
STARTCHAR 0130
ENCODING 304
SWIDTH 300 0
DWIDTH 10 0
BBX 6 30 2 0
BITMAP
78
78
78
78
00
00
FC
FC
FC
FC
FC
FC
FC
FC
FC
FC
FC
FC
FC
FC
FC
FC
FC
FC
FC
FC
FC
FC
FC
FC
ENDCHAR
STARTCHAR 0131
ENCODING 305
SWIDTH 270 0
DWIDTH 9 0
BBX 5 17 2 0
BITMAP
F8
F8
F8
F8
F8
F8
F8
F8
F8
F8
F8
F8
F8
F8
F8
F8
F8
ENDCHAR
STARTCHAR 0132
ENCODING 306
SWIDTH 840 0
DWIDTH 28 0
BBX 24 25 2 -1
BITMAP
FC001F
FC001F
FC001F
FC001F
FC001F
FC001F
FC001F
FC001F
FC001F
FC001F
FC001F
FC001F
FC001F
FC001F
FC001F
FCF81F
FCF81F
FCF81F
FCF83F
FCFC3F
FC7FFE
FC7FFE
FC3FFC
FC1FF8
000380
ENDCHAR
STARTCHAR 0133
ENCODING 307
SWIDTH 510 0
DWIDTH 17 0
BBX 13 30 2 -6
BITMAP
F8F8
F8F8
F8F8
F8F8
0000
0000
0000
F8F8
F8F8
F8F8
F8F8
F8F8
F8F8
F8F8
F8F8
F8F8
F8F8
F8F8
F8F8
F8F8
F8F8
F8F8
F8F8
F8F8
00F8
00F8
03F8
03F8
03F0
03E0
ENDCHAR
STARTCHAR 0134
ENCODING 308
SWIDTH 570 0
DWIDTH 19 0
BBX 19 32 0 -1
BITMAP
001F00
003F80
003F80
0073C0
00F1E0
000000
000000
001F00
001F00
001F00
001F00
001F00
001F00
001F00
001F00
001F00
001F00
001F00
001F00
001F00
001F00
001F00
F81F00
F81F00
F81F00
7C1F00
7C3F00
7FFF00
3FFE00
1FFC00
0FF800
01C000
ENDCHAR
STARTCHAR 0135
ENCODING 309
SWIDTH 270 0
DWIDTH 9 0
BBX 11 30 -1 -6
BITMAP
1F00
3F80
7BC0
F1E0
0000
0000
0000
1F00
1F00
1F00
1F00
1F00
1F00
1F00
1F00
1F00
1F00
1F00
1F00
1F00
1F00
1F00
1F00
1F00
1F00
1F00
FF00
FF00
FE00
FC00
ENDCHAR
STARTCHAR 0136
ENCODING 310
SWIDTH 720 0
DWIDTH 24 0
BBX 22 31 2 -7
BITMAP
FC01F8
FC03F0
FC07E0
FC0FC0
FC1F80
FC3F00
FC7E00
FCFC00
FDF800
FFF000
FFF800
FFF800
FFFC00
FF7E00
FE7F00
FC3F00
FC1F80
FC1FC0
FC0FC0
FC07E0
FC07F0
FC03F0
FC01F8
FC01FC
000000
000000
00F800
00F800
00F800
003800
00F000
ENDCHAR
STARTCHAR 0137
ENCODING 311
SWIDTH 570 0
DWIDTH 19 0
BBX 17 31 2 -7
BITMAP
F80000
F80000
F80000
F80000
F80000
F80000
F80000
F83F00
F87E00
F8FC00
F9F800
FBF000
FFE000
FFC000
FFE000
FFF000
FFF000
FCF800
F8FC00
F87C00
F87E00
F83F00
F81F00
F81F80
000000
000000
03E000
03E000
03E000
00C000
03C000
ENDCHAR
STARTCHAR 0138
ENCODING 312
SWIDTH 570 0
DWIDTH 19 0
BBX 17 17 2 0
BITMAP
F83F00
F87C00
F8F800
F9F800
FBF000
FFE000
FFC000
FFC000
FFE000
FFF000
FDF000
F8F800
F8FC00
F87C00
F87E00
F83F00
F81F80
ENDCHAR
STARTCHAR 0139
ENCODING 313
SWIDTH 600 0
DWIDTH 20 0
BBX 17 31 2 0
BITMAP
0F8000
0F0000
1E0000
3C0000
380000
000000
000000
FC0000
FC0000
FC0000
FC0000
FC0000
FC0000
FC0000
FC0000
FC0000
FC0000
FC0000
FC0000
FC0000
FC0000
FC0000
FC0000
FC0000
FC0000
FC0000
FC0000
FFFF80
FFFF80
FFFF80
FFFF80
ENDCHAR
STARTCHAR 013A
ENCODING 314
SWIDTH 270 0
DWIDTH 9 0
BBX 8 31 2 0
BITMAP
1F
3E
3C
78
F0
00
00
F8
F8
F8
F8
F8
F8
F8
F8
F8
F8
F8
F8
F8
F8
F8
F8
F8
F8
F8
F8
F8
F8
F8
F8
ENDCHAR
STARTCHAR 013B
ENCODING 315
SWIDTH 600 0
DWIDTH 20 0
BBX 17 31 2 -7
BITMAP
FC0000
FC0000
FC0000
FC0000
FC0000
FC0000
FC0000
FC0000
FC0000
FC0000
FC0000
FC0000
FC0000
FC0000
FC0000
FC0000
FC0000
FC0000
FC0000
FC0000
FFFF80
FFFF80
FFFF80
FFFF80
000000
000000
03E000
03E000
03E000
00E000
01C000
ENDCHAR
STARTCHAR 013C
ENCODING 316
SWIDTH 270 0
DWIDTH 9 0
BBX 5 31 2 -7
BITMAP
F8
F8
F8
F8
F8
F8
F8
F8
F8
F8
F8
F8
F8
F8
F8
F8
F8
F8
F8
F8
F8
F8
F8
F8
00
00
F8
F8
F8
30
F0
ENDCHAR
STARTCHAR 013D
ENCODING 317
SWIDTH 600 0
DWIDTH 20 0
BBX 17 24 2 0
BITMAP
FC7C00
FC7800
FC7800
FCF000
FCF000
FC0000
FC0000
FC0000
FC0000
FC0000
FC0000
FC0000
FC0000
FC0000
FC0000
FC0000
FC0000
FC0000
FC0000
FC0000
FFFF80
FFFF80
FFFF80
FFFF80
ENDCHAR
STARTCHAR 013E
ENCODING 318
SWIDTH 390 0
DWIDTH 13 0
BBX 11 24 2 0
BITMAP
F9E0
F9E0
F9E0
F9E0
F9E0
F9E0
F9E0
F9E0
F9E0
F9E0
F9E0
F800
F800
F800
F800
F800
F800
F800
F800
F800
F800
F800
F800
F800
ENDCHAR
STARTCHAR 013F
ENCODING 319
SWIDTH 600 0
DWIDTH 20 0
BBX 17 24 2 0
BITMAP
FC0000
FC0000
FC0000
FC0000
FC0000
FC0000
FC0000
FC0000
FC0000
FC7C00
FC7C00
FC7C00
FC7C00
FC0000
FC0000
FC0000
FC0000
FC0000
FC0000
FC0000
FFFF80
FFFF80
FFFF80
FFFF80
ENDCHAR
STARTCHAR 0140
ENCODING 320
SWIDTH 420 0
DWIDTH 14 0
BBX 11 24 2 0
BITMAP
F800
F800
F800
F800
F800
F800
F800
F800
F800
F9E0
F9E0
F9E0
F9E0
F800
F800
F800
F800
F800
F800
F800
F800
F800
F800
F800
ENDCHAR
STARTCHAR 0141
ENCODING 321
SWIDTH 600 0
DWIDTH 20 0
BBX 19 24 0 0
BITMAP
3F0000
3F0000
3F0000
3F0000
3F0000
3F0600
3F0E00
3F3E00
3F7C00
3FF800
3FE000
3FC000
3F8000
3F0000
FF0000
FF0000
FF0000
BF0000
3F0000
3F0000
3FFFE0
3FFFE0
3FFFE0
3FFFE0
ENDCHAR
STARTCHAR 0142
ENCODING 322
SWIDTH 270 0
DWIDTH 9 0
BBX 9 24 0 0
BITMAP
3E00
3E00
3E00
3E00
3E00
3E00
3E80
3F80
3F80
3F00
3E00
7E00
FE00
FE00
FE00
BE00
3E00
3E00
3E00
3E00
3E00
3E00
3E00
3E00
ENDCHAR
STARTCHAR 0143
ENCODING 323
SWIDTH 750 0
DWIDTH 25 0
BBX 20 32 2 0
BITMAP
001F00
001E00
003E00
007C00
007800
00F000
000000
000000
FC01F0
FC01F0
FE01F0
FF01F0
FF01F0
FF81F0
FF81F0
FFC1F0
FBE1F0
FBE1F0
F9F1F0
F9F9F0
F8F9F0
F87DF0
F87DF0
F83FF0
F83FF0
F81FF0
F80FF0
F80FF0
F807F0
F803F0
F803F0
F801F0
ENDCHAR
STARTCHAR 0144
ENCODING 324
SWIDTH 600 0
DWIDTH 20 0
BBX 16 26 2 0
BITMAP
007C
00F8
01F0
01E0
03C0
0380
0000
0000
00F0
F3FC
F7FE
FFFE
FC3F
F81F
F81F
F81F
F81F
F81F
F81F
F81F
F81F
F81F
F81F
F81F
F81F
F81F
ENDCHAR
STARTCHAR 0145
ENCODING 325
SWIDTH 750 0
DWIDTH 25 0
BBX 20 31 2 -7
BITMAP
FC01F0
FC01F0
FE01F0
FF01F0
FF01F0
FF81F0
FF81F0
FFC1F0
FFE1F0
FBE1F0
F9F1F0
F9F9F0
F8F9F0
F87DF0
F87DF0
F83FF0
F83FF0
F81FF0
F80FF0
F80FF0
F807F0
F803F0
F803F0
F801F0
000000
000000
00F800
00F800
00F800
003800
00F000
ENDCHAR
STARTCHAR 0146
ENCODING 326
SWIDTH 600 0
DWIDTH 20 0
BBX 16 25 2 -7
BITMAP
00F0
F3FC
F7FE
FFFE
FC3F
F81F
F81F
F81F
F81F
F81F
F81F
F81F
F81F
F81F
F81F
F81F
F81F
F81F
0000
0000
07C0
07C0
07C0
01C0
0380
ENDCHAR
STARTCHAR 0147
ENCODING 327
SWIDTH 750 0
DWIDTH 25 0
BBX 20 31 2 0
BITMAP
0F0F00
079E00
03DC00
01FC00
00F800
000000
000000
FC01F0
FC01F0
FE01F0
FF01F0
FF01F0
FF81F0
FF81F0
FFC1F0
FFE1F0
FBE1F0
F9F1F0
F9F9F0
F8F9F0
F87DF0
F87DF0
F83FF0
F83FF0
F81FF0
F80FF0
F80FF0
F807F0
F803F0
F803F0
F801F0
ENDCHAR
STARTCHAR 0148
ENCODING 328
SWIDTH 600 0
DWIDTH 20 0
BBX 16 24 2 0
BITMAP
1E78
1E70
0FE0
07E0
0000
0000
00F0
F3FC
F7FE
FFFE
FC3F
F81F
F81F
F81F
F81F
F81F
F81F
F81F
F81F
F81F
F81F
F81F
F81F
F81F
ENDCHAR
STARTCHAR 0149
ENCODING 329
SWIDTH 750 0
DWIDTH 25 0
BBX 22 24 1 0
BITMAP
F00000
F00000
F00000
F00000
F00000
300000
300380
73CFF0
F3DFF8
E3FFF8
83F0F8
03E07C
03E07C
03C07C
03C07C
03C07C
03C07C
03C07C
03C07C
03C07C
03C07C
03C07C
03C07C
03C07C
ENDCHAR
STARTCHAR 014A
ENCODING 330
SWIDTH 750 0
DWIDTH 25 0
BBX 20 30 2 -6
BITMAP
FC01F0
FC01F0
FE01F0
FF01F0
FF01F0
FF81F0
FF81F0
FFC1F0
FBE1F0
FBE1F0
F9F1F0
F9F9F0
F8F9F0
F87DF0
F87FF0
F83FF0
F81FF0
F81FF0
F80FF0
F807F0
F807F0
F803F0
F801F0
F801F0
0001F0
0001F0
001FF0
001FF0
001FE0
001F80
ENDCHAR
STARTCHAR 014B
ENCODING 331
SWIDTH 600 0
DWIDTH 20 0
BBX 16 24 2 -6
BITMAP
00F0
F3FC
F7FE
FFFE
FC3F
F81F
F81F
F81F
F81F
F81F
F81F
F81F
F81F
F81F
F81F
F81F
F81F
F81F
001F
001F
00FF
00FE
00FE
00F8
ENDCHAR
STARTCHAR 014C
ENCODING 332
SWIDTH 780 0
DWIDTH 26 0
BBX 24 30 1 -1
BITMAP
03FFC0
03FFC0
000000
000000
000000
01FF80
07FFC0
0FFFF0
1FFFF8
3F83F8
3F00FC
7E007E
7C007E
7C003E
FC003E
FC003F
FC003F
F8003F
FC003F
FC003E
7C003E
7C003E
7E007E
3F00FC
3F81FC
1FFFF8
0FFFF0
07FFE0
01FF80
001C00
ENDCHAR
STARTCHAR 014D
ENCODING 333
SWIDTH 600 0
DWIDTH 20 0
BBX 18 23 1 0
BITMAP
1FFE00
1FFE00
000000
000000
000000
01E000
0FFC00
1FFE00
3FFF00
7E1F80
7C0F80
7807C0
F807C0
F807C0
F807C0
F807C0
F807C0
7C07C0
7C0F80
3E1F80
3FFF00
1FFE00
07FC00
ENDCHAR
STARTCHAR 014E
ENCODING 334
SWIDTH 780 0
DWIDTH 26 0
BBX 24 32 1 -1
BITMAP
0381C0
018180
01E780
00FF00
007E00
000000
000000
01FF80
07FFC0
0FFFF0
1FFFF8
3F83F8
3F00FC
7E007E
7C007E
7C003E
FC003E
FC003F
FC003F
F8003F
FC003F
FC003E
7C003E
7C003E
7E007E
3F00FC
3F81FC
1FFFF8
0FFFF0
07FFE0
01FF80
001C00
ENDCHAR
STARTCHAR 014F
ENCODING 335
SWIDTH 600 0
DWIDTH 20 0
BBX 18 24 1 0
BITMAP
0C0E00
0E1C00
07FC00
03F800
000000
000000
01E000
0FFC00
1FFE00
3FFF00
7E1F80
7C0F80
7807C0
F807C0
F807C0
F807C0
F807C0
F807C0
7C07C0
7C0F80
3E1F80
3FFF00
1FFE00
07FC00
ENDCHAR
STARTCHAR 0150
ENCODING 336
SWIDTH 780 0
DWIDTH 26 0
BBX 24 32 1 -1
BITMAP
007EF8
0078F0
00F1E0
01E3C0
01C380
000000
000000
01FF80
07FFC0
0FFFF0
1FFFF8
3F83F8
3F00FC
7E007E
7C007E
7C003E
FC003E
FC003F
FC003F
F8003F
FC003F
FC003E
7C003E
7C003E
7E007E
3F00FC
3F81FC
1FFFF8
0FFFF0
07FFE0
01FF80
001C00
ENDCHAR
STARTCHAR 0151
ENCODING 337
SWIDTH 600 0
DWIDTH 20 0
BBX 18 24 1 0
BITMAP
03E7C0
03CF80
078F00
0F1E00
000000
000000
01E000
0FFC00
1FFE00
3FFF00
7E1F80
7C0F80
7807C0
F807C0
F807C0
F807C0
F807C0
F807C0
7C07C0
7C0F80
3E1F80
3FFF00
1FFE00
07FC00
ENDCHAR
STARTCHAR 0152
ENCODING 338
SWIDTH 1080 0
DWIDTH 36 0
BBX 34 25 1 -1
BITMAP
01FE7FFFC0
07FFFFFFC0
0FFFFFFFC0
1FFFFFFFC0
3F83FFFFC0
3F01FC0000
7E00FC0000
7C007C0000
7C007C0000
7C007C0000
FC007FFF80
F8007FFF80
F8007FFF80
FC007FFF80
FC007C0000
7C007C0000
7C007C0000
7E00FC0000
3F00FC0000
3F83FC0000
1FFFFFFFC0
0FFFFFFFC0
07FFFFFFC0
03FF7FFFC0
0038000000
ENDCHAR
STARTCHAR 0153
ENCODING 339
SWIDTH 930 0
DWIDTH 31 0
BBX 29 18 1 0
BITMAP
01E01C00
0FF8FF80
1FFDFFC0
3FFFFFE0
7E1FC1F0
7C0F80F0
780F80F0
F80F80F8
F80FFFF8
F80FFFF8
F80FFFF8
F80F8000
780F8000
7C1FC0F0
7E3FE3F0
3FFFFFE0
1FFDFFC0
0FF0FF80
ENDCHAR
STARTCHAR 0154
ENCODING 340
SWIDTH 720 0
DWIDTH 24 0
BBX 21 31 2 0
BITMAP
003F00
003C00
007800
00F000
00E000
000000
000000
FFFE00
FFFF80
FFFFE0
FFFFE0
FC07F0
FC03F0
FC01F0
FC01F0
FC01F0
FC03F0
FC07E0
FFFFC0
FFFF80
FFFFC0
FFFFE0
FC03E0
FC03F0
FC01F0
FC01F0
FC01F0
FC01F0
FC01F0
FC01F0
FC01F8
ENDCHAR
STARTCHAR 0155
ENCODING 341
SWIDTH 390 0
DWIDTH 13 0
BBX 11 24 2 0
BITMAP
03E0
07C0
0F80
0E00
0000
0000
00E0
F3E0
F7E0
F7E0
FFE0
FC00
F800
F800
F800
F800
F800
F800
F800
F800
F800
F800
F800
F800
ENDCHAR
STARTCHAR 0156
ENCODING 342
SWIDTH 720 0
DWIDTH 24 0
BBX 21 31 2 -7
BITMAP
FFFE00
FFFF80
FFFFE0
FFFFE0
FC07F0
FC03F0
FC01F0
FC01F0
FC01F0
FC03F0
FC07E0
FFFFC0
FFFF80
FFFFC0
FFFFE0
FC03E0
FC03F0
FC01F0
FC01F0
FC01F0
FC01F0
FC01F0
FC01F0
FC01F8
000000
000000
00F800
00F800
00F800
003000
00F000
ENDCHAR
STARTCHAR 0157
ENCODING 343
SWIDTH 390 0
DWIDTH 13 0
BBX 11 25 2 -7
BITMAP
00E0
F3E0
F7E0
F7E0
FFE0
FC00
F800
F800
F800
F800
F800
F800
F800
F800
F800
F800
F800
F800
0000
0000
F800
F800
F800
3000
F000
ENDCHAR
STARTCHAR 0158
ENCODING 344
SWIDTH 720 0
DWIDTH 24 0
BBX 21 31 2 0
BITMAP
0E1E00
0F1C00
07B800
03F800
01F000
000000
000000
FFFE00
FFFF80
FFFFE0
FFFFE0
FC07F0
FC03F0
FC01F0
FC01F0
FC01F0
FC03F0
FC07E0
FFFFC0
FFFF80
FFFFC0
FFFFE0
FC03E0
FC03F0
FC01F0
FC01F0
FC01F0
FC01F0
FC01F0
FC01F0
FC01F8
ENDCHAR
STARTCHAR 0159
ENCODING 345
SWIDTH 390 0
DWIDTH 13 0
BBX 11 24 2 0
BITMAP
F1E0
7BC0
3F80
3F00
0000
0000
00E0
F3E0
F7E0
F7E0
FFE0
FC00
F800
F800
F800
F800
F800
F800
F800
F800
F800
F800
F800
F800
ENDCHAR
STARTCHAR 015A
ENCODING 346
SWIDTH 660 0
DWIDTH 22 0
BBX 20 33 1 -1
BITMAP
003F00
003E00
007C00
007800
00F000
01E000
000000
000000
07FC00
1FFF00
3FFF80
7FFFC0
7E07E0
7C07E0
7C03E0
7C0000
7E0000
7FE000
3FFE00
1FFF80
0FFFC0
01FFE0
001FE0
0007F0
F803F0
F801F0
FC01F0
FC03E0
7FFFE0
3FFFC0
1FFF80
0FFE00
006000
ENDCHAR
STARTCHAR 015B
ENCODING 347
SWIDTH 540 0
DWIDTH 18 0
BBX 16 26 1 0
BITMAP
00F8
00F0
01F0
01E0
03C0
0780
0000
0000
07C0
1FF8
7FFC
7FFE
F83E
F81E
FC00
7FC0
7FF8
1FFE
03FE
003F
F01F
F81F
F81F
7FFE
3FFC
1FF8
ENDCHAR
STARTCHAR 015C
ENCODING 348
SWIDTH 660 0
DWIDTH 22 0
BBX 20 32 1 -1
BITMAP
00F000
01F800
03FC00
079E00
070E00
000000
000000
07FC00
1FFF00
3FFF80
7FFFC0
7E07E0
7C07E0
7C03E0
7C0000
7E0000
7FE000
3FFE00
1FFF80
0FFFC0
01FFE0
001FE0
0007F0
F803F0
F801F0
F801F0
FC03E0
7FFFE0
3FFFC0
1FFF80
07FF00
007000
ENDCHAR
STARTCHAR 015D
ENCODING 349
SWIDTH 540 0
DWIDTH 18 0
BBX 16 24 1 0
BITMAP
07E0
0FF0
0E70
1E78
0000
0000
07C0
1FF8
7FFC
7EFE
F83E
F81E
FC00
7FC0
7FF8
1FFE
03FE
003F
F01F
F81F
F81F
7FFE
3FFC
1FF8
ENDCHAR
STARTCHAR 015E
ENCODING 350
SWIDTH 660 0
DWIDTH 22 0
BBX 20 31 1 -7
BITMAP
07FC00
1FFF00
3FFF80
7FFFC0
7E07E0
7C07E0
7C03E0
7C0000
7E0000
7FE000
3FFE00
1FFF80
0FFFC0
01FFE0
001FE0
0007F0
F803F0
F801F0
F801F0
FC03E0
7FFFE0
3FFFC0
1FFF80
07FF00
00F000
008000
01F800
003800
003800
03F800
07F000
ENDCHAR
STARTCHAR 015F
ENCODING 351
SWIDTH 540 0
DWIDTH 18 0
BBX 16 25 1 -7
BITMAP
07C0
1FF8
7FFC
7EFE
F83E
F81E
FC00
7FC0
7FF8
1FFE
03FE
003F
F01F
F81F
F81F
7FFE
3FFC
1FF8
0100
0300
07E0
00F0
00F0
0FE0
0FC0
ENDCHAR
STARTCHAR 0160
ENCODING 352
SWIDTH 660 0
DWIDTH 22 0
BBX 20 32 1 -1
BITMAP
0F0F00
079E00
03BC00
03F800
01F000
000000
000000
07FC00
1FFF00
3FFF80
7FFFC0
7E07E0
7C07E0
7C03E0
7C0000
7E0000
7FE000
3FFE00
1FFF80
0FFFC0
01FFE0
001FE0
0007F0
F803F0
F801F0
FC01F0
FC03E0
7FFFE0
3FFFC0
1FFF80
0FFE00
006000
ENDCHAR
STARTCHAR 0161
ENCODING 353
SWIDTH 540 0
DWIDTH 18 0
BBX 16 24 1 0
BITMAP
1C38
1E78
0FF0
07E0
03C0
0000
07C0
1FF8
7FFC
7FFE
F83E
F81E
FC00
7FC0
7FF8
1FFE
03FE
003F
F01F
F81F
F81F
7FFE
3FFC
1FF8
ENDCHAR
STARTCHAR 0162
ENCODING 354
SWIDTH 600 0
DWIDTH 20 0
BBX 20 31 0 -7
BITMAP
FFFFF0
FFFFF0
FFFFF0
FFFFF0
FFFFF0
00F800
00F800
00F800
00F800
00F800
00F800
00F800
00F800
00F800
00F800
00F800
00F800
00F800
00F800
00F800
00F800
00F800
00F800
00F800
000000
000000
00F800
00F800
00F800
003000
00F000
ENDCHAR
STARTCHAR 0163
ENCODING 355
SWIDTH 360 0
DWIDTH 12 0
BBX 11 29 0 -7
BITMAP
1F00
1F00
1F00
1F00
1F00
FFE0
FFE0
FFE0
1F00
1F00
1F00
1F00
1F00
1F00
1F00
1F00
1F00
1F00
1FE0
1FE0
0FE0
07E0
0300
0200
07E0
00E0
00E0
0FE0
1FC0
ENDCHAR
STARTCHAR 0164
ENCODING 356
SWIDTH 600 0
DWIDTH 20 0
BBX 20 31 0 0
BITMAP
0F0F00
079E00
03DC00
01FC00
00F800
000000
000000
FFFFF0
FFFFF0
FFFFF0
FFFFF0
FFFFF0
00F800
00F800
00F800
00F800
00F800
00F800
00F800
00F800
00F800
00F800
00F800
00F800
00F800
00F800
00F800
00F800
00F800
00F800
00F800
ENDCHAR
STARTCHAR 0165
ENCODING 357
SWIDTH 360 0
DWIDTH 12 0
BBX 15 24 0 0
BITMAP
001E
003E
1F3C
1F3C
1F38
1F00
1F00
FFE0
FFE0
FFE0
1F00
1F00
1F00
1F00
1F00
1F00
1F00
1F00
1F00
1F00
1FE0
1FE0
0FE0
07E0
ENDCHAR
STARTCHAR 0166
ENCODING 358
SWIDTH 600 0
DWIDTH 20 0
BBX 20 24 0 0
BITMAP
FFFFF0
FFFFF0
FFFFF0
FFFFF0
FFFFF0
00F800
00F800
00F800
00F800
1FFFC0
1FFFC0
1FFFC0
00F800
00F800
00F800
00F800
00F800
00F800
00F800
00F800
00F800
00F800
00F800
00F800
ENDCHAR
STARTCHAR 0167
ENCODING 359
SWIDTH 360 0
DWIDTH 12 0
BBX 11 22 0 0
BITMAP
1F00
1F00
1F00
1F00
1F00
FFE0
FFE0
FFE0
1F00
1F00
1F00
FFE0
FFE0
1F00
1F00
1F00
1F00
1F00
1FE0
1FE0
0FE0
07E0
ENDCHAR
STARTCHAR 0168
ENCODING 360
SWIDTH 750 0
DWIDTH 25 0
BBX 20 32 2 -1
BITMAP
01C300
07FF00
07FF00
0E3E00
000000
000000
000000
F801F0
F801F0
F801F0
F801F0
F801F0
F801F0
F801F0
F801F0
F801F0
F801F0
F801F0
F801F0
F801F0
F801F0
F801F0
F801F0
FC01F0
FC01F0
7C03F0
7E07F0
7FFFE0
3FFFC0
1FFF80
07FF00
006000
ENDCHAR
STARTCHAR 0169
ENCODING 361
SWIDTH 600 0
DWIDTH 20 0
BBX 16 24 2 0
BITMAP
0F0C
1FFC
3BF8
30F0
0000
0000
0000
F81F
F81F
F81F
F81F
F81F
F81F
F81F
F81F
F81F
F81F
F81F
F81F
F83F
FC7F
FFFF
7FFF
3F9F
ENDCHAR
STARTCHAR 016A
ENCODING 362
SWIDTH 750 0
DWIDTH 25 0
BBX 20 30 2 -1
BITMAP
0FFF00
0FFF00
000000
000000
000000
F801F0
F801F0
F801F0
F801F0
F801F0
F801F0
F801F0
F801F0
F801F0
F801F0
F801F0
F801F0
F801F0
F801F0
F801F0
F801F0
FC01F0
FC01F0
7C03F0
7E07F0
7FFFE0
3FFFC0
1FFF80
07FF00
007000
ENDCHAR
STARTCHAR 016B
ENCODING 363
SWIDTH 600 0
DWIDTH 20 0
BBX 16 23 2 0
BITMAP
3FFC
3FFC
0000
0000
0000
0000
F81F
F81F
F81F
F81F
F81F
F81F
F81F
F81F
F81F
F81F
F81F
F81F
F83F
FC7F
FFFF
7FFF
3FDF
ENDCHAR
STARTCHAR 016C
ENCODING 364
SWIDTH 750 0
DWIDTH 25 0
BBX 20 32 2 -1
BITMAP
060300
070700
07DE00
03FE00
01F800
000000
000000
F801F0
F801F0
F801F0
F801F0
F801F0
F801F0
F801F0
F801F0
F801F0
F801F0
F801F0
F801F0
F801F0
F801F0
F801F0
F801F0
FC01F0
FC01F0
7C03F0
7E07F0
7FFFE0
3FFFC0
1FFF80
07FF00
007000
ENDCHAR
STARTCHAR 016D
ENCODING 365
SWIDTH 600 0
DWIDTH 20 0
BBX 16 24 2 0
BITMAP
3818
1C38
1FF8
0FE0
0000
0000
0000
F81F
F81F
F81F
F81F
F81F
F81F
F81F
F81F
F81F
F81F
F81F
F81F
F83F
FC7F
FFFF
7FFF
3FDF
ENDCHAR
STARTCHAR 016E
ENCODING 366
SWIDTH 750 0
DWIDTH 25 0
BBX 20 33 2 -1
BITMAP
007000
01F800
018C00
030C00
030C00
018C00
01F800
007000
F801F0
F801F0
F801F0
F801F0
F801F0
F801F0
F801F0
F801F0
F801F0
F801F0
F801F0
F801F0
F801F0
F801F0
F801F0
F801F0
FC01F0
FC01F0
7C03F0
7E07F0
7FFFE0
3FFFC0
1FFF80
07FF00
007000
ENDCHAR
STARTCHAR 016F
ENCODING 367
SWIDTH 600 0
DWIDTH 20 0
BBX 16 27 2 0
BITMAP
03C0
07E0
0E70
0C30
0C30
0C30
07E0
07C0
0000
0000
F81F
F81F
F81F
F81F
F81F
F81F
F81F
F81F
F81F
F81F
F81F
F81F
F83F
FC7F
FFFF
7FFF
3FDF
ENDCHAR
STARTCHAR 0170
ENCODING 368
SWIDTH 750 0
DWIDTH 25 0
BBX 20 32 2 -1
BITMAP
00F9F0
01F3E0
03E7C0
03C780
078F00
000000
000000
F801F0
F801F0
F801F0
F801F0
F801F0
F801F0
F801F0
F801F0
F801F0
F801F0
F801F0
F801F0
F801F0
F801F0
F801F0
F801F0
FC01F0
FC01F0
7C03F0
7E07F0
7FFFE0
3FFFC0
1FFF80
07FF00
007000
ENDCHAR
STARTCHAR 0171
ENCODING 369
SWIDTH 600 0
DWIDTH 20 0
BBX 17 24 2 0
BITMAP
07CF80
0F9F00
0F1E00
1E3C00
000000
000000
000000
F81F00
F81F00
F81F00
F81F00
F81F00
F81F00
F81F00
F81F00
F81F00
F81F00
F81F00
F81F00
F83F00
FC7F00
FFFF00
7FFF00
3FDF00
ENDCHAR
STARTCHAR 0172
ENCODING 370
SWIDTH 750 0
DWIDTH 25 0
BBX 20 31 2 -7
BITMAP
F801F0
F801F0
F801F0
F801F0
F801F0
F801F0
F801F0
F801F0
F801F0
F801F0
F801F0
F801F0
F801F0
F801F0
F801F0
F801F0
FC01F0
FC01F0
7C03F0
7E07F0
7FFFE0
3FFFC0
1FFF80
07FF00
007000
00E000
01C000
01C000
03C800
01FC00
01F800
ENDCHAR
STARTCHAR 0173
ENCODING 371
SWIDTH 600 0
DWIDTH 20 0
BBX 16 24 2 -7
BITMAP
F81F
F81F
F81F
F81F
F81F
F81F
F81F
F81F
F81F
F81F
F81F
F81F
F83F
FC7F
FFFF
7FFF
3FDF
0018
0030
0070
0070
00F2
007F
007E
ENDCHAR
STARTCHAR 0174
ENCODING 372
SWIDTH 930 0
DWIDTH 31 0
BBX 31 31 0 0
BITMAP
0007C000
0007E000
000FF000
001E7000
003C7800
00000000
00000000
F807C03E
FC07E03E
7C07E03E
7C0FE07C
7C0FE07C
7E0FF07C
3E0FF07C
3E1FF0F8
3E1EF0F8
1F1EF8F8
1F1EF8F8
1F3E78F0
1F3E79F0
0F3C79F0
0FBC7DF0
0FFC3DE0
0FFC3FE0
07F83FE0
07F83FC0
07F81FC0
07F81FC0
03F01FC0
03F01F80
03F00F80
ENDCHAR
STARTCHAR 0175
ENCODING 373
SWIDTH 810 0
DWIDTH 27 0
BBX 27 24 0 0
BITMAP
001F8000
003F8000
007BC000
00F1E000
00000000
00000000
00000000
F81F03E0
7C1F03C0
7C1F87C0
7C3F87C0
3C3F8780
3E3B8F80
3E3BCF80
1E7BCF00
1F7BCF00
1F71DF00
0F71FF00
0FF1FE00
0FF1FE00
07E0FE00
07E0FC00
07E0FC00
07E0FC00
ENDCHAR
STARTCHAR 0176
ENCODING 374
SWIDTH 660 0
DWIDTH 22 0
BBX 22 31 0 0
BITMAP
007C00
00FC00
01FE00
01CF00
03C780
000000
000000
FC007C
FC00FC
7E01F8
3F01F8
3F03F0
1F83E0
1F87E0
0FCFC0
07EFC0
07FF80
03FF00
03FF00
01FE00
00FE00
00FC00
00FC00
00FC00
00FC00
00FC00
00FC00
00FC00
00FC00
00FC00
00FC00
ENDCHAR
STARTCHAR 0177
ENCODING 375
SWIDTH 510 0
DWIDTH 17 0
BBX 17 30 0 -6
BITMAP
03F000
07F800
0F7800
0E3C00
000000
000000
000000
F80F80
F80F80
7C0F00
7C1F00
3C1F00
3E1E00
3E3E00
1E3E00
1F3C00
1F7C00
0F7C00
0FF800
07F800
07F000
07F000
03F000
03E000
03E000
03E000
7FC000
7FC000
7F8000
7F0000
ENDCHAR
STARTCHAR 0178
ENCODING 376
SWIDTH 660 0
DWIDTH 22 0
BBX 22 30 0 0
BITMAP
07CF80
07CF80
07CF80
07CF80
000000
000000
FC007C
FC00FC
7E01F8
3F01F8
3F03F0
1F83E0
1F87E0
0FCFC0
07EFC0
07FF80
03FF00
03FF00
01FE00
00FE00
00FC00
00FC00
00FC00
00FC00
00FC00
00FC00
00FC00
00FC00
00FC00
00FC00
ENDCHAR
STARTCHAR 0179
ENCODING 377
SWIDTH 660 0
DWIDTH 22 0
BBX 20 32 1 0
BITMAP
003F00
003E00
007C00
007800
00F000
01E000
000000
000000
7FFFE0
7FFFE0
7FFFE0
7FFFE0
7FFFE0
000FE0
001FC0
003F80
007F00
00FE00
00FC00
01FC00
03F800
07F000
0FE000
1FC000
1F8000
3F0000
7F0000
FE0000
FFFFF0
FFFFF0
FFFFF0
FFFFF0
ENDCHAR
STARTCHAR 017A
ENCODING 378
SWIDTH 510 0
DWIDTH 17 0
BBX 16 26 1 0
BITMAP
00F8
01F0
01E0
03C0
0380
0700
0000
0000
0000
FFFE
FFFE
FFFE
007E
00FC
01F8
03F0
07E0
0FC0
1F80
3F80
7F00
7E00
FFFF
FFFF
FFFF
FFFF
ENDCHAR
STARTCHAR 017B
ENCODING 379
SWIDTH 660 0
DWIDTH 22 0
BBX 20 31 1 0
BITMAP
00F000
00F000
00F000
00F000
000000
000000
000000
7FFFE0
7FFFE0
7FFFE0
7FFFE0
7FFFE0
000FE0
001FC0
003F80
007F00
00FE00
00FC00
01FC00
03F800
07F000
0FE000
1FC000
1F8000
3F0000
7F0000
FE0000
FFFFF0
FFFFF0
FFFFF0
FFFFF0
ENDCHAR
STARTCHAR 017C
ENCODING 380
SWIDTH 510 0
DWIDTH 17 0
BBX 16 25 1 0
BITMAP
07C0
07C0
07C0
07C0
0000
0000
0000
0000
FFFE
FFFE
FFFE
007E
00FC
01F8
03F0
07E0
0FC0
1F80
3F80
7F00
7E00
FFFF
FFFF
FFFF
FFFF
ENDCHAR
STARTCHAR 017D
ENCODING 381
SWIDTH 660 0
DWIDTH 22 0
BBX 20 31 1 0
BITMAP
0F0F00
079E00
03BC00
03F800
01F000
000000
000000
7FFFE0
7FFFE0
7FFFE0
7FFFE0
7FFFE0
000FE0
001FC0
003F80
007F00
00FE00
00FC00
01FC00
03F800
07F000
0FE000
1FC000
1F8000
3F0000
7F0000
FE0000
FFFFF0
FFFFF0
FFFFF0
FFFFF0
ENDCHAR
STARTCHAR 017E
ENCODING 382
SWIDTH 510 0
DWIDTH 17 0
BBX 16 24 1 0
BITMAP
3C78
1E70
0FE0
07E0
07C0
0000
0000
FFFE
FFFE
FFFE
007E
00FC
01F8
03F0
07E0
0FC0
1F80
3F80
7F00
7E00
FFFF
FFFF
FFFF
FFFF
ENDCHAR
STARTCHAR 017F
ENCODING 383
SWIDTH 330 0
DWIDTH 11 0
BBX 10 24 0 0
BITMAP
07C0
0FC0
1FC0
1FC0
1F00
1F00
FF00
FF00
FF00
FF00
1F00
1F00
1F00
1F00
1F00
1F00
1F00
1F00
1F00
1F00
1F00
1F00
1F00
1F00
ENDCHAR
STARTCHAR 0180
ENCODING 384
SWIDTH 600 0
DWIDTH 20 0
BBX 19 25 1 -1
BITMAP
3E0000
3E0000
FFF000
FFF000
3E0000
3E0000
3E7E00
3EFF00
3FFF80
3FFFC0
3F87C0
3F03E0
3E03E0
3E03E0
3E01E0
3E01E0
3E03E0
3E03E0
3E03E0
3F07E0
3FCFC0
3FFFC0
3FFF80
3EFF00
001800
ENDCHAR
STARTCHAR 0182
ENCODING 386
SWIDTH 660 0
DWIDTH 22 0
BBX 18 24 3 0
BITMAP
FFFF80
FFFF80
FFFF80
FFFF80
F80000
F80000
F80000
F80000
F80000
FFFC00
FFFF00
FFFF80
FFFF80
F80FC0
F807C0
F807C0
F807C0
F807C0
F80FC0
F81FC0
FFFF80
FFFF00
FFFE00
FFF800
ENDCHAR
STARTCHAR 0183
ENCODING 387
SWIDTH 600 0
DWIDTH 20 0
BBX 17 24 2 0
BITMAP
FFFE00
FFFE00
FFFE00
FFFE00
F80000
F80000
F9F800
FBFC00
FFFE00
FFFF00
FC1F00
F81F80
F80F80
F80F80
F00F80
F00F80
F80F80
F80F80
F80F80
FC1F00
FE3F00
FFFE00
FFFE00
FBF800
ENDCHAR
STARTCHAR 0186
ENCODING 390
SWIDTH 720 0
DWIDTH 24 0
BBX 22 25 1 -1
BITMAP
03FE00
0FFF80
1FFFC0
3FFFE0
3F07F0
7E01F8
7C01F8
7C00F8
0000F8
0000FC
00007C
00007C
00007C
00007C
0000FC
0000FC
FC00F8
7C00F8
7C01F8
7E03F0
3FFFE0
1FFFE0
0FFFC0
07FF00
007800
ENDCHAR
STARTCHAR 0189
ENCODING 393
SWIDTH 720 0
DWIDTH 24 0
BBX 23 24 0 0
BITMAP
1FFF00
1FFFC0
1FFFF0
1FFFF8
1E03F8
1E00FC
1E007C
1E007C
1E007E
FFF03E
FFF03E
FFF03E
FFF03E
1E003E
1E007E
1E007C
1E007C
1E00FC
1E00F8
1E03F8
1FFFF0
1FFFE0
1FFFC0
1FFF00
ENDCHAR
STARTCHAR 018B
ENCODING 395
SWIDTH 660 0
DWIDTH 22 0
BBX 18 24 3 0
BITMAP
FFFFC0
FFFFC0
FFFFC0
FFFFC0
0007C0
0007C0
0007C0
0007C0
0007C0
1FFFC0
3FFFC0
7FFFC0
FFFFC0
FC07C0
F807C0
F807C0
F007C0
F807C0
F807C0
FC07C0
FFFFC0
7FFFC0
3FFFC0
0FFFC0
ENDCHAR
STARTCHAR 018C
ENCODING 396
SWIDTH 600 0
DWIDTH 20 0
BBX 17 24 2 0
BITMAP
1FFF80
1FFF80
1FFF80
1FFF80
000F80
000F80
0FCF80
1FFF80
3FFF80
7FFF80
7E1F80
FC0F80
F80F80
F80F80
F80780
F80780
F80F80
F80F80
F80F80
7C1F80
7F3F80
3FFF80
3FF780
0FE780
ENDCHAR
STARTCHAR 018D
ENCODING 397
SWIDTH 570 0
DWIDTH 19 0
BBX 17 25 1 -1
BITMAP
03E000
0FF800
3FFC00
3FFE00
7C1F00
781F00
F80F80
F80F80
F80F80
F80F80
F80F80
780F80
7C1F00
3C3F00
3FFE00
1FFC00
0FF800
07C000
03E000
01F800
00FE00
3FFF00
3FFF00
3FFF00
3FFF00
ENDCHAR
STARTCHAR 018E
ENCODING 398
SWIDTH 660 0
DWIDTH 22 0
BBX 18 24 3 0
BITMAP
FFFFC0
FFFFC0
FFFFC0
FFFFC0
0007C0
0007C0
0007C0
0007C0
0007C0
7FFFC0
7FFFC0
7FFFC0
7FFFC0
7FFFC0
0007C0
0007C0
0007C0
0007C0
0007C0
0007C0
FFFFC0
FFFFC0
FFFFC0
FFFFC0
ENDCHAR
STARTCHAR 018F
ENCODING 399
SWIDTH 750 0
DWIDTH 25 0
BBX 23 25 1 -1
BITMAP
03FF00
07FF80
1FFFE0
3FFFF0
3F07F0
7E01F8
7C00FC
7C007C
00007C
00007C
00007E
FFFFFE
FFFFFE
FFFFFE
FFFFFC
7C007C
7C007C
7E00FC
7E01F8
3F83F8
1FFFF0
0FFFE0
07FFC0
03FF00
001800
ENDCHAR
STARTCHAR 0190
ENCODING 400
SWIDTH 570 0
DWIDTH 19 0
BBX 17 26 1 -1
BITMAP
03C000
1FF800
3FFC00
7FFE00
7C1E00
781F00
780F00
780000
780000
7C0000
3FC000
1FC000
3FC000
7FC000
FC0000
F80000
F00000
F00000
F00F80
F80F00
F80F00
7C1F00
7FFE00
3FFC00
1FF800
03E000
ENDCHAR
STARTCHAR 0191
ENCODING 401
SWIDTH 600 0
DWIDTH 20 0
BBX 20 31 0 -7
BITMAP
1FFFF0
1FFFF0
1FFFF0
1FFFF0
1F0000
1F0000
1F0000
1F0000
1F0000
1F0000
1FFFC0
1FFFC0
1FFFC0
1FFFC0
1F0000
1F0000
1F0000
1F0000
1F0000
1F0000
1F0000
1F0000
1F0000
1F0000
1E0000
1E0000
3E0000
FE0000
FE0000
FE0000
FC0000
ENDCHAR
STARTCHAR 0192
ENCODING 402
SWIDTH 570 0
DWIDTH 19 0
BBX 17 30 0 -6
BITMAP
003F80
007F80
007F80
00FC00
00F800
00F800
01F000
01F000
01F000
01F000
0FFE00
1FFE00
1FFE00
03E000
03E000
03E000
03C000
07C000
07C000
07C000
07C000
07C000
0F8000
0F8000
0F8000
1F8000
FF0000
FF0000
FE0000
F00000
ENDCHAR
STARTCHAR 0196
ENCODING 406
SWIDTH 270 0
DWIDTH 9 0
BBX 7 25 1 -1
BITMAP
F8
F8
F8
F8
F8
F8
F8
F8
F8
F8
F8
F8
F8
F8
F8
F8
F8
F8
F8
F8
F8
7E
7E
7E
1E
ENDCHAR
STARTCHAR 0197
ENCODING 407
SWIDTH 390 0
DWIDTH 13 0
BBX 11 24 1 0
BITMAP
1F00
1F00
1F00
1F00
1F00
1F00
1F00
1F00
FFE0
FFE0
1F00
1F00
1F00
1F00
1F00
1F00
1F00
1F00
1F00
1F00
1F00
1F00
1F00
1F00
ENDCHAR
STARTCHAR 019A
ENCODING 410
SWIDTH 390 0
DWIDTH 13 0
BBX 11 24 1 0
BITMAP
1F00
1F00
1F00
1F00
1F00
1F00
1F00
1F00
FFE0
FFE0
1F00
1F00
1F00
1F00
1F00
1F00
1F00
1F00
1F00
1F00
1F00
1F00
1F00
1F00
ENDCHAR
STARTCHAR 019B
ENCODING 411
SWIDTH 540 0
DWIDTH 18 0
BBX 17 24 1 0
BITMAP
1F0000
1F0000
0F8C00
0FFC00
0FFC00
FFC000
FFC000
C3E000
07E000
07E000
07F000
0FF000
0FF000
0FF800
1F7800
1F7C00
1E7C00
3E3C00
3E3E00
7C3E00
7C3E00
7C1F00
F81F00
F81F80
ENDCHAR
STARTCHAR 019D
ENCODING 413
SWIDTH 720 0
DWIDTH 24 0
BBX 22 31 0 -7
BITMAP
3F007C
3F807C
3F807C
3FC07C
3FC07C
3FE07C
3FE07C
3FF07C
3EF87C
3E787C
3E7C7C
3E3C7C
3E3E7C
3E1E7C
3E1F7C
3E0FFC
3E07FC
3E07FC
3E03FC
3E03FC
3E01FC
3E01FC
3E00FC
3E007C
3E0000
3E0000
3E0000
FE0000
FE0000
FC0000
F80000
ENDCHAR
STARTCHAR 019E
ENCODING 414
SWIDTH 600 0
DWIDTH 20 0
BBX 16 25 2 -7
BITMAP
F9F8
FBFE
FFFE
FFFF
FC1F
F81F
F81F
F81F
F81F
F81F
F81F
F81F
F81F
F81F
F81F
F81F
F81F
F81F
001F
001F
001F
001F
001F
001F
001F
ENDCHAR
STARTCHAR 019F
ENCODING 415
SWIDTH 780 0
DWIDTH 26 0
BBX 23 26 2 -1
BITMAP
00FC00
07FF80
0FFFC0
1FFFE0
3FFFF0
7F01F8
7E00F8
FC00FC
F8007C
F8007C
F8007C
FFFFFE
FFFFFE
FFFFFE
FFFFFE
F8007C
F8007C
F8007C
FC00FC
7E00F8
7F03F8
3FFFF0
1FFFE0
0FFFC0
03FF80
007C00
ENDCHAR
STARTCHAR 01A0
ENCODING 416
SWIDTH 960 0
DWIDTH 32 0
BBX 29 26 2 -1
BITMAP
00000020
01FF80F0
07FFE1F8
0FFFF1F8
1FFFF8F8
3FC1FFE0
3F00FF80
7E007E00
7C003E00
7C003F00
FC003F00
FC001F00
FC001F00
F8001F00
FC001F00
FC001F00
7C003F00
7C003E00
7E007E00
3F007E00
3F81FC00
1FFFF800
0FFFF000
07FFE000
01FF8000
00180000
ENDCHAR
STARTCHAR 01A1
ENCODING 417
SWIDTH 810 0
DWIDTH 27 0
BBX 24 20 2 0
BITMAP
000004
00001E
01E03E
0FFC3F
1FFE1F
3FFFFC
7E1FF8
7C0FC0
F807C0
F807C0
F807C0
F807C0
F807C0
F807C0
F807C0
7C0F80
7E1F80
3FFF00
1FFE00
07F800
ENDCHAR
STARTCHAR 01A2
ENCODING 418
SWIDTH 930 0
DWIDTH 31 0
BBX 27 30 1 -6
BITMAP
01FFFFE0
07FFFFE0
0FFFFFE0
1FFFFFE0
3F83FFE0
3F03E3E0
7E03E3E0
7C03E3E0
7C03E3E0
FC03E3E0
FC03E3E0
FC03E3E0
F803E3E0
FC03E3E0
FC03E3E0
7C03E3E0
7C03E3E0
7E03E3E0
3F03E3E0
3F83E3E0
1FFFE3E0
0FFFE3E0
07FFE3E0
01FF83E0
003803E0
000003E0
000003E0
000003E0
000003E0
000003E0
ENDCHAR
STARTCHAR 01A3
ENCODING 419
SWIDTH 750 0
DWIDTH 25 0
BBX 23 24 1 -6
BITMAP
01E000
0FFFFE
1FFFFE
3FFFFE
7E1F3E
7C1F3E
781F3E
F81F3E
F81F3E
F81F3E
F81F3E
F81F3E
7C1F3E
7C1F3E
3E1F3E
3FFF3E
1FFE3E
07FC3E
00003E
00003E
00003E
00003E
00003E
00003E
ENDCHAR
STARTCHAR 01A6
ENCODING 422
SWIDTH 660 0
DWIDTH 22 0
BBX 20 27 1 -3
BITMAP
F80000
F80000
F80000
FFFC00
FFFF80
FFFFC0
FFFFE0
F81FE0
F803E0
F803F0
F801F0
F803E0
F803E0
F807E0
FFFFC0
FFFF80
FFFF80
FFFFC0
F807E0
F803E0
F803E0
F803E0
F803E0
F803E0
0003E0
0003E0
0003F0
ENDCHAR
STARTCHAR 01A7
ENCODING 423
SWIDTH 660 0
DWIDTH 22 0
BBX 20 26 1 -1
BITMAP
00F800
07FF00
0FFF80
1FFFC0
3FDFE0
3E03E0
7C01F0
7C01F0
0001F0
0003F0
003FE0
03FFE0
1FFFC0
3FFF00
7FFC00
7F8000
FC0000
F80000
F801F0
7801F0
7C03F0
7F9FE0
3FFFC0
1FFF80
0FFF00
00F000
ENDCHAR
STARTCHAR 01A8
ENCODING 424
SWIDTH 570 0
DWIDTH 19 0
BBX 16 19 1 -1
BITMAP
0FF0
3FFC
3FFE
7E3E
7C1F
781F
007F
07FE
3FFE
7FFC
7FE0
FF00
F80F
F81F
F83F
7FFE
3FFE
1FF8
03C0
ENDCHAR
STARTCHAR 01A9
ENCODING 425
SWIDTH 600 0
DWIDTH 20 0
BBX 18 24 1 0
BITMAP
FFFFC0
FFFFC0
FFFFC0
FFFFC0
7FFFC0
3F0000
1F8000
0FC000
07E000
03F000
01F800
00FC00
00FC00
01F800
03F000
07E000
0FC000
1F8000
3F0000
7E0000
FFFFC0
FFFFC0
FFFFC0
FFFFC0
ENDCHAR
STARTCHAR 01AE
ENCODING 430
SWIDTH 600 0
DWIDTH 20 0
BBX 19 31 1 -7
BITMAP
FFFFE0
FFFFE0
FFFFE0
FFFFE0
01F000
01F000
01F000
01F000
01F000
01F000
01F000
01F000
01F000
01F000
01F000
01F000
01F000
01F000
01F000
01F000
01F000
01F000
01F000
01F000
01F000
01F000
01F000
07F000
07E000
07E000
07C000
ENDCHAR
STARTCHAR 01AF
ENCODING 431
SWIDTH 930 0
DWIDTH 31 0
BBX 27 26 2 -1
BITMAP
000000C0
F801F3C0
F801F7E0
F801F3E0
F801F3E0
F801FFC0
F801FF00
F801F000
F801F000
F801F000
F801F000
F801F000
F801F000
F801F000
F801F000
F801F000
F801F000
FC03F000
FC03F000
7C03E000
7E07E000
7FFFE000
3FFFC000
1FFF8000
07FE0000
00700000
ENDCHAR
STARTCHAR 01B0
ENCODING 432
SWIDTH 810 0
DWIDTH 27 0
BBX 25 20 2 1
BITMAP
00000E00
00003F00
00001F00
F80F9F80
F80FBE00
F80FF800
F80FE000
F80F8000
F80F8000
F80F8000
F80F8000
F80F8000
F80F8000
F80F8000
F80F8000
7C1F8000
7E3F8000
7FFF8000
3FEF8000
1FCF8000
ENDCHAR
STARTCHAR 01B1
ENCODING 433
SWIDTH 780 0
DWIDTH 26 0
BBX 23 24 1 0
BITMAP
FFC3FE
FFC3FE
FFC3FE
FFC3FE
07C3E0
0F81F0
1F00F8
3E00F8
3E007C
3E007C
7E007C
7E007C
7C007C
7E007C
7E007C
3E007C
3E00FC
3F00FC
1F81F8
1FEFF8
0FFFF0
07FFE0
03FFC0
007F00
ENDCHAR
STARTCHAR 01B5
ENCODING 437
SWIDTH 660 0
DWIDTH 22 0
BBX 20 24 1 0
BITMAP
7FFFE0
7FFFE0
7FFFE0
7FFFE0
7FFFE0
000FE0
001FC0
003F80
007F00
007E00
3FFFC0
3FFFC0
3FFFC0
3FFFC0
0FE000
1FC000
1F8000
3F0000
7E0000
FC0000
FFFFF0
FFFFF0
FFFFF0
FFFFF0
ENDCHAR
STARTCHAR 01B6
ENCODING 438
SWIDTH 510 0
DWIDTH 17 0
BBX 16 17 1 0
BITMAP
FFFE
FFFE
FFFE
007E
00FC
01F8
03F0
3FFC
3FFC
3FFC
3F00
7E00
7E00
FFFF
FFFF
FFFF
FFFF
ENDCHAR
STARTCHAR 01B7
ENCODING 439
SWIDTH 600 0
DWIDTH 20 0
BBX 18 24 1 0
BITMAP
FFFFC0
FFFFC0
FFFFC0
FFFFC0
001F80
003F00
007E00
00FC00
01F800
03FC00
07FE00
0FFF80
000F80
000780
0007C0
0007C0
0007C0
F807C0
F80FC0
F81F80
7FFF80
3FFF00
1FFE00
0FF800
ENDCHAR
STARTCHAR 01B8
ENCODING 440
SWIDTH 600 0
DWIDTH 20 0
BBX 18 24 1 0
BITMAP
FFFFC0
FFFFC0
FFFFC0
FFFFC0
7E0000
3F0000
1F8000
0FC000
07E000
0FF000
3FF800
7FFC00
7C0000
F80000
F80000
F80000
F80000
F807C0
FC07C0
7E07C0
7FFF80
3FFF00
1FFE00
07FC00
ENDCHAR
STARTCHAR 01B9
ENCODING 441
SWIDTH 540 0
DWIDTH 18 0
BBX 16 25 1 -7
BITMAP
FFFF
FFFF
FFFF
FFFF
FFFF
7E00
3F00
1F80
0FC0
0FC0
1FE0
3FF0
7F00
7800
F800
F800
F800
F800
F80F
FC1F
7C1F
7FFE
3FFE
1FFC
07F8
ENDCHAR
STARTCHAR 01BB
ENCODING 443
SWIDTH 600 0
DWIDTH 20 0
BBX 18 24 1 0
BITMAP
03C000
0FF800
1FFC00
3FFE00
7E3F00
7C1F00
781F00
780F00
780F00
001F00
001F00
7FFFC0
7FFFC0
7FFFC0
03F800
07F000
1FC000
3F8000
3E0000
7C0000
7FFF00
7FFF00
FFFF00
FFFF00
ENDCHAR
STARTCHAR 01C0
ENCODING 448
SWIDTH 270 0
DWIDTH 9 0
BBX 4 24 3 0
BITMAP
F0
F0
F0
F0
F0
F0
F0
F0
F0
F0
F0
F0
F0
F0
F0
F0
F0
F0
F0
F0
F0
F0
F0
F0
ENDCHAR
STARTCHAR 01C1
ENCODING 449
SWIDTH 540 0
DWIDTH 18 0
BBX 12 24 3 0
BITMAP
F0F0
F0F0
F0F0
F0F0
F0F0
F0F0
F0F0
F0F0
F0F0
F0F0
F0F0
F0F0
F0F0
F0F0
F0F0
F0F0
F0F0
F0F0
F0F0
F0F0
F0F0
F0F0
F0F0
F0F0
ENDCHAR
STARTCHAR 01C2
ENCODING 450
SWIDTH 570 0
DWIDTH 19 0
BBX 18 24 0 0
BITMAP
01E000
01E000
01E000
01E000
01E000
01E000
01E000
FFFFC0
FFFFC0
FFFFC0
FFFFC0
01E000
01E000
01E000
FFFFC0
FFFFC0
FFFFC0
FFFFC0
FFFFC0
01E000
01E000
01E000
01E000
01E000
ENDCHAR
STARTCHAR 01C3
ENCODING 451
SWIDTH 330 0
DWIDTH 11 0
BBX 5 24 4 0
BITMAP
F8
F8
F8
F8
F8
F8
F8
F8
F0
F0
F0
F0
F0
70
70
70
70
00
00
F8
F8
F8
F8
F8
ENDCHAR
STARTCHAR 01C4
ENCODING 452
SWIDTH 1230 0
DWIDTH 41 0
BBX 39 30 1 0
BITMAP
000000F0E0
00000079E0
0000003FC0
0000001F80
0000001F00
0000000000
FFFC07FFFE
FFFF07FFFE
FFFF87FFFE
FFFFC7FFFE
F80FE0007E
F803E000FC
F803F001F8
F801F001F8
F801F003F0
F801F007E0
F801F00FC0
F801F01F80
F801F01F80
F801F03F00
F801F07E00
F801F0FC00
F801F1F800
F803E1F800
F807E3F000
F80FE7E000
FFFFC7FFFE
FFFF87FFFE
FFFF07FFFE
FFFC07FFFE
ENDCHAR
STARTCHAR 01C5
ENCODING 453
SWIDTH 1140 0
DWIDTH 38 0
BBX 36 24 1 0
BITMAP
FFFC01C3C0
FFFF01E780
FFFFC0FF00
FFFFC07E00
F80FE03C00
F803F00000
F801F7FFF0
F801F7FFF0
F801F7FFF0
F801FFFFF0
F800F807E0
F800F807E0
F800F80FC0
F801F81F80
F801F03F00
F801F07E00
F801F0FC00
F803F1F800
F807E3F000
F80FE3E000
FFFFC7FFF0
FFFF87FFF0
FFFF07FFF0
FFFC07FFF0
ENDCHAR
STARTCHAR 01C6
ENCODING 454
SWIDTH 1050 0
DWIDTH 35 0
BBX 34 25 1 -1
BITMAP
00078F0E00
0007879E00
000783FC00
000781F800
000780F000
0007800000
0FC79FFF80
1FF79FFF80
3FFF9FFF80
7FFF9FFF80
7E1F801F80
7C0F803F00
F80F807E00
F80780FC00
F80780FC00
F80781F800
F80783F000
F80F87E000
F80F8FC000
7C1F9F8000
7F3FBFFFC0
3FFFBFFFC0
3FF7BFFFC0
0FE7BFFFC0
0380000000
ENDCHAR
STARTCHAR 01C7
ENCODING 455
SWIDTH 1050 0
DWIDTH 35 0
BBX 32 24 2 0
BITMAP
F800001F
F800001F
F800001F
F800001F
F800001F
F800001F
F800001F
F800001F
F800001F
F800001F
F800001F
F800001F
F800001F
F800001F
F800001F
F8007C1F
F8007C1F
F8007C1F
F8007C1F
F8007E3F
FFFFBFFF
FFFFBFFE
FFFF9FFC
FFFF87F8
ENDCHAR
STARTCHAR 01C8
ENCODING 456
SWIDTH 840 0
DWIDTH 28 0
BBX 24 31 2 -7
BITMAP
F8000F
F8000F
F8000F
F8000F
F80000
F80000
F8000F
F8000F
F8000F
F8000F
F8000F
F8000F
F8000F
F8000F
F8000F
F8000F
F8000F
F8000F
F8000F
F8000F
FFFF8F
FFFF8F
FFFF8F
FFFF8F
00000F
00000F
00000F
00003F
00003F
00003F
00003E
ENDCHAR
STARTCHAR 01C9
ENCODING 457
SWIDTH 510 0
DWIDTH 17 0
BBX 14 31 2 -7
BITMAP
F83C
F83C
F83C
F83C
F800
F800
F83C
F83C
F83C
F83C
F83C
F83C
F83C
F83C
F83C
F83C
F83C
F83C
F83C
F83C
F83C
F83C
F83C
F83C
003C
003C
003C
01FC
01FC
01F8
01F0
ENDCHAR
STARTCHAR 01CA
ENCODING 458
SWIDTH 1170 0
DWIDTH 39 0
BBX 35 24 2 0
BITMAP
F803E003E0
FC03E003E0
FC03E003E0
FE03E003E0
FE03E003E0
FF03E003E0
FF83E003E0
F783E003E0
F7C3E003E0
F3C3E003E0
F3E3E003E0
F1E3E003E0
F1F3E003E0
F0FBE003E0
F07BE003E0
F07FEF83E0
F03FEF83E0
F03FEF83E0
F01FEF83E0
F01FE7C3E0
F00FE7FFE0
F007E7FFC0
F007E3FFC0
F003E1FF00
ENDCHAR
STARTCHAR 01CB
ENCODING 459
SWIDTH 900 0
DWIDTH 30 0
BBX 27 31 2 -7
BITMAP
F803E3E0
FC03E3E0
FC03E3E0
FE03E3E0
FE03E000
FF03E000
FF83E3E0
F783E3E0
F7C3E3E0
F3C3E3E0
F3E3E3E0
F1E3E3E0
F0F3E3E0
F0FBE3E0
F07BE3E0
F07FE3E0
F03FE3E0
F03FE3E0
F01FE3E0
F00FE3E0
F00FE3E0
F007E3E0
F007E3E0
F003E3E0
000003E0
000003E0
000003E0
00000FE0
00000FC0
00000FC0
00000F80
ENDCHAR
STARTCHAR 01CC
ENCODING 460
SWIDTH 810 0
DWIDTH 27 0
BBX 24 31 1 -7
BITMAP
00001F
00001F
00001F
00001F
000000
000000
F9F81F
FBFE1F
FFFF1F
FFFF1F
FC1F1F
FC0F9F
F80F9F
F80F9F
F80F9F
F80F9F
F80F9F
F80F9F
F80F9F
F80F9F
F80F9F
F80F9F
F80F9F
F80F9F
00001F
00001F
00001F
00007F
00007F
00007E
00007C
ENDCHAR
STARTCHAR 01CD
ENCODING 461
SWIDTH 720 0
DWIDTH 24 0
BBX 22 31 1 0
BITMAP
03C780
01CF00
01FE00
00FC00
007800
000000
000000
00FC00
00FE00
01FE00
01FE00
01FF00
03FF00
03FF00
03EF80
07CF80
07CF80
07C7C0
0F87C0
0F87C0
0F83E0
1F03E0
1FFFF0
1FFFF0
3FFFF0
3FFFF8
7E00F8
7C00F8
7C00FC
FC007C
F8007C
ENDCHAR
STARTCHAR 01CE
ENCODING 462
SWIDTH 570 0
DWIDTH 19 0
BBX 17 26 1 -1
BITMAP
1E3C00
0F7800
07F000
07E000
03C000
000000
000000
0FF000
3FFC00
3FFE00
7FFE00
7C1F00
781F00
003F00
03FF00
1FFF00
7FFF00
7E1F00
F81F00
F81F00
F83F00
F87F00
FFFF00
7FFF00
3F9F80
0E0000
ENDCHAR
STARTCHAR 01CF
ENCODING 463
SWIDTH 270 0
DWIDTH 9 0
BBX 11 31 -1 0
BITMAP
F1E0
7BC0
3F80
1F80
0000
0000
0000
1F00
1F00
1F00
1F00
1F00
1F00
1F00
1F00
1F00
1F00
1F00
1F00
1F00
1F00
1F00
1F00
1F00
1F00
1F00
1F00
1F00
1F00
1F00
1F00
ENDCHAR
STARTCHAR 01D0
ENCODING 464
SWIDTH 270 0
DWIDTH 9 0
BBX 11 25 -1 0
BITMAP
F1E0
79C0
3FC0
1F80
1F00
0000
0000
1F00
1F00
1F00
1F00
1F00
1F00
1F00
1F00
1F00
1F00
1F00
1F00
1F00
1F00
1F00
1F00
1F00
1F00
ENDCHAR
STARTCHAR 01D1
ENCODING 465
SWIDTH 780 0
DWIDTH 26 0
BBX 23 33 2 -1
BITMAP
03C780
01CF00
01FE00
00FC00
007800
000000
000000
00FC00
07FF80
0FFFC0
1FFFE0
3FFFF0
7F01F8
7E00F8
FC00FC
F8007C
F8007C
F8007C
F8003E
F8003E
F8003E
F8003E
F8007C
F8007C
F8007C
FC00FC
7E00F8
7F03F8
3FFFF0
1FFFE0
0FFFC0
03FF80
007C00
ENDCHAR
STARTCHAR 01D2
ENCODING 466
SWIDTH 600 0
DWIDTH 20 0
BBX 18 27 1 -1
BITMAP
1E1E00
0F3C00
07B800
03F800
01F000
000000
000000
000000
07F800
1FFE00
3FFF00
3FFF80
7E0F80
7C07C0
F807C0
F807C0
F807C0
F807C0
F807C0
F807C0
7C07C0
7C0F80
7F1F80
3FFF00
1FFE00
0FFC00
01E000
ENDCHAR
STARTCHAR 01D3
ENCODING 467
SWIDTH 720 0
DWIDTH 24 0
BBX 19 32 3 -1
BITMAP
0F3C00
073800
07F800
03F000
000000
000000
000000
F803E0
F803E0
F803E0
F803E0
F803E0
F803E0
F803E0
F803E0
F803E0
F803E0
F803E0
F803E0
F803E0
F803E0
F803E0
F803E0
F803E0
F807E0
F807C0
FC0FC0
7FFFC0
7FFF80
3FFF00
0FFE00
01E000
ENDCHAR
STARTCHAR 01D4
ENCODING 468
SWIDTH 600 0
DWIDTH 20 0
BBX 16 25 2 0
BITMAP
3C3C
1E78
0FF0
07E0
03E0
0000
0000
F81F
F81F
F81F
F81F
F81F
F81F
F81F
F81F
F81F
F81F
F81F
F81F
F81F
F83F
FEFF
7FFF
7FEF
3FCF
ENDCHAR
STARTCHAR 01D5
ENCODING 469
SWIDTH 720 0
DWIDTH 24 0
BBX 19 37 3 -1
BITMAP
1FFE00
1FFE00
1FFE00
000000
000000
0F1E00
0F1E00
0F1E00
0F1E00
000000
000000
000000
F803E0
F803E0
F803E0
F803E0
F803E0
F803E0
F803E0
F803E0
F803E0
F803E0
F803E0
F803E0
F803E0
F803E0
F803E0
F803E0
F803E0
F807E0
F807C0
FC0FC0
7FFFC0
7FFF80
3FFF00
0FFE00
01E000
ENDCHAR
STARTCHAR 01D6
ENCODING 470
SWIDTH 600 0
DWIDTH 20 0
BBX 16 29 2 0
BITMAP
3FFC
3FFC
3FFC
0000
0000
1E7C
1E7C
1E7C
1E7C
0000
0000
F81F
F81F
F81F
F81F
F81F
F81F
F81F
F81F
F81F
F81F
F81F
F81F
F81F
F83F
FEFF
7FFF
7FEF
3FCF
ENDCHAR
STARTCHAR 01D7
ENCODING 471
SWIDTH 720 0
DWIDTH 24 0
BBX 19 37 3 -1
BITMAP
003E00
007C00
00F800
00F000
01E000
000000
0F3E00
0F3E00
0F3E00
0F3E00
000000
000000
F803E0
F803E0
F803E0
F803E0
F803E0
F803E0
F803E0
F803E0
F803E0
F803E0
F803E0
F803E0
F803E0
F803E0
F803E0
F803E0
F803E0
F807E0
F807C0
FC0FC0
7FFFC0
7FFF80
3FFF00
0FFE00
01E000
ENDCHAR
STARTCHAR 01D8
ENCODING 472
SWIDTH 600 0
DWIDTH 20 0
BBX 16 31 2 0
BITMAP
007C
00F8
01F0
01E0
03C0
0000
0000
1E78
1E78
1E78
1E78
0000
0000
F81F
F81F
F81F
F81F
F81F
F81F
F81F
F81F
F81F
F81F
F81F
F81F
F81F
F83F
FEFF
7FFF
7FEF
3FCF
ENDCHAR
STARTCHAR 01D9
ENCODING 473
SWIDTH 720 0
DWIDTH 24 0
BBX 19 39 3 -1
BITMAP
1E1E00
0F3C00
07F800
03F000
03F000
000000
000000
0F3E00
0F3E00
0F3E00
0F3E00
000000
000000
000000
F803E0
F803E0
F803E0
F803E0
F803E0
F803E0
F803E0
F803E0
F803E0
F803E0
F803E0
F803E0
F803E0
F803E0
F803E0
F803E0
F803E0
F807E0
F807C0
FC0FC0
7FFFC0
7FFF80
3FFF00
0FFE00
01E000
ENDCHAR
STARTCHAR 01DA
ENCODING 474
SWIDTH 600 0
DWIDTH 20 0
BBX 16 31 2 0
BITMAP
3C3C
1E78
0FF0
07E0
03E0
0000
0000
1E78
1E78
1E78
1E78
0000
0000
F81F
F81F
F81F
F81F
F81F
F81F
F81F
F81F
F81F
F81F
F81F
F81F
F81F
F83F
FEFF
7FFF
7FEF
3FCF
ENDCHAR
STARTCHAR 01DB
ENCODING 475
SWIDTH 720 0
DWIDTH 24 0
BBX 19 38 3 -1
BITMAP
1F0000
0F8000
078000
03C000
01E000
000000
000000
0F3E00
0F3E00
0F3E00
0F3E00
000000
000000
F803E0
F803E0
F803E0
F803E0
F803E0
F803E0
F803E0
F803E0
F803E0
F803E0
F803E0
F803E0
F803E0
F803E0
F803E0
F803E0
F803E0
F807E0
F807C0
FC0FC0
7FFFC0
7FFF80
3FFF00
0FFE00
01E000
ENDCHAR
STARTCHAR 01DC
ENCODING 476
SWIDTH 600 0
DWIDTH 20 0
BBX 16 30 2 0
BITMAP
3F00
0F00
0780
03C0
0000
0000
1E3C
1E3C
1E3C
1E3C
0000
0000
F81F
F81F
F81F
F81F
F81F
F81F
F81F
F81F
F81F
F81F
F81F
F81F
F81F
F83F
FEFF
7FFF
7FEF
3FCF
ENDCHAR
STARTCHAR 01DD
ENCODING 477
SWIDTH 570 0
DWIDTH 19 0
BBX 17 19 1 -1
BITMAP
0FF000
1FF800
3FFC00
7FFE00
F81F00
F81F00
000F00
000F80
FFFF80
FFFF80
FFFF80
F80F00
F81F00
F81F00
7E3E00
7FFE00
3FFC00
0FF800
01C000
ENDCHAR
STARTCHAR 01DE
ENCODING 478
SWIDTH 720 0
DWIDTH 24 0
BBX 22 36 1 0
BITMAP
07FF80
07FF80
07FF80
000000
000000
03C780
03C780
03C780
03C780
000000
000000
000000
00FC00
00FE00
01FE00
01FE00
01FF00
03FF00
03FF00
03EF80
07CF80
07CF80
07C7C0
0F87C0
0F87C0
0F83E0
1F03E0
1FFFF0
1FFFF0
3FFFF0
3FFFF8
7E00F8
7C00F8
7C00FC
FC007C
F8007C
ENDCHAR
STARTCHAR 01DF
ENCODING 479
SWIDTH 570 0
DWIDTH 19 0
BBX 17 30 1 -1
BITMAP
1FFC00
1FFC00
000000
000000
1E3C00
1E3C00
1E3C00
1E3C00
000000
000000
000000
0FF000
3FFC00
3FFE00
7FFE00
7C1F00
781F00
003F00
03FF00
1FFF00
7FFF00
7E1F00
F81F00
F81F00
F83F00
F87F00
FFFF00
7FFF00
3F9F80
0E0000
ENDCHAR
STARTCHAR 01E0
ENCODING 480
SWIDTH 720 0
DWIDTH 24 0
BBX 22 36 1 0
BITMAP
07FF80
07FF80
07FF80
000000
000000
007800
007800
007800
007800
000000
000000
000000
00FC00
00FE00
01FE00
01FE00
01FF00
03FF00
03FF00
03EF80
07CF80
07CF80
07C7C0
0F87C0
0F87C0
0F83E0
1F03E0
1FFFF0
1FFFF0
3FFFF0
3FFFF8
7E00F8
7C00F8
7C00FC
FC007C
F8007C
ENDCHAR
STARTCHAR 01E1
ENCODING 481
SWIDTH 570 0
DWIDTH 19 0
BBX 17 30 1 -1
BITMAP
3FFC00
3FFC00
000000
000000
000000
03C000
03C000
03C000
000000
000000
000000
0FF000
3FFC00
3FFE00
7FFE00
7C1F00
781F00
003F00
03FF00
1FFF00
7FFF00
7E1F00
F81F00
F81F00
F83F00
F87F00
FFFF00
7FFF00
3F9F80
0E0000
ENDCHAR
STARTCHAR 01E2
ENCODING 482
SWIDTH 990 0
DWIDTH 33 0
BBX 32 30 0 0
BITMAP
0007FF80
0007FF80
0007FF80
00000000
00000000
00000000
007FFFFF
007FFFFF
00FFFFFF
00FFFFFF
01F3E000
01F3E000
01E3E000
03E3E000
03E3E000
03C3FFFC
07C3FFFC
07C3FFFC
0F83FFFC
0F83FFFC
0F83E000
1FFFE000
1FFFE000
1FFFE000
3FFFE000
3E03E000
3E03FFFF
7C03FFFF
7C03FFFF
FC03FFFF
ENDCHAR
STARTCHAR 01E3
ENCODING 483
SWIDTH 900 0
DWIDTH 30 0
BBX 27 25 1 -1
BITMAP
00FFF000
00FFF000
00FFF000
00000000
00000000
00000000
0FF0FE00
1FFFFF80
3FFFFF80
7FFFFFC0
7C1F03E0
781F03E0
001F01E0
01FFFFE0
1FFFFFE0
7FFFFFE0
FF1E0000
F81E0000
F81F0000
F81F03E0
F83F87E0
FFFFFFC0
7FF3FF80
3FE1FF00
07003800
ENDCHAR
STARTCHAR 01E4
ENCODING 484
SWIDTH 840 0
DWIDTH 28 0
BBX 26 26 1 -1
BITMAP
00380000
03FF8000
07FFE000
1FFFF000
1FFFF800
3F01F800
7E00FC00
7C007C00
FC007C00
F8000000
F8000000
F8000000
F80FFC00
F80FFC00
F80FFC00
F80FFC00
F8003C00
FC0FFFC0
7C0FFFC0
7E0FFFC0
3F01FC00
3FFFFC00
1FFFFC00
0FFF9C00
03FF1C00
00780000
ENDCHAR
STARTCHAR 01E5
ENCODING 485
SWIDTH 690 0
DWIDTH 23 0
BBX 21 25 1 -7
BITMAP
0FC780
1FF780
3FF780
7FFF80
7E1F80
FC0F80
F80F80
F80F80
F8FFF8
F8FFF8
F8FFF8
F80F80
FC0F80
7C1F80
7FFF80
3FFF80
1FFF80
0FCF80
000F80
000F80
FC0F80
7E3F00
7FFF00
3FFE00
0FF800
ENDCHAR
STARTCHAR 01E6
ENCODING 486
SWIDTH 780 0
DWIDTH 26 0
BBX 23 33 1 -1
BITMAP
03C3C0
01E780
00F700
007F00
007E00
000000
000000
003C00
01FF80
07FFE0
0FFFF0
1FFFF8
3F80FC
3F007C
7E007C
7C003E
7C0000
7C0000
FC0000
FC07FE
F807FE
FC07FE
7C07FE
7C003E
7C003E
7E007E
3E007E
3F81FE
1FFFFE
0FFFDE
07FF9E
03FF1E
003800
ENDCHAR
STARTCHAR 01E7
ENCODING 487
SWIDTH 600 0
DWIDTH 20 0
BBX 17 33 1 -7
BITMAP
3C3800
1C7800
1EF000
0FE000
07C000
000000
000000
000000
0FC780
1FF780
3FFF80
7FFF80
7E1F80
7C0F80
F80F80
F80780
F80780
F80780
F80780
F80F80
FC0F80
7E1F80
7FFF80
3FF780
1FF780
0FC780
000F80
000F80
7C0F80
7E3F00
7FFF00
3FFE00
0FF800
ENDCHAR
STARTCHAR 01E8
ENCODING 488
SWIDTH 720 0
DWIDTH 24 0
BBX 20 31 3 0
BITMAP
1E1E00
0F3C00
07F800
03F000
03F000
000000
000000
F807F0
F80FE0
F81FC0
F81F80
F83F00
F87E00
F8FC00
F9F800
FBF000
FFE000
FFE000
FFF000
FFF000
FFF800
FCFC00
F8FE00
F87E00
F83F00
F83F80
F81F80
F80FC0
F807E0
F807F0
F803F0
ENDCHAR
STARTCHAR 01E9
ENCODING 489
SWIDTH 570 0
DWIDTH 19 0
BBX 16 30 2 0
BITMAP
1E1C
0F3C
07F8
03F0
01E0
0000
F800
F800
F800
F800
F800
F800
F83F
F87E
F87C
F8F8
F9F0
FBE0
FFE0
FFC0
FFE0
FFE0
FFF0
FDF8
F8F8
F8FC
F87C
F87E
F83F
F81F
ENDCHAR
STARTCHAR 01EA
ENCODING 490
SWIDTH 780 0
DWIDTH 26 0
BBX 23 33 2 -8
BITMAP
00FC00
07FF80
0FFFC0
1FFFE0
3FFFF0
7F01F8
7E00F8
FC00FC
F8007C
F8007C
F8007C
F8003E
F8003E
F8003E
F8003E
F8007C
F8007C
F8007C
FC00FC
7E00F8
7F03F8
3FFFF0
1FFFE0
0FFFC0
03FF80
007C00
007800
00E000
00E000
01E000
01FC00
00FC00
007C00
ENDCHAR
STARTCHAR 01EB
ENCODING 491
SWIDTH 600 0
DWIDTH 20 0
BBX 18 26 1 -8
BITMAP
07F800
1FFE00
3FFF00
3FFF80
7E0F80
7C07C0
F807C0
F807C0
F807C0
F807C0
F807C0
F807C0
7C07C0
7C0F80
7F1F80
3FFF00
1FFE00
0FFC00
01E000
01C000
078000
070000
0F0000
0FA000
07E000
03E000
ENDCHAR
STARTCHAR 01EC
ENCODING 492
SWIDTH 780 0
DWIDTH 26 0
BBX 23 38 2 -8
BITMAP
07FF80
07FF80
07FF80
000000
000000
00FC00
07FF80
0FFFC0
1FFFE0
3FFFF0
7F01F8
7E00F8
FC00FC
F8007C
F8007C
F8007C
F8003E
F8003E
F8003E
F8003E
F8007C
F8007C
F8007C
FC00FC
7E00F8
7F03F8
3FFFF0
1FFFE0
0FFFC0
03FF80
007C00
007000
00E000
01E000
01E000
01FC00
00FC00
007C00
ENDCHAR
STARTCHAR 01ED
ENCODING 493
SWIDTH 600 0
DWIDTH 20 0
BBX 18 31 1 -8
BITMAP
1FFE00
1FFE00
000000
000000
000000
07F800
1FFE00
3FFF00
3FFF80
7E0F80
7C07C0
F807C0
F807C0
F807C0
F807C0
F807C0
F807C0
7C07C0
7C0F80
7F1F80
3FFF00
1FFE00
0FFC00
01E000
01C000
038000
070000
078000
07F000
07F000
01F000
ENDCHAR
STARTCHAR 01EE
ENCODING 494
SWIDTH 570 0
DWIDTH 19 0
BBX 18 31 1 0
BITMAP
0F3C00
073800
07F800
03F000
000000
000000
000000
FFFFC0
FFFFC0
FFFFC0
FFFFC0
001F80
003F00
007E00
00FC00
01F800
03FC00
07FE00
0FFF00
001F80
000F80
000F80
000780
000780
F00F80
F80F80
F81F80
7FFF80
7FFF00
3FFC00
0FF000
ENDCHAR
STARTCHAR 01EF
ENCODING 495
SWIDTH 540 0
DWIDTH 18 0
BBX 16 32 1 -7
BITMAP
1E3C
0E78
0FF0
07E0
03E0
0000
0000
FFFF
FFFF
FFFF
FFFF
FFFF
007E
00FC
01F8
03F0
03F0
07F8
0FFC
00FE
001E
001F
001F
001F
001F
F01F
F83F
F83E
7FFE
7FFC
3FF8
1FE0
ENDCHAR
STARTCHAR 01F0
ENCODING 496
SWIDTH 270 0
DWIDTH 9 0
BBX 11 32 -1 -7
BITMAP
F1E0
79C0
3FC0
1F80
1F00
0000
0000
1F00
1F00
1F00
1F00
1F00
1F00
1F00
1F00
1F00
1F00
1F00
1F00
1F00
1F00
1F00
1F00
1F00
1F00
1F00
1F00
1F00
7F00
7F00
7E00
7C00
ENDCHAR
STARTCHAR 01F1
ENCODING 497
SWIDTH 1260 0
DWIDTH 42 0
BBX 39 24 2 0
BITMAP
FFFC0FFFFE
FFFF0FFFFE
FFFF8FFFFE
FFFFCFFFFE
F80FC000FC
F807E000FC
F803E001F8
F803F003F0
F801F007E0
F801F00FC0
F801F00FC0
F801F01F80
F801F03F00
F801F07E00
F801F0FC00
F803F0FC00
F803E1F800
F803E3F000
F807E7E000
F81FCFC000
FFFFCFFFFE
FFFF8FFFFE
FFFE0FFFFE
FFF80FFFFE
ENDCHAR
STARTCHAR 01F2
ENCODING 498
SWIDTH 1140 0
DWIDTH 38 0
BBX 35 24 2 0
BITMAP
FFFC000000
FFFF000000
FFFF800000
FFFFC00000
F80FC00000
F807E00000
F803E7FFE0
F803F7FFE0
F801F7FFE0
F801F7FFE0
F801F007E0
F801F00FC0
F801F01F80
F801F03F00
F801F07E00
F803F0FC00
F803E0F800
F807E1F800
F807E3F000
F81FC7E000
FFFF8FFFE0
FFFF8FFFE0
FFFE0FFFE0
FFF80FFFE0
ENDCHAR
STARTCHAR 01F3
ENCODING 499
SWIDTH 1080 0
DWIDTH 36 0
BBX 34 25 1 -1
BITMAP
0007800000
0007800000
0007800000
0007800000
0007800000
0007800000
0FC78FFFC0
1FF78FFFC0
3FFF8FFFC0
7FFF8FFFC0
7E1F801F80
7C0F801F80
F80F803F00
F807807E00
F80780FC00
F80781F800
F80783F000
F80F87E000
F80F8FC000
7C1F8F8000
7F3F9FFFC0
3FFF9FFFC0
3FF79FFFC0
0FE79FFFC0
0380000000
ENDCHAR
STARTCHAR 01F4
ENCODING 500
SWIDTH 780 0
DWIDTH 26 0
BBX 23 33 1 -1
BITMAP
000F80
000F00
001E00
003C00
003800
000000
000000
003C00
01FF80
07FFE0
0FFFF0
1FFFF8
3F80FC
3F007C
7E007C
7C003E
7C0000
7C0000
FC0000
FC07FE
F807FE
FC07FE
7C07FE
7C003E
7C003E
7E007E
3E007E
3F81FE
1FFFFE
0FFFDE
07FF9E
03FF1E
003800
ENDCHAR
STARTCHAR 01F5
ENCODING 501
SWIDTH 600 0
DWIDTH 20 0
BBX 17 33 1 -7
BITMAP
007C00
00F800
01F000
01E000
03C000
000000
000000
000000
0FC780
1FF780
3FFF80
7FFF80
7E1F80
7C0F80
F80F80
F80780
F80780
F80780
F80780
F80F80
FC0F80
7E1F80
7FFF80
3FF780
1FF780
0FC780
000F80
000F80
7C0F80
7E3F00
7FFF00
3FFE00
0FF800
ENDCHAR
STARTCHAR 01F7
ENCODING 503
SWIDTH 660 0
DWIDTH 22 0
BBX 18 24 3 0
BITMAP
FFF800
FFFE00
FFFF00
FFFF80
F81FC0
F80FC0
F807C0
F807C0
F807C0
F807C0
F80FC0
F81F80
F83F80
F8FF00
F9FC00
FBF800
FFE000
FF8000
FE0000
FC0000
F80000
F80000
F80000
F80000
ENDCHAR
STARTCHAR 01F8
ENCODING 504
SWIDTH 720 0
DWIDTH 24 0
BBX 20 31 2 0
BITMAP
07C000
03E000
01F000
00F000
007800
000000
000000
FC01F0
FE01F0
FE01F0
FF01F0
FF01F0
FF81F0
FF81F0
FFC1F0
FBE1F0
F9E1F0
F9F1F0
F8F1F0
F8F9F0
F879F0
F87DF0
F83FF0
F81FF0
F81FF0
F80FF0
F80FF0
F807F0
F807F0
F803F0
F801F0
ENDCHAR
STARTCHAR 01F9
ENCODING 505
SWIDTH 600 0
DWIDTH 20 0
BBX 16 26 2 0
BITMAP
1F00
0F80
07C0
03C0
01E0
0000
0000
0000
F9F8
FBFE
FFFE
FFFF
FC1F
F81F
F81F
F81F
F81F
F81F
F81F
F81F
F81F
F81F
F81F
F81F
F81F
F81F
ENDCHAR
STARTCHAR 01FA
ENCODING 506
SWIDTH 690 0
DWIDTH 23 0
BBX 23 32 0 0
BITMAP
001F00
001E00
003C00
000000
003800
007C00
00C600
00C600
00C600
00FC00
00FE00
00FE00
01FF00
01FF00
01EF00
03EF80
03CF80
07C7C0
07C7C0
0787C0
0F83E0
0F83E0
1F03E0
1FFFF0
1FFFF0
3FFFF8
3FFFF8
7E00F8
7C00FC
7C007C
FC007C
F8007E
ENDCHAR
STARTCHAR 01FB
ENCODING 507
SWIDTH 570 0
DWIDTH 19 0
BBX 17 31 1 0
BITMAP
007C00
007800
00F000
01E000
000000
01C000
03F000
063000
061000
061000
033000
01E000
000000
03E000
1FFC00
3FFE00
7FFF00
7C1F00
781F00
001F00
003F00
0FFF00
3FFF00
7F0F00
F81F00
F81F00
F81F00
F83F00
FFFF00
7FFF00
3FCF80
ENDCHAR
STARTCHAR 01FC
ENCODING 508
SWIDTH 990 0
DWIDTH 33 0
BBX 31 31 0 0
BITMAP
000007C0
00000F80
00001F00
00003C00
00003800
00000000
00000000
001FFFFE
003FFFFE
003FFFFE
007FFFFE
007FFFFE
00FDF000
00F9F000
01F9F000
01F1F000
01F1F000
03E1FFFE
03E1FFFE
07C1FFFE
07C1FFFE
0F81F000
0FFFF000
1FFFF000
1FFFF000
3FFFF000
3E01F000
7E01FFFE
7C01FFFE
FC01FFFE
F801FFFE
ENDCHAR
STARTCHAR 01FD
ENCODING 509
SWIDTH 900 0
DWIDTH 30 0
BBX 28 24 1 0
BITMAP
0001F000
0003E000
0003C000
00078000
00000000
00000000
03E03C00
1FF8FF80
3FFDFFC0
7F7FFFC0
7C1F83E0
7C0F01E0
000F01F0
003F00F0
0FFFFFF0
3FFFFFF0
7F8FFFF0
FC0F0000
F80F0000
F81F81F0
FC3FC1E0
7FFFFFE0
7FFBFFC0
3FE0FF00
ENDCHAR
STARTCHAR 01FE
ENCODING 510
SWIDTH 780 0
DWIDTH 26 0
BBX 24 32 1 -1
BITMAP
0007C0
000F80
000F00
001E00
003C00
000000
000000
01FF87
07FFEE
0FFFFC
1FFFF8
3F83F8
3F00FC
7E00FE
7C01FE
7C03BE
FC073E
FC0E3F
FC1C3F
FC383F
FC703F
FCE03E
7DC03E
7DC03E
7F807E
3F00FC
3F81FC
1FFFF8
3FFFF0
77FFE0
E1FF80
401C00
ENDCHAR
STARTCHAR 01FF
ENCODING 511
SWIDTH 600 0
DWIDTH 20 0
BBX 18 25 1 -1
BITMAP
003E00
007C00
00F000
00E000
000000
000000
01E080
0FFD80
1FFF00
3FFF00
7E1F80
7C1F80
781FC0
F837C0
F867C0
F8C7C0
F987C0
FB07C0
7E07C0
7E0F80
3E1F80
3FFF00
3FFE00
67FC00
400000
ENDCHAR
STARTCHAR 0200
ENCODING 512
SWIDTH 720 0
DWIDTH 24 0
BBX 22 31 1 0
BITMAP
1E3E00
0F1E00
0F0F00
078F00
038780
000000
000000
00FC00
00FE00
01FE00
01FE00
01FF00
03FF00
03FF00
03EF80
07CF80
07CF80
07C7C0
0F87C0
0F87C0
0F83E0
1F03E0
1FFFF0
1FFFF0
3FFFF0
3FFFF8
7E00F8
7C00F8
7C00FC
FC007C
F8007C
ENDCHAR
STARTCHAR 0201
ENCODING 513
SWIDTH 570 0
DWIDTH 19 0
BBX 17 26 1 -1
BITMAP
F8F000
3C7800
3C3800
1E3C00
000000
000000
000000
0FF000
3FFC00
3FFE00
7FFE00
7C1F00
781F00
003F00
03FF00
1FFF00
7FFF00
7E1F00
F81F00
F81F00
F83F00
F87F00
FFFF00
7FFF00
3F9F80
0E0000
ENDCHAR
STARTCHAR 0202
ENCODING 514
SWIDTH 720 0
DWIDTH 24 0
BBX 22 31 1 0
BITMAP
003000
00FE00
01FF00
038380
030380
000000
000000
00FC00
00FE00
01FE00
01FE00
01FF00
03FF00
03FF00
03EF80
07CF80
07CF80
07C7C0
0F87C0
0F87C0
0F83E0
1F03E0
1FFFF0
1FFFF0
3FFFF0
3FFFF8
7E00F8
7C00F8
7C00FC
FC007C
F8007C
ENDCHAR
STARTCHAR 0203
ENCODING 515
SWIDTH 570 0
DWIDTH 19 0
BBX 17 26 1 -1
BITMAP
0FF000
1FF800
1C3800
181C00
000000
000000
000000
0FF000
3FFC00
3FFE00
7FFE00
7C1F00
781F00
003F00
03FF00
1FFF00
7FFF00
7E1F00
F81F00
F81F00
F83F00
F87F00
FFFF00
7FFF00
3F9F80
0E0000
ENDCHAR
STARTCHAR 0204
ENCODING 516
SWIDTH 660 0
DWIDTH 22 0
BBX 18 31 3 0
BITMAP
78F000
3C7800
3C3800
1E3C00
000000
000000
000000
FFFF80
FFFF80
FFFF80
FFFF80
F80000
F80000
F80000
F80000
F80000
FFFF00
FFFF00
FFFF00
FFFF00
FFFF00
F80000
F80000
F80000
F80000
F80000
F80000
FFFFC0
FFFFC0
FFFFC0
FFFFC0
ENDCHAR
STARTCHAR 0205
ENCODING 517
SWIDTH 570 0
DWIDTH 19 0
BBX 17 27 1 -1
BITMAP
F9F000
78F000
3C7800
1C3C00
0E1C00
000000
000000
000000
07F000
1FF800
3FFC00
7FFE00
7C1F00
F81F00
F80F00
FFFF00
FFFF80
FFFF80
F00000
F80000
F80000
F81F00
7E3F00
7FFE00
3FFC00
0FF800
01C000
ENDCHAR
STARTCHAR 0206
ENCODING 518
SWIDTH 660 0
DWIDTH 22 0
BBX 18 31 3 0
BITMAP
07F000
0FF800
1E1C00
1C0C00
000000
000000
000000
FFFF80
FFFF80
FFFF80
FFFF80
F80000
F80000
F80000
F80000
F80000
FFFF00
FFFF00
FFFF00
FFFF00
FFFF00
F80000
F80000
F80000
F80000
F80000
F80000
FFFFC0
FFFFC0
FFFFC0
FFFFC0
ENDCHAR
STARTCHAR 0207
ENCODING 519
SWIDTH 570 0
DWIDTH 19 0
BBX 17 26 1 -1
BITMAP
07F000
0FF800
1E1C00
1C0C00
000000
000000
000000
07F000
1FF800
3FFC00
7FFE00
7C1F00
F81F00
F80F00
FFFF00
FFFF80
FFFF80
F00000
F80000
F80000
F81F00
7E3F00
7FFE00
3FFC00
0FF800
01C000
ENDCHAR
STARTCHAR 0208
ENCODING 520
SWIDTH 270 0
DWIDTH 9 0
BBX 13 31 -3 0
BITMAP
F9F0
78F0
3C78
1C38
0000
0000
0000
07C0
07C0
07C0
07C0
07C0
07C0
07C0
07C0
07C0
07C0
07C0
07C0
07C0
07C0
07C0
07C0
07C0
07C0
07C0
07C0
07C0
07C0
07C0
07C0
ENDCHAR
STARTCHAR 0209
ENCODING 521
SWIDTH 270 0
DWIDTH 9 0
BBX 14 26 -4 0
BITMAP
F8F0
7CF8
3C78
1E3C
0E1C
0000
0000
0000
03E0
03E0
03E0
03E0
03E0
03E0
03E0
03E0
03E0
03E0
03E0
03E0
03E0
03E0
03E0
03E0
03E0
03E0
ENDCHAR
STARTCHAR 020A
ENCODING 522
SWIDTH 270 0
DWIDTH 9 0
BBX 11 32 -1 0
BITMAP
0E00
3FC0
7FC0
E0E0
C060
0000
0000
0000
1F00
1F00
1F00
1F00
1F00
1F00
1F00
1F00
1F00
1F00
1F00
1F00
1F00
1F00
1F00
1F00
1F00
1F00
1F00
1F00
1F00
1F00
1F00
1F00
ENDCHAR
STARTCHAR 020B
ENCODING 523
SWIDTH 270 0
DWIDTH 9 0
BBX 11 26 -1 0
BITMAP
0F00
3FC0
7FE0
E0E0
C060
0000
0000
0000
1F00
1F00
1F00
1F00
1F00
1F00
1F00
1F00
1F00
1F00
1F00
1F00
1F00
1F00
1F00
1F00
1F00
1F00
ENDCHAR
STARTCHAR 020C
ENCODING 524
SWIDTH 780 0
DWIDTH 26 0
BBX 23 33 2 -1
BITMAP
1E3E00
0F1E00
0F0F00
078F00
038780
000000
000000
00FC00
07FF80
0FFFC0
1FFFE0
3FFFF0
7F01F8
7E00F8
FC00FC
F8007C
F8007C
F8007C
F8003E
F8003E
F8003E
F8003E
F8007C
F8007C
F8007C
FC00FC
7E00F8
7F03F8
3FFFF0
1FFFE0
0FFFC0
03FF80
007C00
ENDCHAR
STARTCHAR 020D
ENCODING 525
SWIDTH 600 0
DWIDTH 20 0
BBX 18 27 1 -1
BITMAP
78F000
3C7800
3C7800
1E3C00
0E1C00
000000
000000
000000
07F800
1FFE00
3FFF00
3FFF80
7E0F80
7C07C0
F807C0
F807C0
F807C0
F807C0
F807C0
F807C0
7C07C0
7C0F80
7F1F80
3FFF00
1FFE00
0FFC00
01E000
ENDCHAR
STARTCHAR 020E
ENCODING 526
SWIDTH 780 0
DWIDTH 26 0
BBX 23 33 2 -1
BITMAP
00FC00
01FE00
03FF00
030300
070380
000000
000000
00FC00
07FF80
0FFFC0
1FFFE0
3FFFF0
7F01F8
7E00F8
FC00FC
F8007C
F8007C
F8007C
F8003E
F8003E
F8003E
F8003E
F8007C
F8007C
F8007C
FC00FC
7E00F8
7F03F8
3FFFF0
1FFFE0
0FFFC0
03FF80
007C00
ENDCHAR
STARTCHAR 020F
ENCODING 527
SWIDTH 600 0
DWIDTH 20 0
BBX 18 27 1 -1
BITMAP
01E000
07F800
0FFC00
0C0C00
1C0E00
000000
000000
000000
07F800
1FFE00
3FFF00
3FFF80
7E0F80
7C07C0
F807C0
F807C0
F807C0
F807C0
F807C0
F807C0
7C07C0
7C0F80
7F1F80
3FFF00
1FFE00
0FFC00
01E000
ENDCHAR
STARTCHAR 0210
ENCODING 528
SWIDTH 720 0
DWIDTH 24 0
BBX 20 31 3 0
BITMAP
F9F000
78F800
3C7800
1C3C00
000000
000000
000000
FFFE00
FFFF80
FFFFC0
FFFFC0
F80FE0
F803E0
F803E0
F803E0
F803E0
F803E0
F80FC0
FFFF80
FFFF00
FFFF80
FFFFC0
F807C0
F807E0
F803E0
F803E0
F803E0
F803E0
F803E0
F803E0
F803F0
ENDCHAR
STARTCHAR 0211
ENCODING 529
SWIDTH 390 0
DWIDTH 13 0
BBX 14 27 -1 0
BITMAP
F1F0
78F0
78F8
3C78
1C3C
0000
0000
0000
0000
1F38
1F78
1FF8
1FF8
1FF8
1F80
1F00
1F00
1F00
1F00
1F00
1F00
1F00
1F00
1F00
1F00
1F00
1F00
ENDCHAR
STARTCHAR 0212
ENCODING 530
SWIDTH 720 0
DWIDTH 24 0
BBX 20 31 3 0
BITMAP
07F000
0FF800
1E1C00
1C0C00
000000
000000
000000
FFFE00
FFFF80
FFFFC0
FFFFC0
F80FE0
F803E0
F803E0
F803E0
F803E0
F803E0
F80FC0
FFFF80
FFFF00
FFFF80
FFFFC0
F807C0
F807E0
F803E0
F803E0
F803E0
F803E0
F803E0
F803E0
F803F0
ENDCHAR
STARTCHAR 0213
ENCODING 531
SWIDTH 390 0
DWIDTH 13 0
BBX 11 25 2 0
BITMAP
7F80
FFC0
E1C0
C0E0
0000
0000
0000
F9C0
FBC0
FFC0
FFC0
FFC0
FC00
F800
F800
F800
F800
F800
F800
F800
F800
F800
F800
F800
F800
ENDCHAR
STARTCHAR 0214
ENCODING 532
SWIDTH 720 0
DWIDTH 24 0
BBX 19 33 3 -1
BITMAP
7CF800
3C7800
3E3C00
1E3C00
0F1E00
000000
000000
000000
F803E0
F803E0
F803E0
F803E0
F803E0
F803E0
F803E0
F803E0
F803E0
F803E0
F803E0
F803E0
F803E0
F803E0
F803E0
F803E0
F803E0
F807E0
F807C0
FC0FC0
7FFFC0
7FFF80
3FFF00
0FFE00
01E000
ENDCHAR
STARTCHAR 0215
ENCODING 533
SWIDTH 600 0
DWIDTH 20 0
BBX 16 26 2 0
BITMAP
F1F0
78F0
7878
3C78
1C3C
0000
0000
0000
F81F
F81F
F81F
F81F
F81F
F81F
F81F
F81F
F81F
F81F
F81F
F81F
F81F
F83F
FEFF
7FFF
7FEF
3FCF
ENDCHAR
STARTCHAR 0216
ENCODING 534
SWIDTH 720 0
DWIDTH 24 0
BBX 19 33 3 -1
BITMAP
00E000
03F800
07FC00
0E0E00
0C0600
000000
000000
000000
F803E0
F803E0
F803E0
F803E0
F803E0
F803E0
F803E0
F803E0
F803E0
F803E0
F803E0
F803E0
F803E0
F803E0
F803E0
F803E0
F803E0
F807E0
F807C0
FC0FC0
7FFFC0
7FFF80
3FFF00
0FFE00
01E000
ENDCHAR
STARTCHAR 0217
ENCODING 535
SWIDTH 600 0
DWIDTH 20 0
BBX 16 26 2 0
BITMAP
0180
07F0
0FF8
1C1C
180C
0000
0000
0000
F81F
F81F
F81F
F81F
F81F
F81F
F81F
F81F
F81F
F81F
F81F
F81F
F81F
F83F
FEFF
7FFF
7FEF
3FCF
ENDCHAR
STARTCHAR 0218
ENCODING 536
SWIDTH 660 0
DWIDTH 22 0
BBX 20 31 1 -7
BITMAP
07FC00
1FFF00
3FFF80
7FFFC0
7E07E0
7C07E0
7C03E0
7C0000
7E0000
7FE000
3FFE00
1FFF80
0FFFC0
01FFE0
001FE0
0007F0
F803F0
F801F0
F801F0
FC03E0
7FFFE0
3FFFC0
1FFF80
07FF00
007000
000000
01F000
01F000
01F000
007000
00E000
ENDCHAR
STARTCHAR 0219
ENCODING 537
SWIDTH 540 0
DWIDTH 18 0
BBX 16 25 1 -7
BITMAP
07C0
1FF8
7FFC
7EFE
F83E
F81E
FC00
7FC0
7FF8
1FFE
03FE
003F
F01F
F81F
F81F
7FFE
3FFC
1FF8
0000
0000
07C0
07C0
07C0
01C0
0380
ENDCHAR
STARTCHAR 021A
ENCODING 538
SWIDTH 600 0
DWIDTH 20 0
BBX 20 31 0 -7
BITMAP
FFFFF0
FFFFF0
FFFFF0
FFFFF0
FFFFF0
00F800
00F800
00F800
00F800
00F800
00F800
00F800
00F800
00F800
00F800
00F800
00F800
00F800
00F800
00F800
00F800
00F800
00F800
00F800
000000
000000
00F800
00F800
00F800
003000
00F000
ENDCHAR
STARTCHAR 021B
ENCODING 539
SWIDTH 360 0
DWIDTH 12 0
BBX 11 29 0 -7
BITMAP
1F00
1F00
1F00
1F00
1F00
FFE0
FFE0
FFE0
1F00
1F00
1F00
1F00
1F00
1F00
1F00
1F00
1F00
1F00
1FE0
1FE0
0FE0
07E0
0000
0000
07C0
07C0
07C0
0380
0780
ENDCHAR
STARTCHAR 021C
ENCODING 540
SWIDTH 660 0
DWIDTH 22 0
BBX 18 26 3 -1
BITMAP
03E000
1FF800
3FFE00
7FFF00
FFFF00
781F80
300F80
000F80
000F80
001F80
03FF00
03FE00
03FE00
03FF00
027F80
000F80
0007C0
0007C0
0007C0
000F80
100F80
3E7F80
FFFF00
7FFE00
1FF800
03E000
ENDCHAR
STARTCHAR 021D
ENCODING 541
SWIDTH 660 0
DWIDTH 22 0
BBX 18 26 3 -8
BITMAP
03E000
1FF800
3FFE00
7FFF00
FE7F00
781F80
300F80
000F80
000F80
001F80
03FF00
03FE00
03FE00
03FF00
003F80
000F80
0007C0
0007C0
0007C0
000F80
101F80
7E7F80
FFFF00
7FFE00
1FF800
03E000
ENDCHAR
STARTCHAR 021E
ENCODING 542
SWIDTH 720 0
DWIDTH 24 0
BBX 20 31 2 0
BITMAP
0F0F00
079E00
03BC00
03F800
01F800
000000
000000
F801F0
F801F0
F801F0
F801F0
F801F0
F801F0
F801F0
F801F0
F801F0
FFFFF0
FFFFF0
FFFFF0
FFFFF0
F801F0
F801F0
F801F0
F801F0
F801F0
F801F0
F801F0
F801F0
F801F0
F801F0
F801F0
ENDCHAR
STARTCHAR 021F
ENCODING 543
SWIDTH 600 0
DWIDTH 20 0
BBX 16 31 2 0
BITMAP
1C1C
1E3C
0F78
07F0
03E0
0000
0000
F800
F800
F800
F800
F800
F800
F9F8
FBFE
FFFE
FFFF
FC1F
F81F
F81F
F81F
F81F
F81F
F81F
F81F
F81F
F81F
F81F
F81F
F81F
F81F
ENDCHAR
STARTCHAR 0220
ENCODING 544
SWIDTH 720 0
DWIDTH 24 0
BBX 19 31 3 -7
BITMAP
FFF800
FFFE00
FFFF80
FFFF80
FE1FC0
FC07C0
F807E0
F803E0
F803E0
F803E0
F803E0
F803E0
F803E0
F803E0
F803E0
F803E0
F803E0
F803E0
F803E0
F803E0
F803E0
F803E0
F803E0
F803E0
0003E0
0003E0
0003E0
0003E0
0003E0
0003E0
0003E0
ENDCHAR
STARTCHAR 0226
ENCODING 550
SWIDTH 720 0
DWIDTH 24 0
BBX 22 31 1 0
BITMAP
007800
007800
007800
007800
000000
000000
000000
00FC00
00FE00
01FE00
01FE00
01FF00
03FF00
03FF00
03EF80
07CF80
07CF80
07C7C0
0F87C0
0F87C0
0F83E0
1F03E0
1FFFF0
1FFFF0
3FFFF0
3FFFF8
7E00F8
7C00F8
7C00FC
FC007C
F8007C
ENDCHAR
STARTCHAR 0227
ENCODING 551
SWIDTH 570 0
DWIDTH 19 0
BBX 17 26 1 -1
BITMAP
03C000
03C000
03C000
03C000
000000
000000
000000
0FF000
3FFC00
3FFE00
7FFE00
7C1F00
781F00
003F00
03FF00
1FFF00
7FFF00
7E1F00
F81F00
F81F00
F83F00
F87F00
FFFF00
7FFF00
3F9F80
0E0000
ENDCHAR
STARTCHAR 0228
ENCODING 552
SWIDTH 660 0
DWIDTH 22 0
BBX 18 32 3 -8
BITMAP
FFFF80
FFFF80
FFFF80
FFFF80
F80000
F80000
F80000
F80000
F80000
FFFF00
FFFF00
FFFF00
FFFF00
FFFF00
F80000
F80000
F80000
F80000
F80000
F80000
FFFFC0
FFFFC0
FFFFC0
FFFFC0
01C000
078000
03F000
017800
003800
047800
07F000
01C000
ENDCHAR
STARTCHAR 0229
ENCODING 553
SWIDTH 570 0
DWIDTH 19 0
BBX 17 26 1 -8
BITMAP
07F000
1FF800
3FFC00
7FFE00
7C1F00
F81F00
F80F00
FFFF00
FFFF80
FFFF80
F00000
F80000
F80000
F81F00
7E3F00
7FFE00
3FFC00
0FF800
01C000
038000
07C000
03F000
007000
007000
07F000
07C000
ENDCHAR
STARTCHAR 022A
ENCODING 554
SWIDTH 780 0
DWIDTH 26 0
BBX 23 36 2 -1
BITMAP
07FF80
07FF80
07FF80
000000
03CF00
03CF00
03CF00
03CF00
000000
000000
00FC00
07FF80
0FFFC0
1FFFE0
3FFFF0
7F01F8
7E00F8
FC00FC
F8007C
F8007C
F8007C
F8003E
F8003E
F8003E
F8003E
F8007C
F8007C
F8007C
FC00FC
7E00F8
7F03F8
3FFFF0
1FFFE0
0FFFC0
03FF80
007C00
ENDCHAR
STARTCHAR 022B
ENCODING 555
SWIDTH 600 0
DWIDTH 20 0
BBX 18 30 1 -1
BITMAP
1FFE00
1FFE00
1FFE00
000000
000000
0F3E00
0F3E00
0F3E00
0F3E00
000000
000000
07F800
1FFE00
3FFF00
3FFF80
7E0F80
7C07C0
F807C0
F807C0
F807C0
F807C0
F807C0
F807C0
7C07C0
7C0F80
7F1F80
3FFF00
1FFE00
0FFC00
01E000
ENDCHAR
STARTCHAR 022C
ENCODING 556
SWIDTH 780 0
DWIDTH 26 0
BBX 23 35 2 -1
BITMAP
03FF80
03FF80
000000
000000
01F180
03FF80
07FF00
060E00
000000
00FC00
07FF80
0FFFC0
1FFFE0
3FFFF0
7F01F8
7E00F8
FC00FC
F8007C
F8007C
F8007C
F8003E
F8003E
F8003E
F8003E
F8007C
F8007C
F8007C
FC00FC
7E00F8
7F03F8
3FFFF0
1FFFE0
0FFFC0
03FF80
007C00
ENDCHAR
STARTCHAR 022D
ENCODING 557
SWIDTH 600 0
DWIDTH 20 0
BBX 18 30 1 -1
BITMAP
1FFE00
1FFE00
000000
000000
030600
0FEE00
0FFE00
1C7C00
000000
000000
000000
07F800
1FFE00
3FFF00
3FFF80
7E0F80
7C07C0
F807C0
F807C0
F807C0
F807C0
F807C0
F807C0
7C07C0
7C0F80
7F1F80
3FFF00
1FFE00
0FFC00
01E000
ENDCHAR
STARTCHAR 022E
ENCODING 558
SWIDTH 780 0
DWIDTH 26 0
BBX 23 32 2 -1
BITMAP
007800
007800
007800
007800
000000
000000
00FC00
07FF80
0FFFC0
1FFFE0
3FFFF0
7F01F8
7E00F8
FC00FC
F8007C
F8007C
F8007C
F8003E
F8003E
F8003E
F8003E
F8007C
F8007C
F8007C
FC00FC
7E00F8
7F03F8
3FFFF0
1FFFE0
0FFFC0
03FF80
007C00
ENDCHAR
STARTCHAR 022F
ENCODING 559
SWIDTH 600 0
DWIDTH 20 0
BBX 18 26 1 -1
BITMAP
01E000
01E000
01E000
01E000
000000
000000
000000
07F800
1FFE00
3FFF00
3FFF80
7E0F80
7C07C0
F807C0
F807C0
F807C0
F807C0
F807C0
F807C0
7C07C0
7C0F80
7F1F80
3FFF00
1FFE00
0FFC00
01E000
ENDCHAR
STARTCHAR 0230
ENCODING 560
SWIDTH 780 0
DWIDTH 26 0
BBX 23 35 2 -1
BITMAP
07FF80
07FF80
000000
000000
007800
007800
007800
007800
000000
00FC00
07FF80
0FFFC0
1FFFE0
3FFFF0
7F01F8
7E00F8
FC00FC
F8007C
F8007C
F8007C
F8003E
F8003E
F8003E
F8003E
F8007C
F8007C
F8007C
FC00FC
7E00F8
7F03F8
3FFFF0
1FFFE0
0FFFC0
03FF80
007C00
ENDCHAR
STARTCHAR 0231
ENCODING 561
SWIDTH 600 0
DWIDTH 20 0
BBX 18 29 1 -1
BITMAP
1FFE00
1FFE00
000000
000000
01E000
01E000
01E000
01E000
000000
000000
07F800
1FFE00
3FFF00
3FFF80
7E0F80
7C07C0
F807C0
F807C0
F807C0
F807C0
F807C0
F807C0
7C07C0
7C0F80
7F1F80
3FFF00
1FFE00
0FFC00
01E000
ENDCHAR
STARTCHAR 0232
ENCODING 562
SWIDTH 660 0
DWIDTH 22 0
BBX 21 29 1 0
BITMAP
0FFF00
0FFF00
0FFF00
000000
000000
FC01F8
FC01F0
7E03F0
7E03E0
3F07E0
1F07C0
1F8F80
0F8F80
0FDF00
07DF00
07FE00
03FE00
03FC00
01FC00
00F800
00F800
00F800
00F800
00F800
00F800
00F800
00F800
00F800
00F800
ENDCHAR
STARTCHAR 0233
ENCODING 563
SWIDTH 570 0
DWIDTH 19 0
BBX 18 30 0 -7
BITMAP
1FFE00
1FFE00
000000
000000
000000
FC07C0
7C07C0
7C0F80
7C0F80
3E0F00
3E0F00
1E1F00
1F1E00
1F1E00
0F3E00
0FBC00
0FBC00
07BC00
07F800
07F800
03F800
03F000
03F000
01F000
01E000
03E000
1FC000
1FC000
1F8000
1F0000
ENDCHAR
STARTCHAR 0237
ENCODING 567
SWIDTH 270 0
DWIDTH 9 0
BBX 8 23 -1 -6
BITMAP
1F
1F
1F
1F
1F
1F
1F
1F
1F
1F
1F
1F
1F
1F
1F
1F
1F
1F
1F
FF
FF
FE
FC
ENDCHAR
STARTCHAR 0238
ENCODING 568
SWIDTH 960 0
DWIDTH 32 0
BBX 30 25 1 -1
BITMAP
00078000
00078000
00078000
00078000
00078000
00078000
07E78FC0
1FF7BFE0
3FFFFFF0
7FFFFFF8
7E1FE1F8
7C0FC0F8
F80FC07C
F807807C
F807807C
F807807C
F807807C
F80F807C
F80FC0FC
7C1FE0F8
7F3FF3F8
3FFFFFF0
1FF7BFE0
0FE79FC0
03800000
ENDCHAR
STARTCHAR 0239
ENCODING 569
SWIDTH 960 0
DWIDTH 32 0
BBX 30 25 1 -7
BITMAP
07E78FC0
1FF7BFE0
3FFFBFF0
7FFFFFF8
7E1FE1F8
7C0FC0FC
F80FC07C
F807807C
F807807C
F807807C
F807807C
F807807C
F80FC07C
7C1FC0F8
7F7FF3F8
3FFFFFF0
1FF7BFE0
0FE79FC0
03878200
00078000
00078000
00078000
00078000
00078000
00078000
ENDCHAR
STARTCHAR 023A
ENCODING 570
SWIDTH 720 0
DWIDTH 24 0
BBX 22 32 1 -4
BITMAP
0000F0
0000F0
0001E0
0001E0
00FDE0
00FFC0
01FFC0
01FFC0
01FFC0
03FF80
03FF80
03EF80
07CF80
07CF80
07CFC0
0F8FC0
0F9FC0
0F9FE0
1F1FE0
1FFFF0
1FFFF0
3FFFF0
3FFFF8
7E78F8
7C78F8
7C78FC
FCF07C
F8F07C
00F000
00E000
01E000
01E000
ENDCHAR
STARTCHAR 023B
ENCODING 571
SWIDTH 720 0
DWIDTH 24 0
BBX 22 31 1 -3
BITMAP
0003C0
0003C0
0003C0
000380
01FF80
07FFC0
0FFFE0
1FFFF0
3F8FF8
3F0FF8
7E1EFC
7C1E7C
7C1E00
7C1C00
7C3C00
FC3C00
FC3C00
7C7800
7C7800
7C7800
7C707C
7EF0F8
3EF0F8
3FE1F8
1FFFF0
0FFFE0
07FFC0
03FF80
03FC00
03C000
038000
ENDCHAR
STARTCHAR 023C
ENCODING 572
SWIDTH 570 0
DWIDTH 19 0
BBX 16 24 1 -3
BITMAP
001E
001C
003C
07FC
1FFC
3FFE
3FFF
7EFF
7CFF
F8EF
F9E0
F9E0
FBC0
FBC0
FBC0
FF9F
7F9F
7F3F
3FFE
3FFC
1FF8
1FC0
1E00
3C00
ENDCHAR
STARTCHAR 023D
ENCODING 573
SWIDTH 600 0
DWIDTH 20 0
BBX 19 24 0 0
BITMAP
1F0000
1F0000
1F0000
1F0000
1F0000
1F0000
1F0000
1F0000
1F0000
1F0000
FFF000
FFF000
FFF000
1F0000
1F0000
1F0000
1F0000
1F0000
1F0000
1F0000
1FFFE0
1FFFE0
1FFFE0
1FFFE0
ENDCHAR
STARTCHAR 023E
ENCODING 574
SWIDTH 600 0
DWIDTH 20 0
BBX 19 31 1 -3
BITMAP
0001E0
0003C0
0003C0
000780
FFFFE0
FFFFE0
FFFFE0
FFFFE0
01FE00
01FC00
01FC00
01F800
01F800
01F000
01F000
01F000
01F000
01F000
03F000
03F000
07F000
07F000
0FF000
0FF000
1FF000
1FF000
3DF000
3DF000
780000
780000
700000
ENDCHAR
STARTCHAR 0241
ENCODING 577
SWIDTH 600 0
DWIDTH 20 0
BBX 16 24 2 0
BITMAP
0FF0
1FFC
3FFE
7FFF
FC1F
F81F
F81F
F81F
001F
003F
007E
00FC
01F8
03F0
03E0
03E0
03E0
03E0
03C0
03C0
03C0
03C0
03C0
03C0
ENDCHAR
STARTCHAR 0242
ENCODING 578
SWIDTH 600 0
DWIDTH 20 0
BBX 16 18 2 0
BITMAP
0FF0
3FFC
7FFE
7FFF
FC1F
F81F
F81F
F81F
001F
003F
007E
00FC
01F8
03F0
03E0
03E0
03C0
03C0
ENDCHAR
STARTCHAR 0243
ENCODING 579
SWIDTH 750 0
DWIDTH 25 0
BBX 23 24 1 0
BITMAP
1FFFC0
1FFFF0
1FFFF8
1FFFFC
1F00FC
1F007C
1F003C
1F007C
1F007C
1FFFF8
1FFFF0
1FFFF0
1FFFFC
1F01FC
1F007E
FFE03E
FFE03E
FFE03E
1F003E
1F00FE
1FFFFC
1FFFF8
1FFFF0
1FFFC0
ENDCHAR
STARTCHAR 0244
ENCODING 580
SWIDTH 840 0
DWIDTH 28 0
BBX 26 25 1 -1
BITMAP
1F007E00
1F007E00
1F007E00
1F007E00
1F007E00
1F007E00
1F007E00
FFFFFFC0
FFFFFFC0
FFFFFFC0
1F007E00
1F007E00
1F007E00
1F007E00
1F007E00
1F007E00
1F007C00
1F807C00
0F807C00
0FC0FC00
0FFFF800
07FFF800
03FFF000
01FFC000
003E0000
ENDCHAR
STARTCHAR 0245
ENCODING 581
SWIDTH 660 0
DWIDTH 22 0
BBX 21 24 1 0
BITMAP
00F800
01F800
01F800
01FC00
03FC00
03FC00
03DE00
07DE00
07DF00
079F00
0F8F00
0F8F80
0F0F80
1F0780
1F07C0
1F07C0
3E07C0
3E03E0
3E03E0
7C03E0
7C01F0
7C01F0
FC01F0
F801F8
ENDCHAR
STARTCHAR 0246
ENCODING 582
SWIDTH 660 0
DWIDTH 22 0
BBX 18 31 3 -3
BITMAP
001E00
003C00
003C00
003C00
FFFF80
FFFF80
FFFF80
FFFF80
F8F000
F8F000
F8F000
F8E000
F9E000
FFFF00
FFFF00
FFFF00
FFFF00
FFFF00
FF8000
FF8000
FF8000
FF0000
FF0000
FF0000
FFFFC0
FFFFC0
FFFFC0
FFFFC0
1C0000
3C0000
3C0000
ENDCHAR
STARTCHAR 0247
ENCODING 583
SWIDTH 570 0
DWIDTH 19 0
BBX 17 24 1 -3
BITMAP
003C00
003C00
003C00
07F800
1FF800
3FFC00
7FFE00
7CFF00
F9FF00
F9EF00
FFFF00
FFFF80
FFFF80
F38000
FF8000
FF8000
FF1F00
7F3F00
7FFE00
3FFC00
1FF800
1DC000
3C0000
3C0000
ENDCHAR
STARTCHAR 0248
ENCODING 584
SWIDTH 570 0
DWIDTH 19 0
BBX 18 25 1 -1
BITMAP
003E00
003E00
003E00
003E00
003E00
003E00
01FFC0
01FFC0
01FFC0
01FFC0
003E00
003E00
003E00
003E00
003E00
F03E00
F03E00
F83E00
F83E00
F83E00
FEFE00
7FFC00
3FF800
1FF000
038000
ENDCHAR
STARTCHAR 0249
ENCODING 585
SWIDTH 270 0
DWIDTH 9 0
BBX 10 31 0 -7
BITMAP
3E00
3E00
3E00
3E00
0000
0000
3E00
3E00
3E00
3E00
3E00
3E00
3E00
3E00
3E00
FFC0
FFC0
FFC0
3E00
3E00
3E00
3E00
3E00
3E00
3E00
3E00
3E00
FE00
FE00
FC00
F800
ENDCHAR
STARTCHAR 024A
ENCODING 586
SWIDTH 810 0
DWIDTH 27 0
BBX 26 33 1 -8
BITMAP
007C0000
03FFBE00
0FFFFE00
1FFFFE00
3FFFFE00
3F01FE00
7E00FE00
7C007E00
7C007E00
FC003E00
F8003E00
F8003E00
F8003E00
F8003E00
F8003E00
F8003E00
FC003E00
7C007E00
7C007E00
7E00FE00
3F01FE00
1FFFFE00
1FFFFE00
07FFFE00
03FFBE00
007C3E00
00003E00
00003F00
00001F80
00001FC0
00000FC0
000007C0
000001C0
ENDCHAR
STARTCHAR 024B
ENCODING 587
SWIDTH 660 0
DWIDTH 22 0
BBX 20 25 1 -7
BITMAP
07FBC0
1FFFC0
3FFFC0
3FFFC0
7E0FC0
7C07C0
F807C0
F807C0
F807C0
F807C0
F807C0
F807C0
7C07C0
7C0FC0
7F1FC0
3FFFC0
1FFFC0
0FFFC0
01E3C0
0003C0
0003C0
0003F0
0003F0
0003F0
0001F0
ENDCHAR
STARTCHAR 024C
ENCODING 588
SWIDTH 780 0
DWIDTH 26 0
BBX 23 24 1 0
BITMAP
1FFFE0
1FFFF0
1FFFF8
1FFFFC
1F00FE
1F007E
1F003E
1F003E
1F003E
1F007E
1F00FC
FFFFF8
FFFFE0
FFFFF8
FFFFFC
1F007C
1F007C
1F007C
1F007C
1F007C
1F007C
1F007C
1F003E
1F003E
ENDCHAR
STARTCHAR 024D
ENCODING 589
SWIDTH 450 0
DWIDTH 15 0
BBX 13 18 1 0
BITMAP
1E78
1EF8
1EF8
1FF8
1FF8
1F80
1F00
1E00
1E00
FFE0
FFE0
FFE0
1E00
1E00
1E00
1E00
1E00
1E00
ENDCHAR
STARTCHAR 024E
ENCODING 590
SWIDTH 780 0
DWIDTH 26 0
BBX 24 24 1 0
BITMAP
7E00FC
3F00F8
3F01F8
FFFFFF
FFFFFF
FFFFFF
FFFFFF
07C7C0
03E7C0
03EF80
01FF80
01FF00
00FF00
00FE00
007E00
007C00
007C00
007C00
007C00
007C00
007C00
007C00
007C00
007C00
ENDCHAR
STARTCHAR 024F
ENCODING 591
SWIDTH 660 0
DWIDTH 22 0
BBX 21 25 1 -7
BITMAP
7C03E0
3E07C0
3E07C0
3E07C0
1F0780
FFFFF8
FFFFF8
FFFFF8
FFFFF8
0F9E00
079E00
07DE00
07FC00
03FC00
03FC00
03F800
01F800
01F800
01F000
01F000
01F000
0FE000
0FE000
0FC000
0F8000
ENDCHAR
STARTCHAR 0250
ENCODING 592
SWIDTH 570 0
DWIDTH 19 0
BBX 17 19 1 -1
BITMAP
F8FC00
FBFE00
7FFF00
7F1F00
7C0F80
7C0F80
7C0F00
7C1F00
7DFF00
7FFE00
7FF000
7E0000
7C1F00
7C1F00
7E3F00
7FFE00
3FFC00
1FF800
01C000
ENDCHAR
STARTCHAR 0251
ENCODING 593
SWIDTH 600 0
DWIDTH 20 0
BBX 16 18 1 0
BITMAP
0780
1FEF
3FFF
3FFF
7C3F
7C1F
F81F
F80F
F80F
F80F
F80F
F81F
F81F
7C1F
7E7F
3FFF
3FEF
0FCF
ENDCHAR
STARTCHAR 0252
ENCODING 594
SWIDTH 600 0
DWIDTH 20 0
BBX 16 18 1 0
BITMAP
00F0
FBF8
FFFC
FFFE
FE3E
FC1F
F81F
F80F
F80F
F80F
F80F
F80F
F81F
FC1F
FE7E
FFFE
FFFC
FBF8
ENDCHAR
STARTCHAR 0253
ENCODING 595
SWIDTH 600 0
DWIDTH 20 0
BBX 17 24 2 0
BITMAP
7E0000
7E0000
FE0000
F80000
F80000
F80000
F9F800
FBFC00
FFFE00
FFFF00
FC1F00
F81F80
F80F80
F80F80
F00F80
F00F80
F80F80
F80F80
F80F80
FC1F00
FE3F00
FFFE00
FFFE00
FBF800
ENDCHAR
STARTCHAR 0254
ENCODING 596
SWIDTH 570 0
DWIDTH 19 0
BBX 16 19 1 -1
BITMAP
07F0
1FFC
3FFE
7FFE
7C3F
F81F
F81F
000F
000F
000F
000F
001F
F81F
F81F
7E7E
7FFE
3FFC
1FF8
03C0
ENDCHAR
STARTCHAR 0256
ENCODING 598
SWIDTH 660 0
DWIDTH 22 0
BBX 20 31 1 -7
BITMAP
000780
000780
000780
000780
000780
000780
0FC780
1FF780
3FFF80
7FFF80
7E1F80
7C0F80
F80F80
F80780
F80780
F80780
F80780
F80F80
F80F80
7C1F80
7F3F80
3FFF80
3FF780
0FE780
038780
000780
000780
0007F0
0007F0
0007F0
0003F0
ENDCHAR
STARTCHAR 0257
ENCODING 599
SWIDTH 600 0
DWIDTH 20 0
BBX 19 26 1 -1
BITMAP
0000E0
0003E0
0007E0
0007E0
0007C0
000780
000780
0FC780
1FF780
3FFF80
7FFF80
7E1F80
7C0F80
F80F80
F80780
F80780
F80780
F80780
F80F80
F80F80
7C1F80
7F3F80
3FFF80
3FF780
0FE780
038000
ENDCHAR
STARTCHAR 0258
ENCODING 600
SWIDTH 570 0
DWIDTH 19 0
BBX 17 19 1 -1
BITMAP
0FF000
1FF800
3FFE00
7FFE00
7C1F00
F81F00
F80F00
FFFF00
FFFF80
FFFF80
000F80
000F00
000F00
F81F00
7C3F00
7FFE00
3FFC00
1FF800
01C000
ENDCHAR
STARTCHAR 0259
ENCODING 601
SWIDTH 570 0
DWIDTH 19 0
BBX 17 18 1 0
BITMAP
03C000
0FF800
3FFC00
7FFE00
7C1F00
F80F00
000F80
000F80
FFFF80
FFFF80
FFFF80
F80F80
F80F80
7C0F00
7E3F00
3FFE00
1FFC00
0FF000
ENDCHAR
STARTCHAR 025A
ENCODING 602
SWIDTH 870 0
DWIDTH 29 0
BBX 28 19 1 -1
BITMAP
07F00000
1FFC0000
3FFE0000
7FFF0000
7C1F0E00
F80FFE00
F80FFE00
C01FFE00
01FFCE20
1FFFCE70
7FE7C7E0
7F07C3C0
7C078000
3E0F8000
3F1F8000
1FFF0000
0FFE0000
07FC0000
01E00000
ENDCHAR
STARTCHAR 025B
ENCODING 603
SWIDTH 510 0
DWIDTH 17 0
BBX 15 18 1 0
BITMAP
07C0
1FF0
7FF8
7FFC
F83C
F000
F800
7E00
3F80
3F80
7F80
7800
F000
F01E
F83C
FFFC
7FF8
1FF0
ENDCHAR
STARTCHAR 025C
ENCODING 604
SWIDTH 510 0
DWIDTH 17 0
BBX 15 18 1 0
BITMAP
07C0
3FF0
3FFC
7FFC
783C
003C
003C
00FC
03F8
03F8
03FC
003C
001E
F01E
F83E
7FFC
3FFC
1FF0
ENDCHAR
STARTCHAR 025D
ENCODING 605
SWIDTH 810 0
DWIDTH 27 0
BBX 25 18 1 0
BITMAP
0FC03000
3FF1F000
7FFFF000
7FFFF000
783F7100
003C7180
003C3F80
00FC3F00
03F80400
03F80000
03FC0000
003C0000
001C0000
F01E0000
F83E0000
7FFC0000
3FFC0000
1FF00000
ENDCHAR
STARTCHAR 025E
ENCODING 606
SWIDTH 540 0
DWIDTH 18 0
BBX 16 18 1 -1
BITMAP
07E0
1FF8
3FFE
7FFE
7C1E
7C1E
F81E
F87E
F8FC
F8FC
F8FE
F81E
F80F
7C0F
7E1F
3FFE
3FFE
0FF8
ENDCHAR
STARTCHAR 025F
ENCODING 607
SWIDTH 330 0
DWIDTH 11 0
BBX 11 25 0 -7
BITMAP
1F00
1F00
1F00
1F00
1F00
1F00
1F00
1F00
1F00
1F00
1F00
1F00
1F00
1F00
1F00
FFE0
FFE0
FFE0
1F00
1F00
1F00
FF00
FE00
FE00
7000
ENDCHAR
STARTCHAR 0260
ENCODING 608
SWIDTH 600 0
DWIDTH 20 0
BBX 19 30 1 -7
BITMAP
0001E0
0003E0
0007E0
0007E0
000780
0FC780
1FF780
3FF780
7FFF80
7E1F80
7C0F80
F80F80
F80780
F80780
F80780
F80780
F80F80
FC0F80
7E1F80
7FFF80
3FF780
1FF780
0FC780
000F80
000F80
7C0F80
7E3F00
7FFF00
3FFE00
0FF800
ENDCHAR
STARTCHAR 0261
ENCODING 609
SWIDTH 600 0
DWIDTH 20 0
BBX 17 25 1 -7
BITMAP
0FC780
1FF780
3FFF80
7FFF80
7E1F80
7C0F80
F80F80
F80780
F80780
F80780
F80780
F80F80
FC0F80
7E1F80
7FFF80
3FF780
1FF780
0FC780
000F80
000F80
7C0F80
7E3F00
7FFF00
3FFE00
0FF800
ENDCHAR
STARTCHAR 0265
ENCODING 613
SWIDTH 600 0
DWIDTH 20 0
BBX 16 24 2 -6
BITMAP
F80F
F80F
F80F
F80F
F80F
F80F
F80F
F80F
F80F
F80F
F80F
F81F
F81F
F81F
FE7F
7FFF
7FEF
3FCF
020F
000F
000F
000F
000F
000F
ENDCHAR
STARTCHAR 0266
ENCODING 614
SWIDTH 600 0
DWIDTH 20 0
BBX 16 26 2 0
BITMAP
1E00
7E00
7E00
FE00
F800
F800
F800
F800
F9F8
FBFE
FFFE
FFFF
FC1F
F81F
F81F
F81F
F81F
F81F
F81F
F81F
F81F
F81F
F81F
F81F
F81F
F81F
ENDCHAR
STARTCHAR 0267
ENCODING 615
SWIDTH 660 0
DWIDTH 22 0
BBX 18 33 2 -7
BITMAP
1E0000
7E0000
7E0000
FE0000
F80000
F80000
F80000
F80000
F9F800
FBFE00
FFFE00
FFFF00
FC1F00
F81F00
F81F00
F81F00
F81F00
F81F00
F81F00
F81F00
F81F00
F81F00
F81F00
F81F00
F81F00
F81F00
000F00
000F00
000F00
000FC0
000FC0
000FC0
0007C0
ENDCHAR
STARTCHAR 0268
ENCODING 616
SWIDTH 390 0
DWIDTH 13 0
BBX 12 24 0 0
BITMAP
0F00
0F00
0F00
0F00
0000
0000
0F00
0F00
0F00
0F00
0F00
FFF0
FFF0
0F00
0F00
0F00
0F00
0F00
0F00
0F00
0F00
0F00
0F00
0F00
ENDCHAR
STARTCHAR 0269
ENCODING 617
SWIDTH 270 0
DWIDTH 9 0
BBX 5 17 2 0
BITMAP
F8
F8
F8
F8
F8
F8
F8
F8
F8
F8
F8
F8
F8
F8
F8
F8
F8
ENDCHAR
STARTCHAR 026A
ENCODING 618
SWIDTH 330 0
DWIDTH 11 0
BBX 9 18 1 0
BITMAP
FF80
FF80
FF80
FF80
FF80
3E00
3E00
3E00
3E00
3E00
3E00
3E00
3E00
3E00
FF80
FF80
FF80
FF80
ENDCHAR
STARTCHAR 026B
ENCODING 619
SWIDTH 390 0
DWIDTH 13 0
BBX 12 24 0 0
BITMAP
0F80
0F80
0F80
0F80
0F80
0F80
0F80
0F80
0F80
1FB0
7FF0
7FF0
EFE0
0F80
0F80
0F80
0F80
0F80
0F80
0F80
0F80
0F80
0F80
0F80
ENDCHAR
STARTCHAR 026D
ENCODING 621
SWIDTH 300 0
DWIDTH 10 0
BBX 7 31 2 -7
BITMAP
F8
F8
F8
F8
F8
F8
F8
F8
F8
F8
F8
F8
F8
F8
F8
F8
F8
F8
F8
F8
F8
F8
F8
F8
F8
F8
F8
FE
7E
7E
3E
ENDCHAR
STARTCHAR 026F
ENCODING 623
SWIDTH 900 0
DWIDTH 30 0
BBX 26 18 2 0
BITMAP
F83E07C0
F83E07C0
F83E07C0
F83E07C0
F83E07C0
F83E07C0
F83E07C0
F83E07C0
F83E07C0
F83E07C0
F83E07C0
F83E07C0
F83E07C0
FC7F0FC0
FFFFFFC0
7FFFFFC0
3FCFF7C0
1F07E7C0
ENDCHAR
STARTCHAR 0270
ENCODING 624
SWIDTH 900 0
DWIDTH 30 0
BBX 26 24 2 -6
BITMAP
F83E07C0
F83E07C0
F83E07C0
F83E07C0
F83E07C0
F83E07C0
F83E07C0
F83E07C0
F83E07C0
F83E07C0
F83E07C0
F83E07C0
F83E07C0
FC7F0FC0
FFFFFFC0
7FFFFFC0
3FCFF7C0
1F07E7C0
000007C0
000007C0
000007C0
000007C0
000007C0
000007C0
ENDCHAR
STARTCHAR 0271
ENCODING 625
SWIDTH 900 0
DWIDTH 30 0
BBX 26 25 2 -7
BITMAP
F9F87E00
FBFCFF00
FFFDFF80
FFFFFF80
FC3F0F80
F83E07C0
F83E07C0
F83E07C0
F83E07C0
F83E07C0
F83E07C0
F83E07C0
F83E0780
F83E0780
F83E0780
F83E0780
F83E0780
F83E0780
00000780
00000780
00000780
00003F80
00003F80
00003F80
00003F00
ENDCHAR
STARTCHAR 0272
ENCODING 626
SWIDTH 600 0
DWIDTH 20 0
BBX 18 25 0 -7
BITMAP
3E7E00
3EFF80
3FFF80
3FFFC0
3F07C0
3E07C0
3E07C0
3E07C0
3E07C0
3E07C0
3E07C0
3E07C0
3E07C0
3E07C0
3E07C0
3E07C0
3E07C0
3E07C0
3E0000
3E0000
3E0000
FE0000
FE0000
FC0000
F80000
ENDCHAR
STARTCHAR 0273
ENCODING 627
SWIDTH 660 0
DWIDTH 22 0
BBX 18 25 2 -7
BITMAP
F9F800
FBFE00
FFFE00
FFFF00
FC1F00
F81F00
F81F00
F81F00
F81F00
F81F00
F81F00
F81F00
F81F00
F81F00
F81F00
F81F00
F81F00
F81F00
001F00
001F00
001F00
000FC0
000FC0
000FC0
0007C0
ENDCHAR
STARTCHAR 0274
ENCODING 628
SWIDTH 540 0
DWIDTH 18 0
BBX 15 18 1 0
BITMAP
FC3E
FC3E
FE3E
FE3E
FF3E
FF3E
FFBE
FFBE
FBBE
FBFE
F9FE
F9FE
F8FE
F8FE
F8FE
F87E
F87E
F83E
ENDCHAR
STARTCHAR 0275
ENCODING 629
SWIDTH 600 0
DWIDTH 20 0
BBX 18 19 1 -1
BITMAP
07F800
1FFE00
3FFF00
3FFF80
7E0F80
7C07C0
F807C0
F807C0
FFFFC0
FFFFC0
F807C0
F807C0
7807C0
7C0F80
7F1F80
3FFF00
1FFE00
0FFC00
01E000
ENDCHAR
STARTCHAR 0276
ENCODING 630
SWIDTH 930 0
DWIDTH 31 0
BBX 29 19 1 -1
BITMAP
07F03F80
1FFCFFC0
3FFFFFE0
7FFFFFF0
7C0FC0F8
7C0FC0F8
F8078078
F807FFF8
F807FFF8
F807FFF8
F8078000
F8078000
F80FC000
7C0FC0F8
7E1FE1F8
3FFFFFF0
1FFDFFE0
0FF87FC0
01C00C00
ENDCHAR
STARTCHAR 0278
ENCODING 632
SWIDTH 720 0
DWIDTH 24 0
BBX 22 31 1 -7
BITMAP
007800
007800
007800
007800
007800
007800
03FF00
0FFFC0
3FFFF0
3FFFF0
7E79F8
7C78F8
F8787C
F8787C
F8787C
F8787C
F8787C
F8787C
7C78F8
7E79F8
3FFFF0
3FFFF0
0FFFC0
03FF00
007800
007800
007800
007800
007800
007800
007800
ENDCHAR
STARTCHAR 0279
ENCODING 633
SWIDTH 390 0
DWIDTH 13 0
BBX 10 18 2 0
BITMAP
03C0
03C0
03C0
03C0
03C0
03C0
03C0
03C0
03C0
03C0
07C0
07C0
0FC0
FFC0
FFC0
FBC0
FBC0
E3C0
ENDCHAR
STARTCHAR 027A
ENCODING 634
SWIDTH 390 0
DWIDTH 13 0
BBX 10 24 2 0
BITMAP
03C0
03C0
03C0
03C0
03C0
03C0
03C0
03C0
03C0
03C0
03C0
03C0
03C0
03C0
03C0
03C0
07C0
07C0
0FC0
FFC0
FFC0
FBC0
FBC0
E3C0
ENDCHAR
STARTCHAR 027B
ENCODING 635
SWIDTH 480 0
DWIDTH 16 0
BBX 13 25 2 -7
BITMAP
03C0
03C0
03C0
03C0
03C0
03C0
03C0
03C0
03C0
03C0
07C0
07C0
0FC0
FFC0
FFC0
FBC0
FBC0
E3C0
03C0
03C0
03C0
03F8
03F8
01F8
00F8
ENDCHAR
STARTCHAR 027C
ENCODING 636
SWIDTH 390 0
DWIDTH 13 0
BBX 10 24 2 -6
BITMAP
F9C0
FBC0
FFC0
FFC0
FFC0
FC00
F800
F800
F800
F800
F800
F800
F800
F800
F800
F800
F800
F800
F800
F800
F800
F800
F800
F800
ENDCHAR
STARTCHAR 027D
ENCODING 637
SWIDTH 390 0
DWIDTH 13 0
BBX 10 25 2 -7
BITMAP
F9C0
FBC0
FFC0
FFC0
FFC0
FC00
F800
F800
F800
F800
F800
F800
F800
F800
F800
F800
F800
F800
F800
F800
F800
FE00
FE00
7E00
3E00
ENDCHAR
STARTCHAR 027E
ENCODING 638
SWIDTH 270 0
DWIDTH 9 0
BBX 8 18 0 0
BITMAP
1C
7F
7F
FF
F8
F8
F8
F8
F8
F8
F8
F8
F8
F8
F8
F8
F8
F8
ENDCHAR
STARTCHAR 027F
ENCODING 639
SWIDTH 270 0
DWIDTH 9 0
BBX 8 18 0 0
BITMAP
38
FE
FE
FF
1F
1F
1F
1F
1F
1F
1F
1F
1F
1F
1F
1F
1F
1F
ENDCHAR
STARTCHAR 0280
ENCODING 640
SWIDTH 540 0
DWIDTH 18 0
BBX 15 18 2 0
BITMAP
FFE0
FFF8
FFFC
F8FC
F87C
F87C
F87C
FFFC
FFF8
FFF0
FFF8
FFFC
F8FC
F87C
F87C
F87C
F87C
F87E
ENDCHAR
STARTCHAR 0281
ENCODING 641
SWIDTH 540 0
DWIDTH 18 0
BBX 15 18 2 0
BITMAP
F87E
F87C
F87C
F87C
F87C
F87C
F9FC
FFF8
FFF0
FFF8
FFFC
F87C
F87C
F87C
F8FC
FFFC
FFF8
FFF0
ENDCHAR
STARTCHAR 0283
ENCODING 643
SWIDTH 390 0
DWIDTH 13 0
BBX 14 32 -1 -7
BITMAP
00FC
01FC
03FC
03FC
03C0
07C0
07C0
07C0
07C0
07C0
07C0
07C0
07C0
07C0
07C0
07C0
07C0
0780
0780
0780
0780
0780
0780
0780
0F80
0F80
0F80
0F80
7F80
7F00
FE00
7C00
ENDCHAR
STARTCHAR 0284
ENCODING 644
SWIDTH 390 0
DWIDTH 13 0
BBX 14 32 -1 -7
BITMAP
00FC
01FC
03FC
03FC
03C0
07C0
07C0
07C0
07C0
07C0
07C0
07C0
07C0
07C0
07C0
07C0
07C0
0780
0780
0780
0780
0780
0780
7FF0
7FF0
0F80
0F80
0F80
7F80
7F00
FE00
7C00
ENDCHAR
STARTCHAR 0285
ENCODING 645
SWIDTH 420 0
DWIDTH 14 0
BBX 14 17 0 0
BITMAP
FE00
FF00
0F80
0F80
0F80
0F80
0780
0780
0780
0780
07C0
07C0
07C0
07C0
07C0
03FC
01FC
ENDCHAR
STARTCHAR 0287
ENCODING 647
SWIDTH 330 0
DWIDTH 11 0
BBX 10 22 0 0
BITMAP
FE00
FE00
FF00
1F00
1F00
1F00
1F00
1F00
1F00
1F00
1F00
1F00
1F00
1F00
FFC0
FFC0
FFC0
1F00
1F00
1F00
1F00
1F00
ENDCHAR
STARTCHAR 0288
ENCODING 648
SWIDTH 330 0
DWIDTH 11 0
BBX 10 30 0 -7
BITMAP
1E00
1E00
1E00
1E00
1E00
FFC0
FFC0
FFC0
FFC0
1E00
1E00
1E00
1E00
1E00
1E00
1E00
1E00
1E00
1E00
1E00
1E00
1E00
1E00
1E00
1E00
1E00
1F00
1FC0
1FC0
0FC0
ENDCHAR
STARTCHAR 0289
ENCODING 649
SWIDTH 750 0
DWIDTH 25 0
BBX 23 18 1 0
BITMAP
1F03E0
1F03E0
1F03E0
1F03E0
1F03E0
FFFFFE
FFFFFE
FFFFFE
FFFFFE
1F03E0
1F03E0
1F03E0
1F03E0
1F07E0
0FCFE0
0FFFE0
0FFDE0
03F9E0
ENDCHAR
STARTCHAR 028A
ENCODING 650
SWIDTH 570 0
DWIDTH 19 0
BBX 17 18 1 0
BITMAP
FE3F80
FE3F80
FE3F80
FE3F80
1C1C00
3C1E00
780F00
780F00
780F00
780F00
780F00
780F00
780F00
7C1F00
3FFE00
1FFE00
0FFC00
03F000
ENDCHAR
STARTCHAR 028C
ENCODING 652
SWIDTH 570 0
DWIDTH 19 0
BBX 17 18 1 0
BITMAP
03E000
07E000
07E000
07F000
0FF000
0FF800
0F7800
1E7800
1E7C00
3E7C00
3E3C00
3C3E00
7C3E00
7C1E00
781F00
F81F00
F81F80
F80F80
ENDCHAR
STARTCHAR 028D
ENCODING 653
SWIDTH 780 0
DWIDTH 26 0
BBX 25 18 0 0
BITMAP
07C0F800
07C1F800
07E1F800
0FE1F800
0FE1FC00
0FE1FC00
0FE3FC00
1EF3BE00
1EF3BE00
1E739E00
3E779E00
3C7F9F00
3C7F1F00
7C3F0F00
7C3F0F80
7C3F0F80
783F0F80
F83E0F80
ENDCHAR
STARTCHAR 028E
ENCODING 654
SWIDTH 570 0
DWIDTH 19 0
BBX 18 25 0 0
BITMAP
003E00
007E00
00FE00
00FE00
01F000
01F000
01E000
03F000
03F000
03F800
07F800
07F800
07FC00
0F7C00
0F3C00
0F3E00
1F3E00
1E1E00
1E1F00
3E1F00
3E1F00
3C0F80
7C0F80
7C0F80
F807C0
ENDCHAR
STARTCHAR 028F
ENCODING 655
SWIDTH 510 0
DWIDTH 17 0
BBX 15 18 1 0
BITMAP
FC7E
FC7C
7C7C
7C7C
3EF8
3EF8
1EF0
1EF0
0FE0
0FE0
07C0
07C0
07C0
07C0
07C0
07C0
07C0
07C0
ENDCHAR
STARTCHAR 0292
ENCODING 658
SWIDTH 540 0
DWIDTH 18 0
BBX 16 25 1 -7
BITMAP
FFFF
FFFF
FFFF
FFFF
FFFF
007E
00FC
00F8
01F0
03F0
07FC
0FFE
007E
001F
001F
001F
001F
001F
F81F
F81F
F83F
7FFE
3FFE
3FF8
0FF0
ENDCHAR
STARTCHAR 0294
ENCODING 660
SWIDTH 600 0
DWIDTH 20 0
BBX 16 24 2 0
BITMAP
0FF0
1FFC
3FFE
7FFF
FC1F
F81F
F81F
F81F
001F
003F
007E
00FC
01F8
03F0
03E0
03E0
03E0
03E0
03C0
03C0
03C0
03C0
03C0
03C0
ENDCHAR
STARTCHAR 0295
ENCODING 661
SWIDTH 600 0
DWIDTH 20 0
BBX 16 24 2 0
BITMAP
0FF0
3FFC
7FFE
7FFF
FC1F
F81F
F80F
F80F
F800
7C00
7E00
3F00
1F80
07C0
03C0
03C0
03C0
03C0
03C0
03C0
03C0
03C0
03C0
03C0
ENDCHAR
STARTCHAR 0296
ENCODING 662
SWIDTH 600 0
DWIDTH 20 0
BBX 16 24 2 0
BITMAP
03C0
03C0
03C0
03C0
03C0
03C0
03E0
03E0
03E0
03E0
01F0
01F8
00FE
007E
001F
001F
F81F
F81F
F81F
7C3F
7FFF
3FFE
1FFC
07F0
ENDCHAR
STARTCHAR 0297
ENCODING 663
SWIDTH 510 0
DWIDTH 17 0
BBX 15 26 1 -8
BITMAP
0FE0
1FF8
3FFC
3FFE
7C3E
783E
781E
F800
F000
F000
F000
F000
F000
F000
F000
F000
F000
F000
F800
781E
783E
7C3E
3FFC
3FFC
1FF8
0FE0
ENDCHAR
STARTCHAR 0298
ENCODING 664
SWIDTH 780 0
DWIDTH 26 0
BBX 23 26 2 -1
BITMAP
00FC00
07FF80
0FFFC0
1FFFE0
3FFFF0
7F01F8
7E00F8
FC00FC
F8007C
F8007C
F87C7C
F87C3E
F87C3E
F87C3E
F87C3E
F8007C
F8007C
F8007C
FC00FC
7E00F8
7F03F8
3FFFF0
1FFFE0
0FFFC0
03FF80
007C00
ENDCHAR
STARTCHAR 029A
ENCODING 666
SWIDTH 540 0
DWIDTH 18 0
BBX 16 18 1 -1
BITMAP
07E0
3FF8
7FFC
FFFC
F87E
F03E
F81E
7C1F
3E1F
3E1F
7E1F
F81F
F03E
F03E
F87E
FFFC
7FF8
1FF0
ENDCHAR
STARTCHAR 029C
ENCODING 668
SWIDTH 660 0
DWIDTH 22 0
BBX 18 17 2 0
BITMAP
F807C0
F807C0
F807C0
F807C0
F807C0
F807C0
FFFFC0
FFFFC0
FFFFC0
F807C0
F807C0
F807C0
F807C0
F807C0
F807C0
F807C0
F807C0
ENDCHAR
STARTCHAR 029E
ENCODING 670
SWIDTH 570 0
DWIDTH 19 0
BBX 16 24 2 -6
BITMAP
FC0F
7C0F
7E0F
3E0F
1F0F
1F8F
0F9F
0FFF
07FF
07FF
03FF
03FF
07EF
0FCF
0F8F
1F0F
3E0F
7E0F
000F
000F
000F
000F
000F
000F
ENDCHAR
STARTCHAR 029F
ENCODING 671
SWIDTH 540 0
DWIDTH 18 0
BBX 13 18 3 0
BITMAP
F800
F800
F800
F800
F800
F800
F800
F800
F800
F800
F800
F800
F800
F800
FFF8
FFF8
FFF8
FFF8
ENDCHAR
STARTCHAR 02A0
ENCODING 672
SWIDTH 600 0
DWIDTH 20 0
BBX 19 30 1 -7
BITMAP
0003E0
0007E0
0007E0
0007C0
000780
0FC780
1FF780
3FF780
7FFF80
7E1F80
7C0F80
F80F80
F80780
F80780
F80780
F80780
F80F80
F80F80
7C1F80
7F7F80
3FFF80
3FF780
0FE780
038780
000780
000780
000780
000780
000780
000780
ENDCHAR
STARTCHAR 02A1
ENCODING 673
SWIDTH 600 0
DWIDTH 20 0
BBX 16 24 2 0
BITMAP
0FF0
1FFC
3FFE
7FFF
FC1F
F81F
F81F
F81F
001F
003F
007E
00FC
01F8
03F0
03E0
03E0
03E0
03C0
3FFC
3FFC
03C0
03C0
03C0
03C0
ENDCHAR
STARTCHAR 02A2
ENCODING 674
SWIDTH 600 0
DWIDTH 20 0
BBX 16 24 2 0
BITMAP
0FF0
3FFC
7FFE
7FFF
FC1F
F81F
F80F
F80F
F800
7C00
7E00
3F00
1F80
07C0
03C0
03C0
03C0
03C0
3FFC
3FFC
03C0
03C0
03C0
03C0
ENDCHAR
STARTCHAR 02A3
ENCODING 675
SWIDTH 990 0
DWIDTH 33 0
BBX 31 25 1 -1
BITMAP
00078000
00078000
00078000
00078000
00078000
00078000
0FC7FFFE
1FF7FFFE
3FFFFFFE
7FFFFFFE
7E1F807E
7C0F80FC
F80F81F8
F80783F0
F80787E0
F8078FC0
F8078F80
F80F9F80
F80FBF00
7C1FFE00
7F3FFFFE
3FFFFFFE
3FF7FFFE
0FE7FFFE
03800000
ENDCHAR
STARTCHAR 02A4
ENCODING 676
SWIDTH 1020 0
DWIDTH 34 0
BBX 33 31 0 -7
BITMAP
0007C00000
0007C00000
0007C00000
0007C00000
0007C00000
0007C00000
07E7FFFF80
1FF7FFFF80
3FFFFFFF80
3FFFFFFF80
7E1FFFFF80
7C0FC03F00
7C07C07E00
7807C0FC00
F807C0F800
F807C1F800
F807C3FC00
7807C7FE00
7C0FC07F00
7C0FC00F00
7F3FC00F80
3FFFC00F80
1FFFC00F80
0FF7C00F80
0380780F80
00007C0F80
00007C1F00
00003FFF00
00003FFE00
00001FFC00
000007F000
ENDCHAR
STARTCHAR 02A6
ENCODING 678
SWIDTH 780 0
DWIDTH 26 0
BBX 25 24 0 -1
BITMAP
1E000000
1E000000
1E000000
1E000000
1E000000
FFC7F800
FFDFFC00
FFFFFE00
FFFE3F00
1E7C1F00
1E7C0F00
1E7F0000
1E7FF000
1E3FFC00
1E1FFF00
1E03FF00
1E007F80
1E780F80
1E7C0F80
1F7C1F00
1FFFFF00
1FFFFE00
0FCFFC00
0003E000
ENDCHAR
STARTCHAR 02A7
ENCODING 679
SWIDTH 600 0
DWIDTH 20 0
BBX 20 32 0 -7
BITMAP
0007F0
000FE0
1E0FE0
1E1FE0
1E1F00
1E1E00
1E1E00
FFFE00
FFFE00
FFFE00
FFFE00
1E3E00
1E3E00
1E3E00
1E3E00
1E3E00
1E3E00
1E3E00
1E3E00
1E3E00
1E3E00
1F3E00
1FFE00
1FFE00
0FFE00
003C00
003C00
007C00
03FC00
03FC00
03F800
03F000
ENDCHAR
STARTCHAR 02A9
ENCODING 681
SWIDTH 840 0
DWIDTH 28 0
BBX 26 31 0 -7
BITMAP
07C00000
0FC00000
1FC00000
1FC00000
1F000000
1F000000
FFFE7E00
FFFEFF80
FFFFFF80
FFFFFFC0
1F3F07C0
1F3E07C0
1F3E07C0
1F3E07C0
1F3E07C0
1F3E07C0
1F3E07C0
1F3E07C0
1F3E07C0
1F3E07C0
1F3E07C0
1F3E07C0
1F3E07C0
1F3E07C0
000003C0
000003C0
000003C0
00001FC0
00001FC0
00001F80
00001F00
ENDCHAR
STARTCHAR 02AA
ENCODING 682
SWIDTH 690 0
DWIDTH 23 0
BBX 20 25 2 -1
BITMAP
F80000
F80000
F80000
F80000
F80000
F80000
F9FF00
FBFF80
FFFFC0
FFC7E0
FF83E0
FF83E0
FFE000
FFFE00
FFFF80
FBFFC0
F8FFE0
F80FE0
FF01F0
FF01F0
FF83E0
FFFFE0
FFFFC0
FBFF80
007C00
ENDCHAR
STARTCHAR 02AB
ENCODING 683
SWIDTH 660 0
DWIDTH 22 0
BBX 19 24 2 0
BITMAP
F80000
F80000
F80000
F80000
F80000
F80000
FFFFE0
FFFFE0
FFFFE0
FFFFE0
F80FC0
F80F80
F81F80
F83F00
F87E00
F8FC00
F9F800
FBF000
FFE000
FFC000
FFFFE0
FFFFE0
FFFFE0
FFFFE0
ENDCHAR
STARTCHAR 02AC
ENCODING 684
SWIDTH 450 0
DWIDTH 15 0
BBX 14 24 0 0
BITMAP
E38C
639C
779C
779C
76D8
36D8
34F8
3CF0
3C70
1C70
0000
0000
0000
0000
E38C
639C
779C
779C
76D8
36D8
34F8
3CF0
1C70
1C70
ENDCHAR
STARTCHAR 02AD
ENCODING 685
SWIDTH 600 0
DWIDTH 20 0
BBX 18 22 1 0
BITMAP
FFFFC0
FFFFC0
FFFFC0
E001C0
E001C0
E001C0
E001C0
E001C0
000000
000000
000000
000000
000000
FFFFC0
FFFFC0
FFFFC0
E001C0
E001C0
E001C0
E001C0
E001C0
E001C0
ENDCHAR
STARTCHAR 02AE
ENCODING 686
SWIDTH 600 0
DWIDTH 20 0
BBX 18 29 0 -6
BITMAP
F80000
FC0000
FE0000
FE0000
3E0000
3E03C0
3E03C0
3E03C0
3E03C0
3E03C0
3E03C0
3E03C0
3E03C0
3E03C0
3E03C0
3E03C0
3E07C0
3E07C0
3E07C0
3F9FC0
1FFFC0
1FFBC0
0FF3C0
0083C0
0003C0
0003C0
0003C0
0003C0
0003C0
ENDCHAR
STARTCHAR 02AF
ENCODING 687
SWIDTH 600 0
DWIDTH 20 0
BBX 20 30 0 -7
BITMAP
F80000
FC0000
FE0000
FE0000
3E0000
3E03C0
3E03C0
3E03C0
3E03C0
3E03C0
3E03C0
3E03C0
3E03C0
3E03C0
3E03C0
3E03C0
3E07C0
3E07C0
3E07C0
3F9FC0
1FFFC0
1FFBC0
0FF3C0
0083C0
0003C0
0003C0
0003F0
0003F0
0003F0
0001F0
ENDCHAR
STARTCHAR 02B0
ENCODING 688
SWIDTH 300 0
DWIDTH 10 0
BBX 8 12 1 12
BITMAP
C0
C0
C0
DE
FF
E7
E3
C3
C3
C3
C3
C3
ENDCHAR
STARTCHAR 02B1
ENCODING 689
SWIDTH 300 0
DWIDTH 10 0
BBX 8 13 1 12
BITMAP
70
F0
C0
C0
DE
FF
E7
E3
C3
C3
C3
C3
C3
ENDCHAR
STARTCHAR 02B2
ENCODING 690
SWIDTH 150 0
DWIDTH 5 0
BBX 3 16 0 8
BITMAP
60
60
00
60
60
60
60
60
60
60
60
60
60
60
E0
C0
ENDCHAR
STARTCHAR 02B3
ENCODING 691
SWIDTH 210 0
DWIDTH 7 0
BBX 5 9 1 12
BITMAP
D8
F8
F0
E0
C0
C0
C0
C0
C0
ENDCHAR
STARTCHAR 02B4
ENCODING 692
SWIDTH 210 0
DWIDTH 7 0
BBX 5 9 1 12
BITMAP
18
18
18
18
18
18
38
F8
D8
ENDCHAR
STARTCHAR 02B5
ENCODING 693
SWIDTH 240 0
DWIDTH 8 0
BBX 6 13 1 8
BITMAP
18
18
18
18
18
18
38
F8
D8
18
18
1C
0C
ENDCHAR
STARTCHAR 02B6
ENCODING 694
SWIDTH 390 0
DWIDTH 13 0
BBX 11 13 1 11
BITMAP
F1E0
F1C0
F1C0
F1C0
FFC0
FFC0
FF80
FFC0
F1E0
F1E0
FFC0
FFC0
FF00
ENDCHAR
STARTCHAR 02B7
ENCODING 695
SWIDTH 390 0
DWIDTH 13 0
BBX 13 9 0 12
BITMAP
E738
E730
6730
6530
7DF0
3DE0
3DE0
39E0
38C0
ENDCHAR
STARTCHAR 02B8
ENCODING 696
SWIDTH 270 0
DWIDTH 9 0
BBX 9 13 0 8
BITMAP
E380
6380
6300
7300
3600
3600
3E00
1C00
1C00
1C00
1800
7800
7000
ENDCHAR
STARTCHAR 02B9
ENCODING 697
SWIDTH 330 0
DWIDTH 11 0
BBX 8 10 3 14
BITMAP
1F
3E
3E
3C
3C
78
78
70
F0
E0
ENDCHAR
STARTCHAR 02BA
ENCODING 698
SWIDTH 600 0
DWIDTH 20 0
BBX 16 10 3 14
BITMAP
1F1F
3E1F
3E3E
3C3E
3C3C
787C
7878
7078
F070
E0F0
ENDCHAR
STARTCHAR 02BB
ENCODING 699
SWIDTH 270 0
DWIDTH 9 0
BBX 5 9 2 15
BITMAP
18
78
60
C0
C0
F8
F8
F8
F8
ENDCHAR
STARTCHAR 02BC
ENCODING 700
SWIDTH 270 0
DWIDTH 9 0
BBX 5 9 2 15
BITMAP
F8
F8
F8
F8
18
18
30
F0
C0
ENDCHAR
STARTCHAR 02BD
ENCODING 701
SWIDTH 270 0
DWIDTH 9 0
BBX 5 9 2 15
BITMAP
F8
F8
F8
F8
C0
C0
60
78
18
ENDCHAR
STARTCHAR 02BE
ENCODING 702
SWIDTH 210 0
DWIDTH 7 0
BBX 3 7 2 20
BITMAP
C0
E0
60
20
60
E0
C0
ENDCHAR
STARTCHAR 02BF
ENCODING 703
SWIDTH 210 0
DWIDTH 7 0
BBX 3 7 2 20
BITMAP
60
E0
C0
80
C0
E0
60
ENDCHAR
STARTCHAR 02C0
ENCODING 704
SWIDTH 300 0
DWIDTH 10 0
BBX 8 12 1 12
BITMAP
3C
7F
E7
C3
07
0F
1C
18
18
18
18
18
ENDCHAR
STARTCHAR 02C1
ENCODING 705
SWIDTH 300 0
DWIDTH 10 0
BBX 8 12 1 12
BITMAP
3C
7F
E7
C3
E0
70
38
18
18
18
18
18
ENDCHAR
STARTCHAR 02C2
ENCODING 706
SWIDTH 300 0
DWIDTH 10 0
BBX 10 9 0 12
BITMAP
0040
03C0
1F80
7C00
F000
F800
3F00
07C0
01C0
ENDCHAR
STARTCHAR 02C3
ENCODING 707
SWIDTH 300 0
DWIDTH 10 0
BBX 10 9 0 12
BITMAP
8000
F000
7E00
0F80
03C0
07C0
3F00
F800
E000
ENDCHAR
STARTCHAR 02C4
ENCODING 708
SWIDTH 300 0
DWIDTH 10 0
BBX 10 10 0 11
BITMAP
0C00
1E00
1E00
1E00
3300
3300
7380
6180
6180
E1C0
ENDCHAR
STARTCHAR 02C5
ENCODING 709
SWIDTH 300 0
DWIDTH 10 0
BBX 8 10 1 11
BITMAP
C3
C3
C7
66
66
7E
3C
3C
18
18
ENDCHAR
STARTCHAR 02C6
ENCODING 710
SWIDTH 270 0
DWIDTH 9 0
BBX 11 5 -1 19
BITMAP
1F00
3F80
7BC0
F3C0
E1E0
ENDCHAR
STARTCHAR 02C7
ENCODING 711
SWIDTH 270 0
DWIDTH 9 0
BBX 11 5 -1 19
BITMAP
F1E0
73C0
7F80
3F00
1F00
ENDCHAR
STARTCHAR 02C8
ENCODING 712
SWIDTH 330 0
DWIDTH 11 0
BBX 3 5 4 19
BITMAP
E0
E0
E0
E0
E0
ENDCHAR
STARTCHAR 02C9
ENCODING 713
SWIDTH 270 0
DWIDTH 9 0
BBX 12 2 -2 21
BITMAP
FFF0
FFF0
ENDCHAR
STARTCHAR 02CA
ENCODING 714
SWIDTH 330 0
DWIDTH 11 0
BBX 8 5 3 20
BITMAP
1F
3E
7C
78
F0
ENDCHAR
STARTCHAR 02CB
ENCODING 715
SWIDTH 330 0
DWIDTH 11 0
BBX 7 5 1 20
BITMAP
F8
78
3C
1E
0E
ENDCHAR
STARTCHAR 02CC
ENCODING 716
SWIDTH 330 0
DWIDTH 11 0
BBX 3 5 4 -7
BITMAP
E0
E0
E0
E0
E0
ENDCHAR
STARTCHAR 02CD
ENCODING 717
SWIDTH 330 0
DWIDTH 11 0
BBX 11 3 0 -5
BITMAP
FFE0
FFE0
FFE0
ENDCHAR
STARTCHAR 02CE
ENCODING 718
SWIDTH 330 0
DWIDTH 11 0
BBX 7 5 1 -6
BITMAP
F8
78
3C
1C
0E
ENDCHAR
STARTCHAR 02CF
ENCODING 719
SWIDTH 330 0
DWIDTH 11 0
BBX 8 5 3 -6
BITMAP
1F
3E
7C
78
F0
ENDCHAR
STARTCHAR 02D0
ENCODING 720
SWIDTH 210 0
DWIDTH 7 0
BBX 7 18 0 0
BITMAP
FE
FE
7C
7C
38
38
10
00
00
00
00
00
38
38
7C
7C
FE
FE
ENDCHAR
STARTCHAR 02D1
ENCODING 721
SWIDTH 210 0
DWIDTH 7 0
BBX 7 6 0 8
BITMAP
FE
7C
7C
38
38
10
ENDCHAR
STARTCHAR 02D2
ENCODING 722
SWIDTH 210 0
DWIDTH 7 0
BBX 3 7 2 7
BITMAP
C0
E0
60
20
60
E0
C0
ENDCHAR
STARTCHAR 02D3
ENCODING 723
SWIDTH 210 0
DWIDTH 7 0
BBX 3 7 2 7
BITMAP
60
E0
C0
80
C0
E0
60
ENDCHAR
STARTCHAR 02D4
ENCODING 724
SWIDTH 300 0
DWIDTH 10 0
BBX 8 9 1 0
BITMAP
18
18
18
18
18
18
18
FF
FF
ENDCHAR
STARTCHAR 02D5
ENCODING 725
SWIDTH 300 0
DWIDTH 10 0
BBX 8 9 1 0
BITMAP
FF
FF
18
18
18
18
18
18
18
ENDCHAR
STARTCHAR 02D6
ENCODING 726
SWIDTH 300 0
DWIDTH 10 0
BBX 8 9 1 0
BITMAP
18
18
18
18
FF
FF
18
18
18
ENDCHAR
STARTCHAR 02D7
ENCODING 727
SWIDTH 330 0
DWIDTH 11 0
BBX 9 2 1 7
BITMAP
FF80
FF80
ENDCHAR
STARTCHAR 02D8
ENCODING 728
SWIDTH 270 0
DWIDTH 9 0
BBX 11 5 -1 19
BITMAP
C060
E0E0
FFC0
7F80
0E00
ENDCHAR
STARTCHAR 02D9
ENCODING 729
SWIDTH 270 0
DWIDTH 9 0
BBX 5 4 2 21
BITMAP
F8
F8
F8
F8
ENDCHAR
STARTCHAR 02DA
ENCODING 730
SWIDTH 270 0
DWIDTH 9 0
BBX 8 8 0 18
BITMAP
3C
7E
63
C3
C3
E3
7F
3E
ENDCHAR
STARTCHAR 02DB
ENCODING 731
SWIDTH 270 0
DWIDTH 9 0
BBX 6 8 1 -7
BITMAP
0C
30
60
E0
E0
F4
FC
3C
ENDCHAR
STARTCHAR 02DC
ENCODING 732
SWIDTH 270 0
DWIDTH 9 0
BBX 12 4 -2 20
BITMAP
3E30
7FF0
6FF0
C3E0
ENDCHAR
STARTCHAR 02DD
ENCODING 733
SWIDTH 270 0
DWIDTH 9 0
BBX 15 5 -2 19
BITMAP
1F3E
3E7C
3CF8
78F0
F1C0
ENDCHAR
STARTCHAR 02DE
ENCODING 734
SWIDTH 420 0
DWIDTH 14 0
BBX 13 8 0 6
BITMAP
0300
3F00
FF00
FF00
E710
03B8
03F8
01F0
ENDCHAR
STARTCHAR 02DF
ENCODING 735
SWIDTH 300 0
DWIDTH 10 0
BBX 8 8 1 13
BITMAP
C3
E7
7E
3C
3C
7E
E7
42
ENDCHAR
STARTCHAR 02E0
ENCODING 736
SWIDTH 270 0
DWIDTH 9 0
BBX 9 12 0 9
BITMAP
E380
6380
7300
7700
3700
3600
3E00
1C00
1C00
1C00
1C00
1C00
ENDCHAR
STARTCHAR 02E1
ENCODING 737
SWIDTH 150 0
DWIDTH 5 0
BBX 2 12 1 12
BITMAP
C0
C0
C0
C0
C0
C0
C0
C0
C0
C0
C0
C0
ENDCHAR
STARTCHAR 02E2
ENCODING 738
SWIDTH 270 0
DWIDTH 9 0
BBX 8 9 1 12
BITMAP
7C
FE
C6
F0
FE
3E
C7
E6
FE
ENDCHAR
STARTCHAR 02E3
ENCODING 739
SWIDTH 270 0
DWIDTH 9 0
BBX 9 9 0 12
BITMAP
E380
7700
3600
3E00
1C00
1E00
3E00
7700
6380
ENDCHAR
STARTCHAR 02E4
ENCODING 740
SWIDTH 300 0
DWIDTH 10 0
BBX 8 12 1 12
BITMAP
3C
7F
E7
C3
E0
70
38
18
18
18
18
18
ENDCHAR
STARTCHAR 02E5
ENCODING 741
SWIDTH 480 0
DWIDTH 16 0
BBX 15 24 0 0
BITMAP
FFFE
FFFE
FFFE
FFFE
003E
003E
003E
003E
003E
003E
003E
003E
003E
003E
003E
003E
003E
003E
003E
003E
003E
003E
003E
003E
ENDCHAR
STARTCHAR 02E6
ENCODING 742
SWIDTH 480 0
DWIDTH 16 0
BBX 15 24 0 0
BITMAP
003E
003E
003E
003E
003E
FFFE
FFFE
FFFE
FFFE
003E
003E
003E
003E
003E
003E
003E
003E
003E
003E
003E
003E
003E
003E
003E
ENDCHAR
STARTCHAR 02E7
ENCODING 743
SWIDTH 480 0
DWIDTH 16 0
BBX 15 24 0 0
BITMAP
003E
003E
003E
003E
003E
003E
003E
003E
003E
003E
FFFE
FFFE
FFFE
FFFE
003E
003E
003E
003E
003E
003E
003E
003E
003E
003E
ENDCHAR
STARTCHAR 02E8
ENCODING 744
SWIDTH 480 0
DWIDTH 16 0
BBX 15 24 0 0
BITMAP
003E
003E
003E
003E
003E
003E
003E
003E
003E
003E
003E
003E
003E
003E
003E
FFFE
FFFE
FFFE
FFFE
003E
003E
003E
003E
003E
ENDCHAR
STARTCHAR 02E9
ENCODING 745
SWIDTH 480 0
DWIDTH 16 0
BBX 15 24 0 0
BITMAP
003E
003E
003E
003E
003E
003E
003E
003E
003E
003E
003E
003E
003E
003E
003E
003E
003E
003E
003E
003E
FFFE
FFFE
FFFE
FFFE
ENDCHAR
STARTCHAR 02EA
ENCODING 746
SWIDTH 300 0
DWIDTH 10 0
BBX 9 18 1 0
BITMAP
C000
C000
C000
C000
C000
C000
C000
C000
C000
C000
C000
C000
C000
C000
C000
C000
FF80
FF80
ENDCHAR
STARTCHAR 02EB
ENCODING 747
SWIDTH 300 0
DWIDTH 10 0
BBX 9 18 1 0
BITMAP
C000
C000
C000
C000
C000
C000
C000
C000
FF80
FF80
C000
C000
C000
C000
C000
C000
C000
C000
ENDCHAR
STARTCHAR 02EC
ENCODING 748
SWIDTH 330 0
DWIDTH 11 0
BBX 11 5 0 -6
BITMAP
F1E0
79C0
3BC0
3F80
1F00
ENDCHAR
STARTCHAR 02ED
ENCODING 749
SWIDTH 330 0
DWIDTH 11 0
BBX 11 8 0 16
BITMAP
FFE0
FFE0
FFE0
0000
0000
FFE0
FFE0
FFE0
ENDCHAR
STARTCHAR 02EE
ENCODING 750
SWIDTH 510 0
DWIDTH 17 0
BBX 13 9 2 15
BITMAP
F8F8
F8F8
F8F8
F8F8
1818
1838
3030
70F0
60C0
ENDCHAR
STARTCHAR 02EF
ENCODING 751
SWIDTH 300 0
DWIDTH 10 0
BBX 10 10 0 -8
BITMAP
E1C0
6180
6180
7380
3300
3300
1E00
1E00
1E00
0C00
ENDCHAR
STARTCHAR 02F0
ENCODING 752
SWIDTH 300 0
DWIDTH 10 0
BBX 9 10 0 -8
BITMAP
0C00
0C00
1E00
1E00
3F00
3300
3300
6180
6180
E180
ENDCHAR
STARTCHAR 02F1
ENCODING 753
SWIDTH 300 0
DWIDTH 10 0
BBX 10 9 0 -8
BITMAP
01C0
07C0
3F00
F800
F000
7C00
1F80
03C0
0040
ENDCHAR
STARTCHAR 02F2
ENCODING 754
SWIDTH 300 0
DWIDTH 10 0
BBX 10 9 0 -8
BITMAP
E000
F800
3F00
07C0
03C0
1F80
7E00
F000
8000
ENDCHAR
STARTCHAR 02F3
ENCODING 755
SWIDTH 330 0
DWIDTH 11 0
BBX 7 7 2 -6
BITMAP
38
7C
C6
C6
C6
7E
7C
ENDCHAR
STARTCHAR 02F4
ENCODING 756
SWIDTH 330 0
DWIDTH 11 0
BBX 8 5 0 10
BITMAP
FC
7C
3E
0E
07
ENDCHAR
STARTCHAR 02F5
ENCODING 757
SWIDTH 330 0
DWIDTH 11 0
BBX 14 5 0 10
BITMAP
F8F0
7CF8
3C78
1E3C
0E1C
ENDCHAR
STARTCHAR 02F6
ENCODING 758
SWIDTH 330 0
DWIDTH 11 0
BBX 14 5 0 10
BITMAP
3E3C
3C78
7870
78F0
F1E0
ENDCHAR
STARTCHAR 02F7
ENCODING 759
SWIDTH 330 0
DWIDTH 11 0
BBX 12 4 0 0
BITMAP
7C70
FFE0
FFE0
C180
ENDCHAR
STARTCHAR 02F8
ENCODING 760
SWIDTH 330 0
DWIDTH 11 0
BBX 5 17 4 7
BITMAP
F8
F8
F8
F8
F8
00
00
00
00
00
00
00
F8
F8
F8
F8
F8
ENDCHAR
STARTCHAR 02F9
ENCODING 761
SWIDTH 330 0
DWIDTH 11 0
BBX 5 10 3 14
BITMAP
F8
F8
C0
C0
C0
C0
C0
C0
C0
C0
ENDCHAR
STARTCHAR 02FA
ENCODING 762
SWIDTH 330 0
DWIDTH 11 0
BBX 5 10 3 14
BITMAP
F8
F8
18
18
18
18
18
18
18
18
ENDCHAR
STARTCHAR 02FB
ENCODING 763
SWIDTH 330 0
DWIDTH 11 0
BBX 5 10 3 0
BITMAP
C0
C0
C0
C0
C0
C0
C0
C0
F8
F8
ENDCHAR
STARTCHAR 02FC
ENCODING 764
SWIDTH 330 0
DWIDTH 11 0
BBX 5 10 3 0
BITMAP
18
18
18
18
18
18
18
18
F8
F8
ENDCHAR
STARTCHAR 02FD
ENCODING 765
SWIDTH 330 0
DWIDTH 11 0
BBX 10 5 1 0
BITMAP
80C0
80C0
80C0
FFC0
FFC0
ENDCHAR
STARTCHAR 02FE
ENCODING 766
SWIDTH 330 0
DWIDTH 11 0
BBX 10 5 1 0
BITMAP
8000
8000
8000
FFC0
FFC0
ENDCHAR
STARTCHAR 02FF
ENCODING 767
SWIDTH 600 0
DWIDTH 20 0
BBX 19 7 1 0
BITMAP
018000
0F8000
7FFFE0
FFFFE0
1FFFE0
078000
008000
ENDCHAR
STARTCHAR 0300
ENCODING 768
SWIDTH 0 0
DWIDTH 0 0
BBX 8 6 -10 20
BITMAP
F8
7C
3E
1E
0F
07
ENDCHAR
STARTCHAR 0301
ENCODING 769
SWIDTH 0 0
DWIDTH 0 0
BBX 8 6 -7 20
BITMAP
1F
1E
3C
3C
78
F0
ENDCHAR
STARTCHAR 0302
ENCODING 770
SWIDTH 0 0
DWIDTH 0 0
BBX 11 5 -10 19
BITMAP
1F00
3F80
3BC0
71E0
F0E0
ENDCHAR
STARTCHAR 0303
ENCODING 771
SWIDTH 0 0
DWIDTH 0 0
BBX 12 4 -10 20
BITMAP
7C70
7FE0
FFE0
C3C0
ENDCHAR
STARTCHAR 0304
ENCODING 772
SWIDTH 0 0
DWIDTH 0 0
BBX 12 2 -10 21
BITMAP
FFF0
FFF0
ENDCHAR
STARTCHAR 0305
ENCODING 773
SWIDTH 0 0
DWIDTH 0 0
BBX 12 3 -16 21
BITMAP
FFF0
FFF0
FFF0
ENDCHAR
STARTCHAR 0306
ENCODING 774
SWIDTH 0 0
DWIDTH 0 0
BBX 11 5 -10 19
BITMAP
E060
E0E0
7FC0
3FC0
0E00
ENDCHAR
STARTCHAR 0307
ENCODING 775
SWIDTH 0 0
DWIDTH 0 0
BBX 5 4 -7 21
BITMAP
F8
F8
F8
F8
ENDCHAR
STARTCHAR 0308
ENCODING 776
SWIDTH 0 0
DWIDTH 0 0
BBX 11 4 -10 20
BITMAP
F9E0
F9E0
F9E0
F9E0
ENDCHAR
STARTCHAR 0309
ENCODING 777
SWIDTH 0 0
DWIDTH 0 0
BBX 6 7 -11 20
BITMAP
60
FC
1C
0C
1C
70
60
ENDCHAR
STARTCHAR 030A
ENCODING 778
SWIDTH 0 0
DWIDTH 0 0
BBX 8 8 -8 18
BITMAP
3C
7E
C7
C3
C3
C7
FE
7C
ENDCHAR
STARTCHAR 030B
ENCODING 779
SWIDTH 0 0
DWIDTH 0 0
BBX 14 5 -10 19
BITMAP
3E7C
3CF8
78F0
F1E0
E1C0
ENDCHAR
STARTCHAR 030C
ENCODING 780
SWIDTH 0 0
DWIDTH 0 0
BBX 11 5 -10 19
BITMAP
F1E0
79C0
3FC0
1F80
1F00
ENDCHAR
STARTCHAR 030D
ENCODING 781
SWIDTH 0 0
DWIDTH 0 0
BBX 2 5 -11 19
BITMAP
C0
C0
C0
C0
C0
ENDCHAR
STARTCHAR 030E
ENCODING 782
SWIDTH 0 0
DWIDTH 0 0
BBX 8 5 -14 19
BITMAP
C7
C7
C7
C7
C7
ENDCHAR
STARTCHAR 030F
ENCODING 783
SWIDTH 0 0
DWIDTH 0 0
BBX 14 5 -17 20
BITMAP
F9F0
78F0
3C78
1C38
1E1C
ENDCHAR
STARTCHAR 0310
ENCODING 784
SWIDTH 0 0
DWIDTH 0 0
BBX 11 9 -16 20
BITMAP
0F00
0F00
0F00
0F00
C060
E0E0
7FE0
3FC0
1F00
ENDCHAR
STARTCHAR 0311
ENCODING 785
SWIDTH 0 0
DWIDTH 0 0
BBX 11 5 -16 20
BITMAP
1F80
3FC0
7FE0
E060
C060
ENDCHAR
STARTCHAR 0312
ENCODING 786
SWIDTH 0 0
DWIDTH 0 0
BBX 5 9 -13 15
BITMAP
18
38
60
60
60
F8
F8
F8
F8
ENDCHAR
STARTCHAR 0313
ENCODING 787
SWIDTH 0 0
DWIDTH 0 0
BBX 5 9 -13 15
BITMAP
F8
F8
F8
F8
18
18
38
70
60
ENDCHAR
STARTCHAR 0314
ENCODING 788
SWIDTH 0 0
DWIDTH 0 0
BBX 5 9 -13 15
BITMAP
F8
F8
F8
F8
60
60
70
38
08
ENDCHAR
STARTCHAR 0315
ENCODING 789
SWIDTH 0 0
DWIDTH 0 0
BBX 5 9 -13 15
BITMAP
F8
F8
F8
F8
18
18
38
70
60
ENDCHAR
STARTCHAR 0316
ENCODING 790
SWIDTH 0 0
DWIDTH 0 0
BBX 8 5 -14 -6
BITMAP
F8
7C
3C
1E
0F
ENDCHAR
STARTCHAR 0317
ENCODING 791
SWIDTH 0 0
DWIDTH 0 0
BBX 8 5 -14 -6
BITMAP
3F
3C
78
70
E0
ENDCHAR
STARTCHAR 0318
ENCODING 792
SWIDTH 0 0
DWIDTH 0 0
BBX 9 9 -15 -9
BITMAP
0180
0180
0180
0180
FF80
FF80
0180
0180
0180
ENDCHAR
STARTCHAR 0319
ENCODING 793
SWIDTH 0 0
DWIDTH 0 0
BBX 9 9 -15 -9
BITMAP
E000
E000
E000
E000
FF80
FF80
E000
E000
E000
ENDCHAR
STARTCHAR 031A
ENCODING 794
SWIDTH 0 0
DWIDTH 0 0
BBX 9 6 -15 17
BITMAP
FF80
FF80
0180
0180
0180
0180
ENDCHAR
STARTCHAR 031B
ENCODING 795
SWIDTH 0 0
DWIDTH 0 0
BBX 11 7 -16 14
BITMAP
00C0
03C0
07E0
03E0
03E0
7F80
FE00
ENDCHAR
STARTCHAR 031C
ENCODING 796
SWIDTH 0 0
DWIDTH 0 0
BBX 4 7 -12 -6
BITMAP
30
70
C0
C0
C0
70
30
ENDCHAR
STARTCHAR 031D
ENCODING 797
SWIDTH 0 0
DWIDTH 0 0
BBX 9 9 -15 -9
BITMAP
0C00
0C00
0C00
0C00
0C00
0C00
0C00
FF80
FF80
ENDCHAR
STARTCHAR 031E
ENCODING 798
SWIDTH 0 0
DWIDTH 0 0
BBX 9 9 -15 -9
BITMAP
FF80
FF80
FF80
0C00
0C00
0C00
0C00
0C00
0C00
ENDCHAR
STARTCHAR 031F
ENCODING 799
SWIDTH 0 0
DWIDTH 0 0
BBX 9 9 -15 -9
BITMAP
0C00
0C00
0C00
0C00
FF80
FF80
0C00
0C00
0C00
ENDCHAR
STARTCHAR 0320
ENCODING 800
SWIDTH 0 0
DWIDTH 0 0
BBX 12 3 -16 -5
BITMAP
FFF0
FFF0
FFF0
ENDCHAR
STARTCHAR 0321
ENCODING 801
SWIDTH 0 0
DWIDTH 0 0
BBX 4 8 -12 -8
BITMAP
70
70
70
70
70
70
E0
E0
ENDCHAR
STARTCHAR 0322
ENCODING 802
SWIDTH 0 0
DWIDTH 0 0
BBX 4 8 -12 -8
BITMAP
C0
C0
C0
C0
C0
C0
F0
70
ENDCHAR
STARTCHAR 0323
ENCODING 803
SWIDTH 0 0
DWIDTH 0 0
BBX 4 4 -12 -7
BITMAP
F0
F0
F0
F0
ENDCHAR
STARTCHAR 0324
ENCODING 804
SWIDTH 0 0
DWIDTH 0 0
BBX 11 4 -16 -6
BITMAP
F9E0
F9E0
F9E0
F9E0
ENDCHAR
STARTCHAR 0325
ENCODING 805
SWIDTH 0 0
DWIDTH 0 0
BBX 7 7 -14 -6
BITMAP
3C
7E
C6
C2
C6
7E
3C
ENDCHAR
STARTCHAR 0326
ENCODING 806
SWIDTH 0 0
DWIDTH 0 0
BBX 5 9 -13 -11
BITMAP
F8
F8
F8
F8
18
18
38
70
60
ENDCHAR
STARTCHAR 0327
ENCODING 807
SWIDTH 0 0
DWIDTH 0 0
BBX 8 7 -8 -7
BITMAP
18
30
7E
0F
07
FF
FE
ENDCHAR
STARTCHAR 0328
ENCODING 808
SWIDTH 0 0
DWIDTH 0 0
BBX 7 8 -8 -7
BITMAP
0C
30
60
60
E0
FA
7E
3C
ENDCHAR
STARTCHAR 0329
ENCODING 809
SWIDTH 0 0
DWIDTH 0 0
BBX 2 5 -11 -7
BITMAP
C0
C0
C0
C0
C0
ENDCHAR
STARTCHAR 032A
ENCODING 810
SWIDTH 0 0
DWIDTH 0 0
BBX 12 5 -16 -5
BITMAP
FFF0
FFF0
C030
C030
C030
ENDCHAR
STARTCHAR 032B
ENCODING 811
SWIDTH 0 0
DWIDTH 0 0
BBX 20 5 -20 -6
BITMAP
C06030
E0E070
FFFFE0
7FFFE0
1F0F80
ENDCHAR
STARTCHAR 032C
ENCODING 812
SWIDTH 0 0
DWIDTH 0 0
BBX 11 5 -16 -6
BITMAP
F0E0
79E0
3FC0
1F80
1F00
ENDCHAR
STARTCHAR 032D
ENCODING 813
SWIDTH 0 0
DWIDTH 0 0
BBX 11 5 -16 -6
BITMAP
1F00
1F80
3FC0
79E0
F0E0
ENDCHAR
STARTCHAR 032E
ENCODING 814
SWIDTH 0 0
DWIDTH 0 0
BBX 11 5 -16 -6
BITMAP
C060
E060
7FE0
3FC0
1F00
ENDCHAR
STARTCHAR 032F
ENCODING 815
SWIDTH 0 0
DWIDTH 0 0
BBX 11 5 -16 -6
BITMAP
1F80
3FC0
7FE0
E060
C060
ENDCHAR
STARTCHAR 0330
ENCODING 816
SWIDTH 0 0
DWIDTH 0 0
BBX 12 5 -16 -6
BITMAP
0030
7E70
FFE0
E7E0
C000
ENDCHAR
STARTCHAR 0331
ENCODING 817
SWIDTH 0 0
DWIDTH 0 0
BBX 10 3 -15 -5
BITMAP
FFC0
FFC0
FFC0
ENDCHAR
STARTCHAR 0332
ENCODING 818
SWIDTH 0 0
DWIDTH 0 0
BBX 12 3 -16 -5
BITMAP
FFF0
FFF0
FFF0
ENDCHAR
STARTCHAR 0333
ENCODING 819
SWIDTH 0 0
DWIDTH 0 0
BBX 12 8 -16 -10
BITMAP
FFF0
FFF0
FFF0
0000
0000
FFF0
FFF0
FFF0
ENDCHAR
STARTCHAR 0334
ENCODING 820
SWIDTH 0 0
DWIDTH 0 0
BBX 12 5 -16 7
BITMAP
0030
7E70
FFE0
E7E0
C000
ENDCHAR
STARTCHAR 0335
ENCODING 821
SWIDTH 0 0
DWIDTH 0 0
BBX 12 3 -16 8
BITMAP
FFF0
FFF0
FFF0
ENDCHAR
STARTCHAR 0336
ENCODING 822
SWIDTH 0 0
DWIDTH 0 0
BBX 12 3 -16 8
BITMAP
FFF0
FFF0
FFF0
ENDCHAR
STARTCHAR 0337
ENCODING 823
SWIDTH 0 0
DWIDTH 0 0
BBX 12 12 -16 6
BITMAP
00F0
01E0
01C0
03C0
0780
0F00
0E00
1E00
3C00
7800
7000
F000
ENDCHAR
STARTCHAR 0338
ENCODING 824
SWIDTH 0 0
DWIDTH 0 0
BBX 13 25 -13 -1
BITMAP
0078
0078
0070
00F0
00F0
01E0
01E0
01E0
03C0
03C0
0380
0780
0780
0F00
0F00
0F00
1E00
1E00
1C00
3C00
3C00
7800
7800
7800
F000
ENDCHAR
STARTCHAR 0339
ENCODING 825
SWIDTH 0 0
DWIDTH 0 0
BBX 4 7 -12 -6
BITMAP
C0
E0
20
30
20
E0
C0
ENDCHAR
STARTCHAR 033A
ENCODING 826
SWIDTH 0 0
DWIDTH 0 0
BBX 12 5 -16 -5
BITMAP
C030
C030
C030
FFF0
FFF0
ENDCHAR
STARTCHAR 033B
ENCODING 827
SWIDTH 0 0
DWIDTH 0 0
BBX 9 10 -15 -10
BITMAP
FF80
FF80
C180
C180
C180
C180
C180
C180
FF80
FF80
ENDCHAR
STARTCHAR 033C
ENCODING 828
SWIDTH 0 0
DWIDTH 0 0
BBX 16 5 -18 -6
BITMAP
3C3C
FFFE
FFFF
0380
0180
ENDCHAR
STARTCHAR 033D
ENCODING 829
SWIDTH 0 0
DWIDTH 0 0
BBX 8 8 -14 18
BITMAP
C2
E7
7E
3C
3C
7E
E7
C3
ENDCHAR
STARTCHAR 033E
ENCODING 830
SWIDTH 0 0
DWIDTH 0 0
BBX 4 11 -12 17
BITMAP
70
F0
E0
E0
E0
E0
60
70
70
E0
E0
ENDCHAR
STARTCHAR 033F
ENCODING 831
SWIDTH 0 0
DWIDTH 0 0
BBX 12 8 -16 16
BITMAP
FFF0
FFF0
FFF0
0000
0000
FFF0
FFF0
FFF0
ENDCHAR
STARTCHAR 0340
ENCODING 832
SWIDTH 0 0
DWIDTH 0 0
BBX 8 5 -14 20
BITMAP
F8
7C
3C
1E
0F
ENDCHAR
STARTCHAR 0341
ENCODING 833
SWIDTH 0 0
DWIDTH 0 0
BBX 7 5 -14 20
BITMAP
3E
3C
78
70
E0
ENDCHAR
STARTCHAR 0342
ENCODING 834
SWIDTH 0 0
DWIDTH 0 0
BBX 11 5 -16 20
BITMAP
1F80
3FC0
7FE0
E060
C060
ENDCHAR
STARTCHAR 0343
ENCODING 835
SWIDTH 0 0
DWIDTH 0 0
BBX 5 9 -13 15
BITMAP
F8
F8
F8
F8
18
18
38
70
60
ENDCHAR
STARTCHAR 0344
ENCODING 836
SWIDTH 0 0
DWIDTH 0 0
BBX 12 4 -16 21
BITMAP
0780
E770
EE70
EC70
ENDCHAR
STARTCHAR 0345
ENCODING 837
SWIDTH 0 0
DWIDTH 0 0
BBX 2 8 -11 -10
BITMAP
C0
C0
C0
C0
C0
C0
C0
C0
ENDCHAR
STARTCHAR 0346
ENCODING 838
SWIDTH 0 0
DWIDTH 0 0
BBX 12 5 -16 21
BITMAP
FFF0
FFF0
C030
C030
C030
ENDCHAR
STARTCHAR 0347
ENCODING 839
SWIDTH 0 0
DWIDTH 0 0
BBX 10 8 -15 -10
BITMAP
FFC0
FFC0
FFC0
0000
0000
FFC0
FFC0
FFC0
ENDCHAR
STARTCHAR 0348
ENCODING 840
SWIDTH 0 0
DWIDTH 0 0
BBX 8 5 -14 -7
BITMAP
C7
C7
C7
C7
C7
ENDCHAR
STARTCHAR 0349
ENCODING 841
SWIDTH 0 0
DWIDTH 0 0
BBX 5 5 -13 -5
BITMAP
F8
F8
08
08
08
ENDCHAR
STARTCHAR 034A
ENCODING 842
SWIDTH 0 0
DWIDTH 0 0
BBX 12 7 -15 20
BITMAP
0300
0330
7E30
7FE0
C7E0
0C00
0C00
ENDCHAR
STARTCHAR 034B
ENCODING 843
SWIDTH 0 0
DWIDTH 0 0
BBX 12 11 -15 18
BITMAP
0180
0380
0380
0030
7E30
7FE0
C3E0
0800
1C00
1C00
0800
ENDCHAR
STARTCHAR 034C
ENCODING 844
SWIDTH 0 0
DWIDTH 0 0
BBX 12 8 -15 20
BITMAP
1030
7E30
7FE0
C3E0
0000
7C30
7FF0
C3E0
ENDCHAR
STARTCHAR 034D
ENCODING 845
SWIDTH 0 0
DWIDTH 0 0
BBX 29 7 -25 -8
BITMAP
00C00C00
07C00F00
1FFFFFE0
FFFFFFF8
1FFFFFE0
03C00F00
00C00800
ENDCHAR
STARTCHAR 034E
ENCODING 846
SWIDTH 0 0
DWIDTH 0 0
BBX 7 7 -14 -8
BITMAP
18
3C
7C
FE
18
18
18
ENDCHAR
STARTCHAR 034F
ENCODING 847
SWIDTH 0 0
DWIDTH 0 0
BBX 0 0 0 0
BITMAP
ENDCHAR
STARTCHAR 0350
ENCODING 848
SWIDTH 0 0
DWIDTH 0 0
BBX 10 9 -15 12
BITMAP
8000
F000
7E00
1F80
03C0
07C0
3F00
F800
C000
ENDCHAR
STARTCHAR 0351
ENCODING 849
SWIDTH 0 0
DWIDTH 0 0
BBX 4 7 -12 20
BITMAP
30
70
C0
C0
C0
70
30
ENDCHAR
STARTCHAR 0352
ENCODING 850
SWIDTH 0 0
DWIDTH 0 0
BBX 11 9 -16 20
BITMAP
1F80
7FC0
71E0
E060
C060
0F00
0F00
0F00
0F00
ENDCHAR
STARTCHAR 0353
ENCODING 851
SWIDTH 0 0
DWIDTH 0 0
BBX 8 8 -14 -8
BITMAP
C2
E7
7E
3C
3C
7E
E7
C3
ENDCHAR
STARTCHAR 0354
ENCODING 852
SWIDTH 0 0
DWIDTH 0 0
BBX 10 9 -15 -8
BITMAP
01C0
0FC0
3F00
F800
F000
7C00
1F80
03C0
00C0
ENDCHAR
STARTCHAR 0355
ENCODING 853
SWIDTH 0 0
DWIDTH 0 0
BBX 10 9 -15 -8
BITMAP
C000
F800
3F00
07C0
03C0
1F80
FC00
F000
8000
ENDCHAR
STARTCHAR 0356
ENCODING 854
SWIDTH 0 0
DWIDTH 0 0
BBX 19 10 -20 -8
BITMAP
000700
E00700
FC0700
3F0D80
07CD80
01CDC0
0F98C0
7E18C0
F038E0
C03060
ENDCHAR
STARTCHAR 0357
ENCODING 855
SWIDTH 0 0
DWIDTH 0 0
BBX 4 7 -12 20
BITMAP
C0
E0
20
30
20
E0
C0
ENDCHAR
STARTCHAR 0358
ENCODING 856
SWIDTH 0 0
DWIDTH 0 0
BBX 4 4 -7 20
BITMAP
F0
F0
F0
F0
ENDCHAR
STARTCHAR 0359
ENCODING 857
SWIDTH 0 0
DWIDTH 0 0
BBX 11 11 -15 -11
BITMAP
0C00
0C00
0C00
8C40
FFC0
FFE0
3F00
3F00
3F00
7380
7180
ENDCHAR
STARTCHAR 035A
ENCODING 858
SWIDTH 0 0
DWIDTH 0 0
BBX 12 7 -16 -6
BITMAP
79C0
FFE0
C630
8630
8630
FFE0
79E0
ENDCHAR
STARTCHAR 035B
ENCODING 859
SWIDTH 0 0
DWIDTH 0 0
BBX 9 12 -15 19
BITMAP
1000
1800
3000
6000
6000
FF80
7F80
0300
0300
0600
0C00
0400
ENDCHAR
STARTCHAR 035C
ENCODING 860
SWIDTH 0 0
DWIDTH 0 0
BBX 31 8 -26 -9
BITMAP
C0000002
F000000E
FC00003E
3F8003FC
1FFFFFF8
07FFFFE0
01FFFF80
003FFC00
ENDCHAR
STARTCHAR 035D
ENCODING 861
SWIDTH 0 0
DWIDTH 0 0
BBX 31 8 -26 18
BITMAP
80000002
E0000006
FC00003E
3F0001FC
1FFFFFF8
07FFFFE0
01FFFF80
003FFC00
ENDCHAR
STARTCHAR 035E
ENCODING 862
SWIDTH 0 0
DWIDTH 0 0
BBX 35 3 -28 21
BITMAP
FFFFFFFFE0
FFFFFFFFE0
FFFFFFFFE0
ENDCHAR
STARTCHAR 035F
ENCODING 863
SWIDTH 0 0
DWIDTH 0 0
BBX 31 3 -26 -5
BITMAP
FFFFFFFE
FFFFFFFE
FFFFFFFE
ENDCHAR
STARTCHAR 0360
ENCODING 864
SWIDTH 0 0
DWIDTH 0 0
BBX 36 6 -28 19
BITMAP
01FE0007F0
0FFFF80FE0
3FFFFFFFE0
7FFFFFFFC0
FF07FFFF00
FE001FFC00
ENDCHAR
STARTCHAR 0361
ENCODING 865
SWIDTH 0 0
DWIDTH 0 0
BBX 31 8 -26 18
BITMAP
001FF800
01FFFF00
07FFFFC0
1FFFFFF0
3FC003FC
FC00007E
F000000E
C0000002
ENDCHAR
STARTCHAR 0362
ENCODING 866
SWIDTH 0 0
DWIDTH 0 0
BBX 47 7 -34 0
BITMAP
000000000700
0000000007C0
FFFFFFFFFFF8
FFFFFFFFFFFE
0000000007F0
000000000780
000000000600
ENDCHAR
STARTCHAR 0363
ENCODING 867
SWIDTH 0 0
DWIDTH 0 0
BBX 8 9 -14 16
BITMAP
7E
FE
C7
1F
FF
C7
C7
FF
77
ENDCHAR
STARTCHAR 0364
ENCODING 868
SWIDTH 0 0
DWIDTH 0 0
BBX 8 9 -14 16
BITMAP
7E
FE
C7
FF
FF
C0
C7
FE
3C
ENDCHAR
STARTCHAR 0365
ENCODING 869
SWIDTH 0 0
DWIDTH 0 0
BBX 2 12 -11 16
BITMAP
C0
C0
00
C0
C0
C0
C0
C0
C0
C0
C0
C0
ENDCHAR
STARTCHAR 0366
ENCODING 870
SWIDTH 0 0
DWIDTH 0 0
BBX 9 9 -15 16
BITMAP
3F00
7F80
6180
E180
E180
E180
6380
7F00
3E00
ENDCHAR
STARTCHAR 0367
ENCODING 871
SWIDTH 0 0
DWIDTH 0 0
BBX 8 9 -14 16
BITMAP
C7
C7
C7
C7
C7
C7
C7
FF
7B
ENDCHAR
STARTCHAR 0368
ENCODING 872
SWIDTH 0 0
DWIDTH 0 0
BBX 8 9 -14 16
BITMAP
7E
FF
E7
C0
C0
C0
E7
7E
3C
ENDCHAR
STARTCHAR 0369
ENCODING 873
SWIDTH 0 0
DWIDTH 0 0
BBX 9 12 -15 16
BITMAP
0180
0180
0180
3D80
7F80
6380
6180
E180
6180
7380
7F80
3D80
ENDCHAR
STARTCHAR 036A
ENCODING 874
SWIDTH 0 0
DWIDTH 0 0
BBX 8 12 -14 16
BITMAP
C0
C0
C0
DE
FF
C7
C7
C7
C7
C7
C7
C7
ENDCHAR
STARTCHAR 036B
ENCODING 875
SWIDTH 0 0
DWIDTH 0 0
BBX 13 9 -17 16
BITMAP
FEF0
FFF8
E318
E318
E318
E318
E318
E318
E318
ENDCHAR
STARTCHAR 036C
ENCODING 876
SWIDTH 0 0
DWIDTH 0 0
BBX 5 9 -13 16
BITMAP
D8
F8
E0
E0
E0
E0
E0
E0
E0
ENDCHAR
STARTCHAR 036D
ENCODING 877
SWIDTH 0 0
DWIDTH 0 0
BBX 5 12 -13 16
BITMAP
30
30
30
F8
F8
30
30
30
30
30
38
38
ENDCHAR
STARTCHAR 036E
ENCODING 878
SWIDTH 0 0
DWIDTH 0 0
BBX 8 9 -14 16
BITMAP
C3
E7
E6
66
6E
7C
3C
38
38
ENDCHAR
STARTCHAR 036F
ENCODING 879
SWIDTH 0 0
DWIDTH 0 0
BBX 8 9 -14 16
BITMAP
E7
6E
7C
3C
38
3C
7E
E6
C7
ENDCHAR
STARTCHAR 0374
ENCODING 884
SWIDTH 270 0
DWIDTH 9 0
BBX 6 5 2 19
BITMAP
7C
78
F8
F0
F0
ENDCHAR
STARTCHAR 0375
ENCODING 885
SWIDTH 270 0
DWIDTH 9 0
BBX 6 6 1 -7
BITMAP
1C
3C
3C
78
78
F8
ENDCHAR
STARTCHAR 037A
ENCODING 890
SWIDTH 150 0
DWIDTH 5 0
BBX 2 8 1 -10
BITMAP
C0
C0
C0
C0
C0
C0
C0
C0
ENDCHAR
STARTCHAR 037B
ENCODING 891
SWIDTH 570 0
DWIDTH 19 0
BBX 16 19 1 -1
BITMAP
0FF0
3FF8
7FFC
7FFE
7C3F
F81F
F81F
000F
000F
000F
000F
001F
F81F
7C1F
7E7E
3FFE
3FFC
0FF8
01C0
ENDCHAR
STARTCHAR 037C
ENCODING 892
SWIDTH 570 0
DWIDTH 19 0
BBX 16 19 1 -1
BITMAP
07F0
1FFC
3FFE
3FFF
7E1F
7C1F
F80F
F9C0
F9C0
F9C0
F9C0
F800
F81F
7C1F
7E3F
3FFE
3FFC
0FF8
01C0
ENDCHAR
STARTCHAR 037D
ENCODING 893
SWIDTH 570 0
DWIDTH 19 0
BBX 16 19 1 -1
BITMAP
0FF0
3FF8
7FFC
7FFE
7C3F
F81F
F81F
03CF
03CF
03CF
03CF
001F
F81F
7C1F
7E7E
3FFE
3FFC
0FF8
01C0
ENDCHAR
STARTCHAR 037E
ENCODING 894
SWIDTH 270 0
DWIDTH 9 0
BBX 5 22 2 -6
BITMAP
F8
F8
F8
F8
F8
00
00
00
00
00
00
00
F8
F8
F8
F8
F8
38
38
78
F0
E0
ENDCHAR
STARTCHAR 0384
ENCODING 900
SWIDTH 240 0
DWIDTH 8 0
BBX 6 4 2 20
BITMAP
7C
7C
F8
F0
ENDCHAR
STARTCHAR 0385
ENCODING 901
SWIDTH 510 0
DWIDTH 17 0
BBX 15 4 1 20
BITMAP
F3DE
F7DE
F79E
F79E
ENDCHAR
STARTCHAR 0386
ENCODING 902
SWIDTH 720 0
DWIDTH 24 0
BBX 23 24 1 0
BITMAP
FC7E00
F87E00
F8FE00
F0FF00
F1FF00
01FF00
01EF80
03EF80
03E7C0
07C7C0
07C7C0
07C3E0
0F83E0
0F83E0
0F81F0
1FFFF0
1FFFF0
3FFFF8
3FFFF8
3E00FC
7E007C
7C007C
7C007E
F8003E
ENDCHAR
STARTCHAR 0387
ENCODING 903
SWIDTH 270 0
DWIDTH 9 0
BBX 5 5 2 12
BITMAP
F8
F8
F8
F8
F8
ENDCHAR
STARTCHAR 0388
ENCODING 904
SWIDTH 840 0
DWIDTH 28 0
BBX 26 24 1 0
BITMAP
FCFFFFC0
F8FFFFC0
F8FFFFC0
F0FFFFC0
F0FFFFC0
00F80000
00F80000
00F80000
00F80000
00F80000
00FFFF80
00FFFF80
00FFFF80
00FFFF80
00F80000
00F80000
00F80000
00F80000
00F80000
00F80000
00FFFFC0
00FFFFC0
00FFFFC0
00FFFFC0
ENDCHAR
STARTCHAR 0389
ENCODING 905
SWIDTH 930 0
DWIDTH 31 0
BBX 28 24 1 0
BITMAP
FCF801F0
F8F801F0
F8F801F0
F0F801F0
F0F801F0
00F801F0
00F801F0
00F801F0
00F801F0
00FFFFF0
00FFFFF0
00FFFFF0
00FFFFF0
00FFFFF0
00F801F0
00F801F0
00F801F0
00F801F0
00F801F0
00F801F0
00F801F0
00F801F0
00F801F0
00F801F0
ENDCHAR
STARTCHAR 038A
ENCODING 906
SWIDTH 480 0
DWIDTH 16 0
BBX 13 24 1 0
BITMAP
FCF8
F8F8
F8F8
F0F8
F0F8
00F8
00F8
00F8
00F8
00F8
00F8
00F8
00F8
00F8
00F8
00F8
00F8
00F8
00F8
00F8
00F8
00F8
00F8
00F8
ENDCHAR
STARTCHAR 038C
ENCODING 908
SWIDTH 930 0
DWIDTH 31 0
BBX 29 25 1 -1
BITMAP
FC0FFC00
F83FFE00
F87FFF80
F0FFFFC0
F1FC1FC0
01F807E0
03F003F0
03E003F0
03E001F0
07E001F0
07E001F8
07E001F8
07C001F8
07E001F8
07E001F0
03E001F0
03E001F0
03F003F0
01F807E0
01FC0FE0
00FFFFC0
007FFF80
003FFF00
000FFC00
0000E000
ENDCHAR
STARTCHAR 038E
ENCODING 910
SWIDTH 930 0
DWIDTH 31 0
BBX 30 24 1 0
BITMAP
FDF800FC
F8FC01F8
F87E01F8
F07E03F0
F03F03F0
003F07E0
001F87C0
000F8FC0
000FDF80
0007FF00
0007FF00
0003FE00
0001FE00
0001FC00
0000F800
0000F800
0000F800
0000F800
0000F800
0000F800
0000F800
0000F800
0000F800
0000F800
ENDCHAR
STARTCHAR 038F
ENCODING 911
SWIDTH 930 0
DWIDTH 31 0
BBX 29 24 1 0
BITMAP
FC0FFC00
F83FFF00
F87FFF80
F0FFFFC0
F1FC0FE0
01F807E0
03F003F0
03E001F0
03E001F0
07E001F8
07E001F8
07E001F8
07E001F8
03E001F0
03E001F0
03E001F0
01F003E0
00F807C0
00FC0F80
003E1F00
07FF1FF8
07FF1FF8
07FF1FF8
07FF1FF8
ENDCHAR
STARTCHAR 0390
ENCODING 912
SWIDTH 270 0
DWIDTH 9 0
BBX 15 24 -2 0
BITMAP
F7DE
F7DE
F79E
F79E
0000
0000
0000
0F80
0F80
0F80
0F80
0F80
0F80
0F80
0F80
0F80
0F80
0F80
0F80
0F80
0F80
0FE0
0FE0
07E0
ENDCHAR
STARTCHAR 0391
ENCODING 913
SWIDTH 690 0
DWIDTH 23 0
BBX 23 24 0 0
BITMAP
007C00
00FE00
00FE00
00FE00
01FF00
01FF00
03EF80
03EF80
03EF80
07C7C0
07C7C0
0787C0
0F83E0
0F83E0
1F03F0
1FFFF0
1FFFF0
3FFFF8
3FFFF8
7E00F8
7C00FC
7C007C
FC007E
F8007E
ENDCHAR
STARTCHAR 0392
ENCODING 914
SWIDTH 690 0
DWIDTH 23 0
BBX 20 24 2 0
BITMAP
FFFE00
FFFF80
FFFFC0
FFFFE0
FC0FE0
FC03E0
FC03E0
FC03E0
FC03E0
FC0FC0
FFFF80
FFFF80
FFFFC0
FC0FE0
FC03F0
FC01F0
FC01F0
FC01F0
FC01F0
FC07F0
FFFFE0
FFFFE0
FFFF80
FFFE00
ENDCHAR
STARTCHAR 0393
ENCODING 915
SWIDTH 570 0
DWIDTH 19 0
BBX 17 24 2 0
BITMAP
FFFF80
FFFF80
FFFF80
FFFF80
FFFF80
FC0000
FC0000
FC0000
FC0000
FC0000
FC0000
FC0000
FC0000
FC0000
FC0000
FC0000
FC0000
FC0000
FC0000
FC0000
FC0000
FC0000
FC0000
FC0000
ENDCHAR
STARTCHAR 0394
ENCODING 916
SWIDTH 690 0
DWIDTH 23 0
BBX 23 24 0 0
BITMAP
007C00
00FE00
00FE00
01FE00
01FF00
01FF00
03EF00
03EF80
03CF80
07C7C0
07C7C0
0F87C0
0F83E0
0F83E0
1F03E0
1F01F0
1F01F0
3E01F8
3E00F8
7E00F8
7FFFFC
7FFFFC
FFFFFC
FFFFFE
ENDCHAR
STARTCHAR 0395
ENCODING 917
SWIDTH 660 0
DWIDTH 22 0
BBX 18 24 2 0
BITMAP
FFFFC0
FFFFC0
FFFFC0
FFFFC0
FFFFC0
FC0000
FC0000
FC0000
FC0000
FC0000
FFFF80
FFFF80
FFFF80
FFFF80
FC0000
FC0000
FC0000
FC0000
FC0000
FC0000
FFFFC0
FFFFC0
FFFFC0
FFFFC0
ENDCHAR
STARTCHAR 0396
ENCODING 918
SWIDTH 660 0
DWIDTH 22 0
BBX 20 24 1 0
BITMAP
7FFFE0
7FFFE0
7FFFE0
7FFFE0
7FFFE0
000FE0
001FC0
003F80
007F00
00FE00
00FC00
01FC00
03F800
07F000
0FE000
1FC000
1F8000
3F0000
7F0000
FE0000
FFFFF0
FFFFF0
FFFFF0
FFFFF0
ENDCHAR
STARTCHAR 0397
ENCODING 919
SWIDTH 750 0
DWIDTH 25 0
BBX 20 24 2 0
BITMAP
FC01F0
FC01F0
FC01F0
FC01F0
FC01F0
FC01F0
FC01F0
FC01F0
FC01F0
FFFFF0
FFFFF0
FFFFF0
FFFFF0
FFFFF0
FC01F0
FC01F0
FC01F0
FC01F0
FC01F0
FC01F0
FC01F0
FC01F0
FC01F0
FC01F0
ENDCHAR
STARTCHAR 0398
ENCODING 920
SWIDTH 780 0
DWIDTH 26 0
BBX 24 25 1 -1
BITMAP
01FF80
07FFC0
0FFFF0
1FFFF8
3F83F8
3F00FC
7E007E
7C007E
7C003E
FC003E
FCFF3F
FCFF3F
F8FF3F
FCFF3F
FC003E
7C003E
7C003E
7E007E
3F00FC
3F81FC
1FFFF8
0FFFF0
07FFE0
01FF80
001C00
ENDCHAR
STARTCHAR 0399
ENCODING 921
SWIDTH 300 0
DWIDTH 10 0
BBX 6 24 2 0
BITMAP
FC
FC
FC
FC
FC
FC
FC
FC
FC
FC
FC
FC
FC
FC
FC
FC
FC
FC
FC
FC
FC
FC
FC
FC
ENDCHAR
STARTCHAR 039A
ENCODING 922
SWIDTH 720 0
DWIDTH 24 0
BBX 22 24 2 0
BITMAP
FC01F8
FC03F0
FC07E0
FC0FC0
FC1F80
FC3F00
FC7E00
FCFC00
FDF800
FFF000
FFF800
FFF800
FFFC00
FF7E00
FE7F00
FC3F00
FC1F80
FC1FC0
FC0FC0
FC07E0
FC07F0
FC03F0
FC01F8
FC01FC
ENDCHAR
STARTCHAR 039B
ENCODING 923
SWIDTH 660 0
DWIDTH 22 0
BBX 22 24 0 0
BITMAP
00FC00
00FC00
00FE00
01FE00
01FE00
01FF00
03FF00
03EF00
07CF80
07CF80
07C7C0
0F87C0
0F87C0
0F83E0
1F03E0
1F03E0
3F03F0
3E01F0
3E01F0
7E01F8
7C00F8
7C00FC
FC00FC
F8007C
ENDCHAR
STARTCHAR 039C
ENCODING 924
SWIDTH 900 0
DWIDTH 30 0
BBX 26 24 2 0
BITMAP
FF003FC0
FF003FC0
FF003FC0
FF807FC0
FF807FC0
FF807FC0
FFC07FC0
FFC0FFC0
FBC0F7C0
FBE0F7C0
FBE1F7C0
F9F1E7C0
F9F1E7C0
F9F3E7C0
F8FBC7C0
F8FBC7C0
F8FFC7C0
F87F87C0
F87F87C0
F83F87C0
F83F07C0
F83F07C0
F81F07C0
F81E07C0
ENDCHAR
STARTCHAR 039D
ENCODING 925
SWIDTH 750 0
DWIDTH 25 0
BBX 20 24 2 0
BITMAP
FC01F0
FC01F0
FE01F0
FF01F0
FF01F0
FF81F0
FF81F0
FFC1F0
FFE1F0
FBE1F0
F9F1F0
F9F9F0
F8F9F0
F87DF0
F87DF0
F83FF0
F83FF0
F81FF0
F80FF0
F80FF0
F807F0
F803F0
F803F0
F801F0
ENDCHAR
STARTCHAR 039E
ENCODING 926
SWIDTH 630 0
DWIDTH 21 0
BBX 18 24 1 0
BITMAP
7FFFC0
7FFFC0
7FFFC0
7FFFC0
7FFFC0
000000
000000
000000
000000
3FFF00
3FFF00
3FFF00
3FFF00
3FFF00
000000
000000
000000
000000
000000
000000
FFFFC0
FFFFC0
FFFFC0
FFFFC0
ENDCHAR
STARTCHAR 039F
ENCODING 927
SWIDTH 780 0
DWIDTH 26 0
BBX 24 25 1 -1
BITMAP
01FF80
07FFC0
0FFFF0
1FFFF8
3F83F8
3F00FC
7E007E
7C007E
7C003E
FC003E
FC003F
FC003F
F8003F
FC003F
FC003E
7C003E
7C003E
7E007E
3F00FC
3F81FC
1FFFF8
0FFFF0
07FFE0
01FF80
001C00
ENDCHAR
STARTCHAR 03A0
ENCODING 928
SWIDTH 750 0
DWIDTH 25 0
BBX 21 24 2 0
BITMAP
FFFFF8
FFFFF8
FFFFF8
FFFFF8
FFFFF8
FC00F8
FC00F8
FC00F8
FC00F8
FC00F8
FC00F8
FC00F8
FC00F8
FC00F8
FC00F8
FC00F8
FC00F8
FC00F8
FC00F8
FC00F8
FC00F8
FC00F8
FC00F8
FC00F8
ENDCHAR
STARTCHAR 03A1
ENCODING 929
SWIDTH 660 0
DWIDTH 22 0
BBX 19 24 2 0
BITMAP
FFFC00
FFFF00
FFFF80
FFFFC0
FC0FE0
FC07E0
FC03E0
FC03E0
FC03E0
FC03E0
FC07E0
FFFFC0
FFFFC0
FFFF80
FFFF00
FC0000
FC0000
FC0000
FC0000
FC0000
FC0000
FC0000
FC0000
FC0000
ENDCHAR
STARTCHAR 03A3
ENCODING 931
SWIDTH 660 0
DWIDTH 22 0
BBX 19 24 1 0
BITMAP
7FFFE0
7FFFE0
7FFFE0
7FFFE0
7FFFE0
3F0000
1F8000
0FC000
07E000
03F000
01F800
00FC00
01F800
03F000
07F000
0FE000
1FC000
3F8000
7F0000
FE0000
FFFFE0
FFFFE0
FFFFE0
FFFFE0
ENDCHAR
STARTCHAR 03A4
ENCODING 932
SWIDTH 600 0
DWIDTH 20 0
BBX 20 24 0 0
BITMAP
FFFFF0
FFFFF0
FFFFF0
FFFFF0
FFFFF0
00F800
00F800
00F800
00F800
00F800
00F800
00F800
00F800
00F800
00F800
00F800
00F800
00F800
00F800
00F800
00F800
00F800
00F800
00F800
ENDCHAR
STARTCHAR 03A5
ENCODING 933
SWIDTH 660 0
DWIDTH 22 0
BBX 22 24 0 0
BITMAP
FC007C
FC00FC
7E01F8
3F01F8
3F03F0
1F83E0
1F87E0
0FCFC0
07EFC0
07FF80
03FF00
03FF00
01FE00
00FE00
00FC00
00FC00
00FC00
00FC00
00FC00
00FC00
00FC00
00FC00
00FC00
00FC00
ENDCHAR
STARTCHAR 03A6
ENCODING 934
SWIDTH 810 0
DWIDTH 27 0
BBX 25 25 1 0
BITMAP
003E0000
003E0000
00FF8000
07FFF000
0FFFFC00
1FFFFE00
3F3E7E00
7E3E3F00
7C3E1F00
7C3E1F80
FC3E0F80
F83E0F80
F83E0F80
F83E0F80
FC3E0F80
FC3E1F80
7C3E1F00
7E3E3F00
3FBEFE00
3FFFFE00
0FFFF800
07FFF000
003F0000
003E0000
003E0000
ENDCHAR
STARTCHAR 03A7
ENCODING 935
SWIDTH 660 0
DWIDTH 22 0
BBX 22 24 0 0
BITMAP
7E00FC
7E01F8
3F01F0
1F83F0
1F87E0
0FC7C0
07CFC0
07FF80
03FF00
01FF00
01FE00
00FC00
01FE00
01FE00
03FF00
07FF80
07FF80
0FCFC0
1F87E0
1F87E0
3F03F0
7E01F8
7E01F8
FC00FC
ENDCHAR
STARTCHAR 03A8
ENCODING 936
SWIDTH 840 0
DWIDTH 28 0
BBX 24 24 2 0
BITMAP
F87E1F
F87E1F
F87E1F
F87E1F
F87E1F
F87E1F
F87E1F
F87E1F
F87E1F
F87E1F
F87E1F
F87E1F
F87E1F
FC7E3F
7E7E7E
7FFFFE
3FFFFC
0FFFF0
03FF80
007E00
007E00
007E00
007E00
007E00
ENDCHAR
STARTCHAR 03A9
ENCODING 937
SWIDTH 780 0
DWIDTH 26 0
BBX 24 24 1 0
BITMAP
01FF80
07FFE0
0FFFF0
1FFFF8
3F81FC
3F00FC
7E007E
7C003E
FC003E
FC003E
FC003E
F8003F
FC003E
FC003E
7C003E
7C007C
3E007C
3F00F8
1F01F0
07C3E0
FFC7FF
FFC7FF
FFC7FF
FFC7FF
ENDCHAR
STARTCHAR 03AA
ENCODING 938
SWIDTH 300 0
DWIDTH 10 0
BBX 12 30 -1 0
BITMAP
F9F0
F9F0
F9F0
F9F0
0000
0000
1F80
1F80
1F80
1F80
1F80
1F80
1F80
1F80
1F80
1F80
1F80
1F80
1F80
1F80
1F80
1F80
1F80
1F80
1F80
1F80
1F80
1F80
1F80
1F80
ENDCHAR
STARTCHAR 03AB
ENCODING 939
SWIDTH 660 0
DWIDTH 22 0
BBX 22 30 0 0
BITMAP
03CF80
03CF80
03CF80
03CF80
000000
000000
FC007C
FC00FC
7E01F8
3F01F8
3F03F0
1F83E0
1F87E0
0FCFC0
07EFC0
07FF80
03FF00
03FF00
01FE00
00FE00
00FC00
00FC00
00FC00
00FC00
00FC00
00FC00
00FC00
00FC00
00FC00
00FC00
ENDCHAR
STARTCHAR 03AC
ENCODING 940
SWIDTH 630 0
DWIDTH 21 0
BBX 19 24 1 0
BITMAP
00F800
00F800
00F000
01F000
000000
000000
038000
0FEF80
3FFF80
3FFF80
7E1F80
7C0F80
F80F80
F80F80
F80F80
F80F80
F80F80
F80F80
F80F80
7C1F80
7E3F80
3FFFE0
1FF7E0
0FE7E0
ENDCHAR
STARTCHAR 03AD
ENCODING 941
SWIDTH 510 0
DWIDTH 17 0
BBX 16 24 1 0
BITMAP
01F0
03E0
03E0
03C0
0000
0000
03C0
1FF8
3FFC
7FFC
7C3E
F81E
7800
7E00
3F80
3F80
7F80
F800
F81F
F81F
FC3E
FFFE
7FFC
1FF0
ENDCHAR
STARTCHAR 03AE
ENCODING 942
SWIDTH 600 0
DWIDTH 20 0
BBX 16 30 2 -6
BITMAP
01F0
01F0
01E0
03E0
0000
0000
00F0
F3FC
F7FE
FFFE
FC3F
F81F
F81F
F81F
F81F
F81F
F81F
F81F
F81F
F81F
F81F
F81F
F81F
F81F
001F
001F
001F
001F
001F
001F
ENDCHAR
STARTCHAR 03AF
ENCODING 943
SWIDTH 270 0
DWIDTH 9 0
BBX 7 24 2 0
BITMAP
7C
7C
F8
F0
00
00
00
F8
F8
F8
F8
F8
F8
F8
F8
F8
F8
F8
F8
F8
F8
FE
FE
7E
ENDCHAR
STARTCHAR 03B0
ENCODING 944
SWIDTH 570 0
DWIDTH 19 0
BBX 16 24 2 0
BITMAP
F7DE
F7DE
F79E
F79E
0000
0000
0000
F87C
F83E
F83E
F83E
F81E
F81F
F81F
F81F
F81F
F81F
F81F
F81E
F83E
FC7E
7FFC
7FF8
1FF0
ENDCHAR
STARTCHAR 03B1
ENCODING 945
SWIDTH 630 0
DWIDTH 21 0
BBX 19 18 1 0
BITMAP
038000
0FEF80
3FFF80
3FFF80
7E1F80
7C0F80
F80F80
F80F80
F80F80
F80F80
F80F80
F80F80
F80F80
7C1F80
7E3F80
3FFFE0
1FF7E0
0FE7E0
ENDCHAR
STARTCHAR 03B2
ENCODING 946
SWIDTH 600 0
DWIDTH 20 0
BBX 17 30 2 -6
BITMAP
0FE000
3FF800
7FFC00
7FFC00
F83E00
F83E00
F03E00
F03E00
F03C00
F1F800
F1F800
F1FE00
F03E00
F01F00
F00F00
F00F00
F00F80
F80F80
F80F00
F81F00
FC3F00
FFFE00
FFFE00
FBF800
F80000
F80000
F80000
F80000
F80000
F80000
ENDCHAR
STARTCHAR 03B3
ENCODING 947
SWIDTH 510 0
DWIDTH 17 0
BBX 15 23 1 -6
BITMAP
F81E
F81E
F83E
7C3E
7C3E
3C3C
3E3C
3E7C
1E78
1E78
1EF8
1FF0
0FF0
0FE0
0FE0
0FC0
0FC0
0F80
0F80
0F80
0F80
0F80
0F80
ENDCHAR
STARTCHAR 03B4
ENCODING 948
SWIDTH 600 0
DWIDTH 20 0
BBX 18 24 1 0
BITMAP
07FC00
0FFE00
1FFE00
1F9E00
1F0000
1F8000
0FE000
07F000
07F800
1FFE00
3E3F00
7C1F00
7C0F80
F80F80
F80780
F807C0
F80780
F80780
780F80
7C0F80
7E1F00
3FFF00
1FFE00
07F800
ENDCHAR
STARTCHAR 03B5
ENCODING 949
SWIDTH 510 0
DWIDTH 17 0
BBX 16 18 1 0
BITMAP
03C0
1FF8
3FFC
7FFC
7C3E
F81E
7800
7E00
3F80
3F80
7F80
F800
F81F
F81F
FC3E
FFFE
7FFC
1FF0
ENDCHAR
STARTCHAR 03B6
ENCODING 950
SWIDTH 480 0
DWIDTH 16 0
BBX 15 29 1 -5
BITMAP
3FFE
3FFE
3FFE
3FFC
01F0
07C0
0F80
1F00
3E00
3C00
7C00
7C00
7800
F800
F800
F800
F800
F800
7C00
7E00
7FF0
3FFC
1FFC
07FE
003E
003E
003E
003E
003C
ENDCHAR
STARTCHAR 03B7
ENCODING 951
SWIDTH 600 0
DWIDTH 20 0
BBX 16 24 2 -6
BITMAP
00F0
F3FC
F7FE
FFFE
FC3F
F81F
F81F
F81F
F81F
F81F
F81F
F81F
F81F
F81F
F81F
F81F
F81F
F81F
001F
001F
001F
001F
001F
001F
ENDCHAR
STARTCHAR 03B8
ENCODING 952
SWIDTH 570 0
DWIDTH 19 0
BBX 17 24 1 0
BITMAP
07F000
0FFC00
1FFE00
3FFE00
7C1F00
7C1F00
780F00
780F80
F80F80
F80F80
FFFF80
FFFF80
FFFF80
FFFF80
F80F80
F80F80
F80F80
780F00
780F00
7C1F00
3E3E00
3FFE00
1FFC00
0FF800
ENDCHAR
STARTCHAR 03B9
ENCODING 953
SWIDTH 270 0
DWIDTH 9 0
BBX 7 17 2 0
BITMAP
F8
F8
F8
F8
F8
F8
F8
F8
F8
F8
F8
F8
F8
F8
FE
FE
7E
ENDCHAR
STARTCHAR 03BA
ENCODING 954
SWIDTH 570 0
DWIDTH 19 0
BBX 17 17 2 0
BITMAP
F83F00
F87E00
F8FC00
F9F800
FBF000
FBE000
FFC000
FFC000
FFE000
FFF000
FDF000
F8F800
F8FC00
F87E00
F83E00
F83F00
F81F80
ENDCHAR
STARTCHAR 03BB
ENCODING 955
SWIDTH 540 0
DWIDTH 18 0
BBX 18 24 0 0
BITMAP
3F0000
3F8000
3FC000
3FC000
03C000
03E000
03E000
01F000
01F000
03F000
03F800
03F800
07F800
07FC00
0FBC00
0F3E00
1F3E00
1F1E00
1E1F00
3E1F00
3C0F80
7C0FC0
7C0FC0
F807C0
ENDCHAR
STARTCHAR 03BC
ENCODING 956
SWIDTH 600 0
DWIDTH 20 0
BBX 16 23 2 -6
BITMAP
F81F
F81F
F81F
F81F
F81F
F81F
F81F
F81F
F81F
F81F
F81F
F81F
F83F
FC7F
FFFF
FFFF
FFDF
F800
F800
F800
F800
F800
F800
ENDCHAR
STARTCHAR 03BD
ENCODING 957
SWIDTH 540 0
DWIDTH 18 0
BBX 17 17 0 0
BITMAP
F80F80
7C0F80
7C0F80
7C0F00
3E0F00
3E1F00
3E1F00
1F1E00
1F3E00
1F3E00
0F3C00
0FFC00
07F800
07F800
07F800
03F000
03F000
ENDCHAR
STARTCHAR 03BE
ENCODING 958
SWIDTH 480 0
DWIDTH 16 0
BBX 14 29 1 -5
BITMAP
07F8
1FFC
3FFC
3FFC
7C00
7C00
7C00
7C00
7C00
3E00
1FF8
0FF8
3FF8
7E00
7C00
F800
F800
F800
F800
FC00
7FF0
7FF8
1FFC
0FFC
003C
003C
003C
003C
003C
ENDCHAR
STARTCHAR 03BF
ENCODING 959
SWIDTH 600 0
DWIDTH 20 0
BBX 18 18 1 0
BITMAP
01E000
0FFC00
1FFE00
3FFF00
7E1F80
7C0F80
7807C0
F807C0
F807C0
F807C0
F807C0
F807C0
7C07C0
7C0F80
3E1F80
3FFF00
1FFE00
07FC00
ENDCHAR
STARTCHAR 03C0
ENCODING 960
SWIDTH 660 0
DWIDTH 22 0
BBX 20 17 1 0
BITMAP
FFFFF0
FFFFF0
FFFFF0
3E0780
3E0780
3E0780
3E0780
3E0780
3E0780
3E0780
3E0780
3E0780
3E07C0
3E07F0
3E07F0
3E07F0
3E03F0
ENDCHAR
STARTCHAR 03C1
ENCODING 961
SWIDTH 600 0
DWIDTH 20 0
BBX 17 24 2 -6
BITMAP
03C000
1FF800
3FFC00
7FFE00
7C3F00
F81F00
F80F00
F80F80
F00F80
F00F80
F00F80
F80F80
F80F00
FC1F00
FE3F00
FFFE00
FFFC00
FBF800
F80000
F80000
F80000
F80000
F80000
F80000
ENDCHAR
STARTCHAR 03C2
ENCODING 962
SWIDTH 540 0
DWIDTH 18 0
BBX 16 23 1 -5
BITMAP
01E0
0FF8
1FFE
3FFF
7E1F
7C0F
7800
F800
F800
F800
F800
F800
7C00
7E00
7FF0
3FFC
1FFC
07FE
003E
001E
001E
001E
001E
ENDCHAR
STARTCHAR 03C3
ENCODING 963
SWIDTH 600 0
DWIDTH 20 0
BBX 19 17 1 0
BITMAP
07FFE0
1FFFE0
3FFFE0
3F1E00
7C0F00
7C0F80
F80F80
F80780
F80780
F80780
F80F80
780F80
7C0F80
7E3F00
3FFE00
1FFC00
07F800
ENDCHAR
STARTCHAR 03C4
ENCODING 964
SWIDTH 510 0
DWIDTH 17 0
BBX 16 17 0 0
BITMAP
FFFF
FFFF
FFFF
03C0
03C0
03C0
03C0
03C0
03C0
03C0
03C0
03C0
03C0
03E0
03F8
03F8
01F8
ENDCHAR
STARTCHAR 03C5
ENCODING 965
SWIDTH 570 0
DWIDTH 19 0
BBX 16 17 2 0
BITMAP
F87C
F83E
F83E
F83E
F81E
F81F
F81F
F81F
F81F
F81F
F81E
F83E
F83E
FC7C
7FFC
7FF8
1FF0
ENDCHAR
STARTCHAR 03C6
ENCODING 966
SWIDTH 750 0
DWIDTH 25 0
BBX 23 28 1 -6
BITMAP
007C00
007C00
007C00
007C00
01FF00
0FFFE0
1FFFF0
3FFFF8
7E7CFC
7C7C7C
787C3E
F87C3E
F87C3E
F87C3E
F87C3E
F87C3E
787C3E
7C7C7C
7E7CFC
3FFFF8
1FFFF0
07FFC0
007C00
007C00
007C00
007C00
007C00
007C00
ENDCHAR
STARTCHAR 03C7
ENCODING 967
SWIDTH 540 0
DWIDTH 18 0
BBX 18 23 0 -6
BITMAP
7C0F80
7E1F00
3E1F00
1F3E00
1F3E00
0FFC00
0FFC00
07F800
07F000
03F000
03E000
03F000
07F000
07F800
0FF800
0FFC00
1F3E00
1F3E00
3E3F00
3E1F00
7C1F80
7C0F80
FC0FC0
ENDCHAR
STARTCHAR 03C8
ENCODING 968
SWIDTH 720 0
DWIDTH 24 0
BBX 21 28 2 -6
BITMAP
00F000
00F000
00F000
00F000
00F000
F8F1F0
F8F1F0
F8F1F0
F8F0F0
F8F0F8
F8F0F8
F8F0F8
F8F0F8
F8F0F8
F8F0F8
F8F0F8
F8F0F0
F8F1F0
7CF3F0
7FFFE0
3FFFC0
1FFF00
01F000
00F000
00F000
00F000
00F000
00F000
ENDCHAR
STARTCHAR 03C9
ENCODING 969
SWIDTH 750 0
DWIDTH 25 0
BBX 23 17 1 0
BITMAP
1F00F8
3E00F8
3C007C
7C007C
7C003E
F87C3E
F87C3E
F87C3E
F87C3E
F87C3E
F87C3E
F87C3E
787C3E
7C7E7C
7FFFFC
3FEFF8
1FC7F0
ENDCHAR
STARTCHAR 03CA
ENCODING 970
SWIDTH 270 0
DWIDTH 9 0
BBX 11 24 -1 0
BITMAP
F1E0
F1E0
F1E0
F1E0
0000
0000
0000
1F00
1F00
1F00
1F00
1F00
1F00
1F00
1F00
1F00
1F00
1F00
1F00
1F00
1F00
1FC0
1FC0
0FC0
ENDCHAR
STARTCHAR 03CB
ENCODING 971
SWIDTH 570 0
DWIDTH 19 0
BBX 16 24 2 0
BITMAP
7CF8
7CF8
7CF8
7CF8
0000
0000
0000
F87C
F83E
F83E
F83E
F81E
F81F
F81F
F81F
F81F
F81F
F81F
F81E
F83E
FC7E
7FFC
7FF8
1FF0
ENDCHAR
STARTCHAR 03CC
ENCODING 972
SWIDTH 600 0
DWIDTH 20 0
BBX 18 24 1 0
BITMAP
00F800
00F800
00F000
01F000
000000
000000
01E000
0FFC00
1FFE00
3FFF00
7E1F80
7C0F80
7807C0
F807C0
F807C0
F807C0
F807C0
F807C0
7C07C0
7C0F80
3E1F80
3FFF00
1FFE00
07FC00
ENDCHAR
STARTCHAR 03CD
ENCODING 973
SWIDTH 570 0
DWIDTH 19 0
BBX 16 24 2 0
BITMAP
03E0
03E0
03C0
07C0
0000
0000
0000
F87C
F83E
F83E
F83E
F81E
F81F
F81F
F81F
F81F
F81F
F81F
F81E
F83E
FC7E
7FFC
7FF8
1FF0
ENDCHAR
STARTCHAR 03CE
ENCODING 974
SWIDTH 750 0
DWIDTH 25 0
BBX 23 24 1 0
BITMAP
003F00
003E00
003E00
003C00
000000
000000
000000
1F00F8
3E00F8
3C007C
7C007C
7C003E
F87C3E
F87C3E
F87C3E
F87C3E
F87C3E
F87C3E
F87C3E
787C3E
7C7E7C
7FFFFC
3FEFF8
1FC7F0
ENDCHAR
STARTCHAR 03F2
ENCODING 1010
SWIDTH 570 0
DWIDTH 19 0
BBX 16 19 1 -1
BITMAP
07F0
1FFC
3FFE
3FFF
7E1F
7C1F
F80F
F800
F800
F800
F800
F800
F81F
7C1F
7E3F
3FFE
3FFC
0FF8
01C0
ENDCHAR
STARTCHAR 03F3
ENCODING 1011
SWIDTH 270 0
DWIDTH 9 0
BBX 6 29 0 -5
BITMAP
3C
3C
3C
3C
00
00
00
3C
3C
3C
3C
3C
3C
3C
3C
3C
3C
3C
3C
3C
3C
3C
3C
3C
3C
7C
FC
FC
F0
ENDCHAR
STARTCHAR 03F4
ENCODING 1012
SWIDTH 780 0
DWIDTH 26 0
BBX 22 25 2 -1
BITMAP
01FE00
07FF80
1FFFC0
1FFFE0
3F87F0
7E01F8
7C00F8
FC00FC
F8007C
F8007C
FFFFFC
FFFFFC
FFFFFC
FFFFFC
F8007C
F8007C
F800FC
7C00F8
7E01F8
7F03F0
3FFFF0
1FFFE0
0FFFC0
03FF00
007800
ENDCHAR
STARTCHAR 03F5
ENCODING 1013
SWIDTH 510 0
DWIDTH 17 0
BBX 15 19 1 -1
BITMAP
0FF0
1FF8
3FFC
7FFE
7C3E
F81E
F81E
FFE0
FFE0
FFE0
FFE0
F81E
F81E
FC3E
7E7E
7FFC
3FF8
1FF0
03C0
ENDCHAR
STARTCHAR 03F6
ENCODING 1014
SWIDTH 510 0
DWIDTH 17 0
BBX 15 19 1 -1
BITMAP
1FE0
3FF0
7FF8
FFFC
F87E
F03E
F03E
07FE
07FE
07FE
07FE
F01E
F03E
F83E
FCFC
7FFC
3FF8
1FF0
03C0
ENDCHAR
STARTCHAR 03F7
ENCODING 1015
SWIDTH 660 0
DWIDTH 22 0
BBX 16 24 3 0
BITMAP
F800
F800
F800
F800
FFF0
FFFC
FFFE
FFFE
F81F
F81F
F81F
F81F
F81F
F83F
FFFE
FFFC
FFF8
FFE0
F800
F800
F800
F800
F800
F800
ENDCHAR
STARTCHAR 03F8
ENCODING 1016
SWIDTH 600 0
DWIDTH 20 0
BBX 17 31 2 -7
BITMAP
F80000
F80000
F80000
F80000
F80000
F80000
F9F800
FBFC00
FFFE00
FFFF00
FE1F00
F80F80
F80F80
F80F80
F80F80
F80F80
F80F80
F80F80
F80F80
FC1F00
FF7F00
FFFE00
FFFE00
FBF800
F80000
F80000
F80000
F80000
F80000
F80000
F80000
ENDCHAR
STARTCHAR 03F9
ENCODING 1017
SWIDTH 720 0
DWIDTH 24 0
BBX 22 25 1 -1
BITMAP
01FF00
07FFC0
0FFFE0
1FFFF0
3F83F8
3F00F8
7E00FC
7C007C
7C0000
7C0000
7C0000
FC0000
FC0000
7C0000
7C0000
7C0000
7C007C
7E00F8
3E00F8
3F81F8
1FFFF0
0FFFE0
07FFC0
03FF80
003C00
ENDCHAR
STARTCHAR 03FA
ENCODING 1018
SWIDTH 840 0
DWIDTH 28 0
BBX 24 24 2 0
BITMAP
FF00FF
FF00FF
FF00FF
FF80FF
FF81FF
FF81FF
FB81DF
FB81DF
FBC3DF
FBC3DF
F9C39F
F9C39F
F9E39F
F9E79F
F9E79F
F8E71F
F8F71F
F8FF1F
F8FF1F
F87E1F
F87E1F
F87E1F
F87E1F
F87E1F
ENDCHAR
STARTCHAR 03FB
ENCODING 1019
SWIDTH 780 0
DWIDTH 26 0
BBX 22 24 2 -7
BITMAP
FF01FC
FF03FC
FF83FC
FF83FC
FF87FC
FB87FC
FBC7FC
FBC77C
FBCF7C
F9EF7C
F9EE7C
F9FE7C
F8FE7C
F8FE7C
F8FC7C
F8FC7C
F87C7C
F80000
F80000
F80000
F80000
F80000
F80000
F80000
ENDCHAR
STARTCHAR 03FC
ENCODING 1020
SWIDTH 660 0
DWIDTH 22 0
BBX 21 25 0 -7
BITMAP
003C00
01FF80
03FFC0
07FFE0
07E3E0
07C1F0
0F81F0
0F80F0
0F80F0
0F80F8
0F80F0
0F81F0
0F81F0
0FC1F0
0FE7E0
0FFFE0
0FFFC0
0FBF80
0F8000
FFFE00
FFFE00
FFFE00
FFFE00
0F8000
0F8000
ENDCHAR
STARTCHAR 03FD
ENCODING 1021
SWIDTH 720 0
DWIDTH 24 0
BBX 21 25 2 -1
BITMAP
07FC00
1FFF00
3FFF80
7FFFC0
7E0FE0
FC03E0
F803F0
F801F0
0001F8
0001F8
0000F8
0000F8
0000F8
0000F8
0000F8
0001F8
F801F0
F801F0
FC03F0
7E07E0
7FFFE0
3FFFC0
1FFF80
07FE00
01F000
ENDCHAR
STARTCHAR 03FE
ENCODING 1022
SWIDTH 720 0
DWIDTH 24 0
BBX 22 25 1 -1
BITMAP
01FF00
07FFC0
0FFFE0
1FFFF0
3F83F8
3F00F8
7E00FC
7C007C
7C0000
7C0000
7C3800
FC3800
FC3800
7C3800
7C0000
7C0000
7C007C
7E00F8
3E00F8
3F81F8
1FFFF0
0FFFE0
07FFC0
03FF80
003C00
ENDCHAR
STARTCHAR 03FF
ENCODING 1023
SWIDTH 720 0
DWIDTH 24 0
BBX 21 25 2 -1
BITMAP
07FC00
1FFF00
3FFF80
7FFFC0
7E0FE0
FC03E0
F803F0
F801F0
0001F8
0001F8
00E0F8
00E0F8
00E0F8
00E0F8
0000F8
0001F8
F801F0
F801F0
FC03F0
7E07E0
7FFFE0
3FFFC0
1FFF80
07FE00
01F000
ENDCHAR
STARTCHAR 0400
ENCODING 1024
SWIDTH 660 0
DWIDTH 22 0
BBX 18 31 2 0
BITMAP
1F0000
0F8000
07C000
03C000
01E000
000000
000000
FFFFC0
FFFFC0
FFFFC0
FFFFC0
FFFFC0
FC0000
FC0000
FC0000
FC0000
FC0000
FFFF80
FFFF80
FFFF80
FFFF80
FC0000
FC0000
FC0000
FC0000
FC0000
FC0000
FFFFC0
FFFFC0
FFFFC0
FFFFC0
ENDCHAR
STARTCHAR 0401
ENCODING 1025
SWIDTH 660 0
DWIDTH 22 0
BBX 18 30 2 0
BITMAP
0F1E00
0F1E00
0F1E00
0F1E00
000000
000000
FFFFC0
FFFFC0
FFFFC0
FFFFC0
FFFFC0
FC0000
FC0000
FC0000
FC0000
FC0000
FFFF80
FFFF80
FFFF80
FFFF80
FC0000
FC0000
FC0000
FC0000
FC0000
FC0000
FFFFC0
FFFFC0
FFFFC0
FFFFC0
ENDCHAR
STARTCHAR 0402
ENCODING 1026
SWIDTH 810 0
DWIDTH 27 0
BBX 25 24 0 0
BITMAP
FFFFF000
FFFFF000
FFFFF000
FFFFF000
FFFFF000
01F00000
01F00000
01F00000
01F00000
01F3FC00
01FFFE00
01FFFF00
01FFFF80
01FC1F80
01F80F80
01F00F80
01F00F80
01F00F80
01F00F80
01F01F80
01F3FF80
01F3FF00
01F3FE00
01F3F800
ENDCHAR
STARTCHAR 0403
ENCODING 1027
SWIDTH 570 0
DWIDTH 19 0
BBX 17 31 2 0
BITMAP
007C00
00F800
01F000
01E000
03C000
000000
000000
FFFF80
FFFF80
FFFF80
FFFF80
FFFF80
FC0000
FC0000
FC0000
FC0000
FC0000
FC0000
FC0000
FC0000
FC0000
FC0000
FC0000
FC0000
FC0000
FC0000
FC0000
FC0000
FC0000
FC0000
FC0000
ENDCHAR
STARTCHAR 0404
ENCODING 1028
SWIDTH 750 0
DWIDTH 25 0
BBX 22 25 1 -1
BITMAP
01FF00
07FFC0
0FFFF0
1FFFF0
3F83F8
3F00FC
7E007C
7C007C
7C0000
FC0000
FFFC00
FFFC00
FFFC00
FFFC00
FC0000
7C0000
7C007C
7E00FC
3E00F8
3F81F8
1FFFF0
0FFFF0
07FFE0
01FF80
001800
ENDCHAR
STARTCHAR 0405
ENCODING 1029
SWIDTH 660 0
DWIDTH 22 0
BBX 20 25 1 -1
BITMAP
07FC00
1FFF00
3FFF80
7FFFC0
7E07E0
7C07E0
7C03E0
7C0000
7E0000
7FE000
3FFE00
1FFF80
0FFFC0
01FFE0
001FE0
0007F0
F803F0
F801F0
F801F0
FC03E0
7FFFE0
3FFFC0
1FFF80
07FE00
00F000
ENDCHAR
STARTCHAR 0406
ENCODING 1030
SWIDTH 300 0
DWIDTH 10 0
BBX 6 24 2 0
BITMAP
FC
FC
FC
FC
FC
FC
FC
FC
FC
FC
FC
FC
FC
FC
FC
FC
FC
FC
FC
FC
FC
FC
FC
FC
ENDCHAR
STARTCHAR 0407
ENCODING 1031
SWIDTH 300 0
DWIDTH 10 0
BBX 12 30 -1 0
BITMAP
F9F0
F9F0
F9F0
F9F0
0000
0000
1F80
1F80
1F80
1F80
1F80
1F80
1F80
1F80
1F80
1F80
1F80
1F80
1F80
1F80
1F80
1F80
1F80
1F80
1F80
1F80
1F80
1F80
1F80
1F80
ENDCHAR
STARTCHAR 0408
ENCODING 1032
SWIDTH 570 0
DWIDTH 19 0
BBX 16 25 0 -1
BITMAP
001F
001F
001F
001F
001F
001F
001F
001F
001F
001F
001F
001F
001F
001F
001F
F81F
F81F
F81F
7C1F
7C3F
7FFF
3FFE
3FFC
0FF8
01C0
ENDCHAR
STARTCHAR 0409
ENCODING 1033
SWIDTH 1140 0
DWIDTH 38 0
BBX 36 24 0 0
BITMAP
07FFFC0000
07FFFC0000
07FFFC0000
07FFFC0000
07FFFC0000
07C07C0000
07C07C0000
07C07C0000
07C07C0000
07C07FFF00
07C07FFFC0
07C07FFFE0
07C07FFFF0
07C07C03F0
07C07C01F0
07C07C01F0
0FC07C01F0
0F807C01F0
0F807C01F0
3F807C07F0
FF007FFFE0
FF007FFFE0
FE007FFFC0
FC007FFF00
ENDCHAR
STARTCHAR 040A
ENCODING 1034
SWIDTH 1110 0
DWIDTH 37 0
BBX 34 24 2 0
BITMAP
FC01F00000
FC01F00000
FC01F00000
FC01F00000
FC01F00000
FC01F00000
FC01F00000
FC01F00000
FC01F00000
FFFFFFF800
FFFFFFFE00
FFFFFFFF80
FFFFFFFF80
FFFFF01FC0
FC01F007C0
FC01F007C0
FC01F007C0
FC01F007C0
FC01F007C0
FC01F01FC0
FC01FFFF80
FC01FFFF80
FC01FFFF00
FC01FFFC00
ENDCHAR
STARTCHAR 040B
ENCODING 1035
SWIDTH 810 0
DWIDTH 27 0
BBX 25 24 0 0
BITMAP
FFFFF000
FFFFF000
FFFFF000
FFFFF000
FFFFF000
01F00000
01F00000
01F00000
01F00000
01F7F000
01FFFC00
01FFFE00
01FFFF00
01FE7F00
01F01F80
01F01F80
01F00F80
01F00F80
01F00F80
01F00F80
01F00F80
01F00F80
01F00F80
01F00F80
ENDCHAR
STARTCHAR 040C
ENCODING 1036
SWIDTH 720 0
DWIDTH 24 0
BBX 22 31 2 0
BITMAP
003E00
003C00
007800
00F000
00E000
000000
000000
FC01F8
FC03F0
FC07E0
FC0FC0
FC1F80
FC3F00
FC7E00
FCFC00
FDF800
FFF000
FFE000
FFF000
FFF800
FFFC00
FCFE00
FC7E00
FC3F00
FC1F80
FC1FC0
FC0FE0
FC07E0
FC03F0
FC03F8
FC01FC
ENDCHAR
STARTCHAR 040D
ENCODING 1037
SWIDTH 750 0
DWIDTH 25 0
BBX 21 31 2 0
BITMAP
0FC000
07C000
03E000
00F000
007000
000000
000000
F803F8
F803F8
F807F8
F807F8
F80FF8
F80FF8
F81FF8
F81FF8
F83FF8
F83DF8
F87DF8
F8F9F8
F8F1F8
F9F1F8
F9E1F8
FBE1F8
FBC1F8
FFC1F8
FF81F8
FF81F8
FF01F8
FF01F8
FE01F8
FC01F8
ENDCHAR
STARTCHAR 040E
ENCODING 1038
SWIDTH 660 0
DWIDTH 22 0
BBX 22 31 0 0
BITMAP
0783C0
07C3C0
03FFC0
03FF80
00FF00
000000
000000
FC007C
FC00FC
7E00F8
3E00F8
3F01F8
1F01F0
1F81F0
0FC3E0
0FC3E0
07E7E0
07E7C0
03F7C0
03FF80
01FF80
01FF00
00FF00
007F00
007E00
007E00
00FC00
0FFC00
0FF800
0FF000
0FE000
ENDCHAR
STARTCHAR 040F
ENCODING 1039
SWIDTH 720 0
DWIDTH 24 0
BBX 20 29 2 -5
BITMAP
FC01F0
FC01F0
FC01F0
FC01F0
FC01F0
FC01F0
FC01F0
FC01F0
FC01F0
FC01F0
FC01F0
FC01F0
FC01F0
FC01F0
FC01F0
FC01F0
FC01F0
FC01F0
FC01F0
FC01F0
FFFFF0
FFFFF0
FFFFF0
FFFFF0
00F800
00F800
00F800
00F800
00F800
ENDCHAR
STARTCHAR 0410
ENCODING 1040
SWIDTH 690 0
DWIDTH 23 0
BBX 23 24 0 0
BITMAP
007C00
00FE00
00FE00
00FE00
01FF00
01FF00
03EF80
03EF80
03EF80
07C7C0
07C7C0
0787C0
0F83E0
0F83E0
1F03F0
1FFFF0
1FFFF0
3FFFF8
3FFFF8
7E00F8
7C00FC
7C007C
FC007E
F8007E
ENDCHAR
STARTCHAR 0411
ENCODING 1041
SWIDTH 690 0
DWIDTH 23 0
BBX 20 24 2 0
BITMAP
FFFFC0
FFFFC0
FFFFC0
FFFFC0
FFFFC0
FC0000
FC0000
FC0000
FC0000
FFFE00
FFFF80
FFFFC0
FFFFE0
FC07F0
FC03F0
FC01F0
FC01F0
FC01F0
FC03F0
FC07F0
FFFFE0
FFFFC0
FFFF80
FFFE00
ENDCHAR
STARTCHAR 0412
ENCODING 1042
SWIDTH 690 0
DWIDTH 23 0
BBX 20 24 2 0
BITMAP
FFFE00
FFFF80
FFFFC0
FFFFE0
FC0FE0
FC03E0
FC03E0
FC03E0
FC03E0
FC0FC0
FFFF80
FFFF80
FFFFC0
FC0FE0
FC03F0
FC01F0
FC01F0
FC01F0
FC01F0
FC07F0
FFFFE0
FFFFE0
FFFF80
FFFE00
ENDCHAR
STARTCHAR 0413
ENCODING 1043
SWIDTH 570 0
DWIDTH 19 0
BBX 17 24 2 0
BITMAP
FFFF80
FFFF80
FFFF80
FFFF80
FFFF80
FC0000
FC0000
FC0000
FC0000
FC0000
FC0000
FC0000
FC0000
FC0000
FC0000
FC0000
FC0000
FC0000
FC0000
FC0000
FC0000
FC0000
FC0000
FC0000
ENDCHAR
STARTCHAR 0414
ENCODING 1044
SWIDTH 780 0
DWIDTH 26 0
BBX 25 29 0 -5
BITMAP
03FFFE00
03FFFE00
03FFFE00
03FFFE00
03FFFE00
07E03E00
07C03E00
07C03E00
07C03E00
07C03E00
07C03E00
07C03E00
07C03E00
07C03E00
07C03E00
0FC03E00
0F803E00
1F803E00
1F003E00
3F003E00
FFFFFF80
FFFFFF80
FFFFFF80
FFFFFF80
F8000780
F8000780
F8000780
F8000780
F8000780
ENDCHAR
STARTCHAR 0415
ENCODING 1045
SWIDTH 660 0
DWIDTH 22 0
BBX 18 24 2 0
BITMAP
FFFFC0
FFFFC0
FFFFC0
FFFFC0
FFFFC0
FC0000
FC0000
FC0000
FC0000
FC0000
FFFF80
FFFF80
FFFF80
FFFF80
FC0000
FC0000
FC0000
FC0000
FC0000
FC0000
FFFFC0
FFFFC0
FFFFC0
FFFFC0
ENDCHAR
STARTCHAR 0416
ENCODING 1046
SWIDTH 1050 0
DWIDTH 35 0
BBX 35 24 0 0
BITMAP
7E01F00FC0
3F01F01FC0
1F81F01F80
1FC1F03F00
0FC1F07E00
07E1F0FC00
03F1F1F800
01F9F3F000
00FDF7E000
007FF7C000
003FFFC000
007FFFC000
00FFFFE000
00FFFFF000
01FBFBF000
03F1F1F800
07F1F0FC00
07E1F0FE00
0FC1F07E00
1F81F03F00
3F81F01F80
3F01F01FC0
7E01F00FC0
FE01F007E0
ENDCHAR
STARTCHAR 0417
ENCODING 1047
SWIDTH 660 0
DWIDTH 22 0
BBX 19 25 1 -1
BITMAP
07FC00
1FFF00
3FFF80
3FFFC0
7E07C0
7C07C0
7C03C0
0007C0
0007C0
001F80
00FF00
00FF00
00FFC0
001FC0
0007E0
0003E0
F803E0
F803E0
FC03E0
FC07E0
7F9FC0
3FFF80
1FFF00
0FFE00
006000
ENDCHAR
STARTCHAR 0418
ENCODING 1048
SWIDTH 750 0
DWIDTH 25 0
BBX 21 24 2 0
BITMAP
F803F8
F803F8
F807F8
F807F8
F80FF8
F80FF8
F81FF8
F81FF8
F83FF8
F83DF8
F87DF8
F8F9F8
F8F1F8
F9F1F8
F9E1F8
FBE1F8
FBC1F8
FFC1F8
FF81F8
FF81F8
FF01F8
FF01F8
FE01F8
FC01F8
ENDCHAR
STARTCHAR 0419
ENCODING 1049
SWIDTH 750 0
DWIDTH 25 0
BBX 21 31 2 0
BITMAP
0F0780
0F8780
07FF80
07FF00
01FE00
000000
000000
F803F8
F803F8
F807F8
F807F8
F80FF8
F80FF8
F81FF8
F81FF8
F83FF8
F83DF8
F87DF8
F8F9F8
F8F1F8
F9F1F8
F9E1F8
FBE1F8
FBC1F8
FFC1F8
FF81F8
FF81F8
FF01F8
FF01F8
FE01F8
FC01F8
ENDCHAR
STARTCHAR 041A
ENCODING 1050
SWIDTH 720 0
DWIDTH 24 0
BBX 22 24 2 0
BITMAP
FC01F8
FC03F0
FC07E0
FC0FC0
FC1F80
FC3F00
FC7E00
FCFC00
FDF800
FFF000
FFE000
FFF000
FFF800
FFFC00
FCFE00
FC7E00
FC3F00
FC1F80
FC1FC0
FC0FE0
FC07E0
FC03F0
FC03F8
FC01FC
ENDCHAR
STARTCHAR 041B
ENCODING 1051
SWIDTH 750 0
DWIDTH 25 0
BBX 22 24 0 0
BITMAP
07FFFC
07FFFC
07FFFC
07FFFC
07FFFC
07C07C
07C07C
07C07C
07C07C
07C07C
07C07C
07C07C
07C07C
07C07C
07C07C
07C07C
0FC07C
0F807C
0F807C
3F807C
FF007C
FF007C
FE007C
FC007C
ENDCHAR
STARTCHAR 041C
ENCODING 1052
SWIDTH 900 0
DWIDTH 30 0
BBX 26 24 2 0
BITMAP
FF003FC0
FF003FC0
FF003FC0
FF807FC0
FF807FC0
FF807FC0
FFC07FC0
FFC0FFC0
FBC0F7C0
FBE0F7C0
FBE1F7C0
F9F1E7C0
F9F1E7C0
F9F3E7C0
F8FBC7C0
F8FBC7C0
F8FFC7C0
F87F87C0
F87F87C0
F83F87C0
F83F07C0
F83F07C0
F81F07C0
F81E07C0
ENDCHAR
STARTCHAR 041D
ENCODING 1053
SWIDTH 750 0
DWIDTH 25 0
BBX 20 24 2 0
BITMAP
FC01F0
FC01F0
FC01F0
FC01F0
FC01F0
FC01F0
FC01F0
FC01F0
FC01F0
FFFFF0
FFFFF0
FFFFF0
FFFFF0
FFFFF0
FC01F0
FC01F0
FC01F0
FC01F0
FC01F0
FC01F0
FC01F0
FC01F0
FC01F0
FC01F0
ENDCHAR
STARTCHAR 041E
ENCODING 1054
SWIDTH 780 0
DWIDTH 26 0
BBX 24 25 1 -1
BITMAP
01FF80
07FFC0
0FFFF0
1FFFF8
3F83F8
3F00FC
7E007E
7C007E
7C003E
FC003E
FC003F
FC003F
F8003F
FC003F
FC003E
7C003E
7C003E
7E007E
3F00FC
3F81FC
1FFFF8
0FFFF0
07FFE0
01FF80
003800
ENDCHAR
STARTCHAR 041F
ENCODING 1055
SWIDTH 720 0
DWIDTH 24 0
BBX 20 24 2 0
BITMAP
FFFFF0
FFFFF0
FFFFF0
FFFFF0
FFFFF0
FC01F0
FC01F0
FC01F0
FC01F0
FC01F0
FC01F0
FC01F0
FC01F0
FC01F0
FC01F0
FC01F0
FC01F0
FC01F0
FC01F0
FC01F0
FC01F0
FC01F0
FC01F0
FC01F0
ENDCHAR
STARTCHAR 0420
ENCODING 1056
SWIDTH 660 0
DWIDTH 22 0
BBX 19 24 2 0
BITMAP
FFFC00
FFFF00
FFFF80
FFFFC0
FC0FE0
FC07E0
FC03E0
FC03E0
FC03E0
FC03E0
FC07E0
FFFFC0
FFFFC0
FFFF80
FFFF00
FC0000
FC0000
FC0000
FC0000
FC0000
FC0000
FC0000
FC0000
FC0000
ENDCHAR
STARTCHAR 0421
ENCODING 1057
SWIDTH 750 0
DWIDTH 25 0
BBX 22 25 1 -1
BITMAP
01FF00
07FFC0
0FFFF0
1FFFF0
3F83F8
3F00FC
7E00FC
7C007C
7C0000
FC0000
FC0000
FC0000
F80000
FC0000
FC0000
7C007C
7C007C
7E007C
3F00FC
3F81F8
1FFFF0
0FFFF0
07FFE0
01FF80
003800
ENDCHAR
STARTCHAR 0422
ENCODING 1058
SWIDTH 600 0
DWIDTH 20 0
BBX 20 24 0 0
BITMAP
FFFFF0
FFFFF0
FFFFF0
FFFFF0
FFFFF0
00F800
00F800
00F800
00F800
00F800
00F800
00F800
00F800
00F800
00F800
00F800
00F800
00F800
00F800
00F800
00F800
00F800
00F800
00F800
ENDCHAR
STARTCHAR 0423
ENCODING 1059
SWIDTH 660 0
DWIDTH 22 0
BBX 22 24 0 0
BITMAP
FC007C
FC00FC
7E00F8
3E00F8
3F01F8
1F01F0
1F81F0
0FC3E0
0FC3E0
07E7E0
07E7C0
03F7C0
03FF80
01FF80
01FF00
00FF00
007F00
007E00
007E00
00FC00
0FFC00
0FF800
0FF000
0FE000
ENDCHAR
STARTCHAR 0424
ENCODING 1060
SWIDTH 930 0
DWIDTH 31 0
BBX 29 25 1 -1
BITMAP
000F8000
000F8000
01FFFC00
07FFFF00
1FFFFFC0
3FFFFFE0
7F0F87E0
7E0F83F0
7C0F81F0
FC0F81F0
F80F81F8
F80F80F8
F80F80F8
F80F81F0
FC0F81F0
7C0F81F0
7E0F83F0
7F8F8FE0
3FFFFFC0
1FFFFF80
07FFFF00
00FFF800
000F8000
000F8000
000F8000
ENDCHAR
STARTCHAR 0425
ENCODING 1061
SWIDTH 660 0
DWIDTH 22 0
BBX 22 24 0 0
BITMAP
7E00FC
7E01F8
3F01F0
1F83F0
1F87E0
0FC7C0
07CFC0
07FF80
03FF00
01FF00
01FE00
00FC00
01FE00
01FE00
03FF00
07FF80
07FF80
0FCFC0
1F87E0
1F87E0
3F03F0
7E01F8
7E01F8
FC00FC
ENDCHAR
STARTCHAR 0426
ENCODING 1062
SWIDTH 750 0
DWIDTH 25 0
BBX 23 29 2 -5
BITMAP
FC01F0
FC01F0
FC01F0
FC01F0
FC01F0
FC01F0
FC01F0
FC01F0
FC01F0
FC01F0
FC01F0
FC01F0
FC01F0
FC01F0
FC01F0
FC01F0
FC01F0
FC01F0
FC01F0
FC01F0
FFFFFE
FFFFFE
FFFFFE
FFFFFE
00003E
00003E
00003E
00003E
00003E
ENDCHAR
STARTCHAR 0427
ENCODING 1063
SWIDTH 690 0
DWIDTH 23 0
BBX 19 24 1 0
BITMAP
FC03E0
FC03E0
FC03E0
FC03E0
FC03E0
FC03E0
FC03E0
FC03E0
7C03E0
7C03E0
7E03E0
7FFFE0
3FFFE0
3FFFE0
0FFFE0
01E3E0
0003E0
0003E0
0003E0
0003E0
0003E0
0003E0
0003E0
0003E0
ENDCHAR
STARTCHAR 0428
ENCODING 1064
SWIDTH 1050 0
DWIDTH 35 0
BBX 30 24 2 0
BITMAP
FC07C07C
FC07C07C
FC07C07C
FC07C07C
FC07C07C
FC07C07C
FC07C07C
FC07C07C
FC07C07C
FC07C07C
FC07C07C
FC07C07C
FC07C07C
FC07C07C
FC07C07C
FC07C07C
FC07C07C
FC07C07C
FC07C07C
FC07C07C
FFFFFFFC
FFFFFFFC
FFFFFFFC
FFFFFFFC
ENDCHAR
STARTCHAR 0429
ENCODING 1065
SWIDTH 1050 0
DWIDTH 35 0
BBX 33 29 2 -5
BITMAP
FC07C07C00
FC07C07C00
FC07C07C00
FC07C07C00
FC07C07C00
FC07C07C00
FC07C07C00
FC07C07C00
FC07C07C00
FC07C07C00
FC07C07C00
FC07C07C00
FC07C07C00
FC07C07C00
FC07C07C00
FC07C07C00
FC07C07C00
FC07C07C00
FC07C07C00
FC07C07C00
FFFFFFFF80
FFFFFFFF80
FFFFFFFF80
FFFFFFFF80
0000000F80
0000000F80
0000000F80
0000000F80
0000000F80
ENDCHAR
STARTCHAR 042A
ENCODING 1066
SWIDTH 810 0
DWIDTH 27 0
BBX 26 24 0 0
BITMAP
FFF00000
FFF00000
FFF00000
FFF00000
FFF00000
01F00000
01F00000
01F00000
01F00000
01FFFC00
01FFFE00
01FFFF00
01FFFF80
01F00FC0
01F007C0
01F007C0
01F007C0
01F007C0
01F00FC0
01F01FC0
01FFFF80
01FFFF00
01FFFE00
01FFF800
ENDCHAR
STARTCHAR 042B
ENCODING 1067
SWIDTH 930 0
DWIDTH 31 0
BBX 27 24 2 0
BITMAP
FC0007E0
FC0007E0
FC0007E0
FC0007E0
FC0007E0
FC0007E0
FC0007E0
FC0007E0
FC0007E0
FFFC07E0
FFFF07E0
FFFF87E0
FFFFC7E0
FC0FC7E0
FC07E7E0
FC03E7E0
FC03E7E0
FC03E7E0
FC07E7E0
FC0FC7E0
FFFFC7E0
FFFF87E0
FFFF07E0
FFFC07E0
ENDCHAR
STARTCHAR 042C
ENCODING 1068
SWIDTH 690 0
DWIDTH 23 0
BBX 20 24 2 0
BITMAP
FC0000
FC0000
FC0000
FC0000
FC0000
FC0000
FC0000
FC0000
FC0000
FFFE00
FFFF80
FFFFC0
FFFFE0
FC07E0
FC03E0
FC03F0
FC03F0
FC03E0
FC03E0
FC0FE0
FFFFE0
FFFFC0
FFFF80
FFFE00
ENDCHAR
STARTCHAR 042D
ENCODING 1069
SWIDTH 750 0
DWIDTH 25 0
BBX 22 25 1 -1
BITMAP
03FE00
0FFF80
1FFFC0
3FFFE0
3F07F0
7E01F8
7C00F8
F800FC
00007C
00007C
00FFFC
00FFFC
00FFFC
00FFFC
00007C
00007C
FC00FC
7C00F8
7E01F8
7F03F0
3FFFF0
1FFFE0
0FFFC0
03FF00
003000
ENDCHAR
STARTCHAR 042E
ENCODING 1070
SWIDTH 1020 0
DWIDTH 34 0
BBX 31 25 2 -1
BITMAP
FC00FF00
FC03FFC0
FC07FFE0
FC0FFFF0
FC1FC3F8
FC1F80F8
FC3F00FC
FC3E007C
FC3E007C
FFFE007E
FFFE007E
FFFE003E
FFFE003E
FFFE007E
FC7E007E
FC3E007C
FC3E007C
FC3F00FC
FC1F00FC
FC1FC1F8
FC0FFFF0
FC07FFF0
FC03FFC0
FC01FF80
00001800
ENDCHAR
STARTCHAR 042F
ENCODING 1071
SWIDTH 720 0
DWIDTH 24 0
BBX 22 24 0 0
BITMAP
01FFFC
07FFFC
0FFFFC
1FFFFC
1FC07C
3F007C
3E007C
3E007C
3E007C
3F007C
3F807C
1FFFFC
0FFFFC
07FFFC
01FFFC
01F87C
03F07C
07E07C
0FE07C
0FC07C
1F807C
3F007C
7F007C
FE007C
ENDCHAR
STARTCHAR 0430
ENCODING 1072
SWIDTH 570 0
DWIDTH 19 0
BBX 17 18 1 0
BITMAP
03E000
1FFC00
3FFE00
7FFF00
7C1F00
781F00
001F00
003F00
0FFF00
3FFF00
7F0F00
F81F00
F81F00
F81F00
F83F00
FFFF00
7FFF00
3FCF80
ENDCHAR
STARTCHAR 0431
ENCODING 1073
SWIDTH 600 0
DWIDTH 20 0
BBX 17 24 2 0
BITMAP
003F00
07FF00
1FFF00
3FFE00
7FF000
7C0000
F00000
E3F000
EFFC00
FFFE00
DE3F00
FC1F00
F80F00
F80F80
F00F80
F00F80
F00F80
F80F80
F80F80
F81F00
7E3F00
3FFE00
3FFC00
0FF800
ENDCHAR
STARTCHAR 0432
ENCODING 1074
SWIDTH 570 0
DWIDTH 19 0
BBX 16 17 2 0
BITMAP
FFF8
FFFC
FFFE
F83E
F83E
F83E
F87E
FFF8
FFFE
F87F
F81F
F81F
F81F
F83F
FFFE
FFFE
FFF8
ENDCHAR
STARTCHAR 0433
ENCODING 1075
SWIDTH 450 0
DWIDTH 15 0
BBX 13 17 2 0
BITMAP
FFF8
FFF8
FFF8
F800
F800
F800
F800
F800
F800
F800
F800
F800
F800
F800
F800
F800
F800
ENDCHAR
STARTCHAR 0434
ENCODING 1076
SWIDTH 630 0
DWIDTH 21 0
BBX 20 22 0 -5
BITMAP
0FFFC0
0FFFC0
0FFFC0
0F87C0
0F87C0
0F87C0
0F87C0
0F87C0
0F07C0
0F07C0
1F07C0
1F07C0
1E07C0
FFFFF0
FFFFF0
FFFFF0
FFFFF0
F800F0
F800F0
F800F0
F800F0
F800F0
ENDCHAR
STARTCHAR 0435
ENCODING 1077
SWIDTH 570 0
DWIDTH 19 0
BBX 17 18 1 0
BITMAP
01E000
0FF800
1FFC00
3FFE00
7C1F00
780F00
F80F80
F80F80
FFFF80
FFFF80
FFFF80
F80000
F80000
7C0F80
7E1F00
3FFE00
1FFE00
0FF800
ENDCHAR
STARTCHAR 0436
ENCODING 1078
SWIDTH 810 0
DWIDTH 27 0
BBX 27 17 0 0
BITMAP
7C1F07C0
3E1F0F80
1F1F1F00
1F9F3E00
0F9F3E00
07DF7C00
03FFF800
03FFF000
03FFF800
07FFFC00
0F9F7E00
0F9F3E00
1F1F1F00
3F1F1F80
3E1F0F80
7C1F07C0
FC1F07E0
ENDCHAR
STARTCHAR 0437
ENCODING 1079
SWIDTH 540 0
DWIDTH 18 0
BBX 16 18 1 0
BITMAP
03C0
1FFC
3FFE
7E7E
783E
F81E
003E
007C
03F8
03FC
03FE
003F
F01F
F01F
F83F
7FFE
7FFC
1FF8
ENDCHAR
STARTCHAR 0438
ENCODING 1080
SWIDTH 600 0
DWIDTH 20 0
BBX 16 17 2 0
BITMAP
F03F
F03F
F07F
F07F
F0FF
F0FF
F1EF
F1CF
F3CF
F78F
F78F
FF0F
FF0F
FE0F
FE0F
FC0F
F80F
ENDCHAR
ENDFONT
